<svg width="21" height="15" viewBox="0 0 21 15" fill="none" xmlns="http://www.w3.org/2000/svg">
<path d="M7.3335 12C7.3335 13.1046 6.43807 14 5.3335 14C4.22893 14 3.3335 13.1046 3.3335 12M7.3335 12C7.3335 10.8954 6.43807 10 5.3335 10C4.22893 10 3.3335 10.8954 3.3335 12M7.3335 12H13.3335M3.3335 12H1.3335V6M17.3335 12C17.3335 13.1046 16.4381 14 15.3335 14C14.2289 14 13.3335 13.1046 13.3335 12M17.3335 12C17.3335 10.8954 16.4381 10 15.3335 10C14.2289 10 13.3335 10.8954 13.3335 12M17.3335 12H19.3335V8C19.3335 7.46957 19.1228 6.96086 18.7477 6.58579C18.3726 6.21071 17.8639 6 17.3335 6H16.3335M1.3335 6L3.3335 1H12.3335L16.3335 6M1.3335 6H16.3335M10.3335 6V1" stroke="#808080" stroke-width="1.5" stroke-linecap="round" stroke-linejoin="round"/>
</svg>
