<svg width="14" height="14" viewBox="0 0 14 14" fill="none" xmlns="http://www.w3.org/2000/svg">
<path d="M7.83317 7C7.83317 6.72386 7.60931 6.5 7.33317 6.5C7.05703 6.5 6.83317 6.72386 6.83317 7H7.83317ZM6.83317 7.00667C6.83317 7.28281 7.05703 7.50667 7.33317 7.50667C7.60931 7.50667 7.83317 7.28281 7.83317 7.00667H6.83317ZM0.666504 12.5C0.390362 12.5 0.166504 12.7239 0.166504 13C0.166504 13.2761 0.390362 13.5 0.666504 13.5V12.5ZM12.6665 13.5C12.9426 13.5 13.1665 13.2761 13.1665 13C13.1665 12.7239 12.9426 12.5 12.6665 12.5V13.5ZM1.49984 13C1.49984 13.2761 1.72369 13.5 1.99984 13.5C2.27598 13.5 2.49984 13.2761 2.49984 13H1.49984ZM3.33317 1V0.5V1ZM7.33317 1.5C7.60931 1.5 7.83317 1.27614 7.83317 1C7.83317 0.723858 7.60931 0.5 7.33317 0.5V1.5ZM10.4998 8C10.4998 7.72386 10.276 7.5 9.99984 7.5C9.72369 7.5 9.49984 7.72386 9.49984 8H10.4998ZM9.49984 13C9.49984 13.2761 9.72369 13.5 9.99984 13.5C10.276 13.5 10.4998 13.2761 10.4998 13H9.49984ZM12.6665 4.16667C12.9426 4.16667 13.1665 3.94281 13.1665 3.66667C13.1665 3.39052 12.9426 3.16667 12.6665 3.16667V4.16667ZM7.99984 3.66667L7.64628 3.31311C7.45102 3.50838 7.45102 3.82496 7.64628 4.02022L7.99984 3.66667ZM10.3534 2.02022C10.5487 1.82496 10.5487 1.50838 10.3534 1.31311C10.1581 1.11785 9.84155 1.11785 9.64628 1.31311L10.3534 2.02022ZM9.64628 6.02022C9.84155 6.21548 10.1581 6.21548 10.3534 6.02022C10.5487 5.82496 10.5487 5.50838 10.3534 5.31311L9.64628 6.02022ZM6.83317 7V7.00667H7.83317V7H6.83317ZM0.666504 13.5H12.6665V12.5H0.666504V13.5ZM2.49984 13V2.33333H1.49984V13H2.49984ZM2.49984 2.33333C2.49984 2.11232 2.58763 1.90036 2.74391 1.74408L2.03681 1.03697C1.69299 1.38079 1.49984 1.8471 1.49984 2.33333H2.49984ZM2.74391 1.74408C2.9002 1.5878 3.11216 1.5 3.33317 1.5V0.5C2.84694 0.5 2.38062 0.693154 2.03681 1.03697L2.74391 1.74408ZM3.33317 1.5H7.33317V0.5H3.33317V1.5ZM9.49984 8V13H10.4998V8H9.49984ZM12.6665 3.16667H7.99984V4.16667H12.6665V3.16667ZM9.64628 1.31311L7.64628 3.31311L8.35339 4.02022L10.3534 2.02022L9.64628 1.31311ZM7.64628 4.02022L9.64628 6.02022L10.3534 5.31311L8.35339 3.31311L7.64628 4.02022Z" fill="#F36B25"/>
</svg>
