<svg width="14" height="14" viewBox="0 0 14 14" fill="none" xmlns="http://www.w3.org/2000/svg">
<path d="M8.16667 7C8.16667 6.72386 7.94281 6.5 7.66667 6.5C7.39052 6.5 7.16667 6.72386 7.16667 7H8.16667ZM7.16667 7.00667C7.16667 7.28281 7.39052 7.50667 7.66667 7.50667C7.94281 7.50667 8.16667 7.28281 8.16667 7.00667H7.16667ZM1 12.5C0.723858 12.5 0.5 12.7239 0.5 13C0.5 13.2761 0.723858 13.5 1 13.5V12.5ZM13 13.5C13.2761 13.5 13.5 13.2761 13.5 13C13.5 12.7239 13.2761 12.5 13 12.5V13.5ZM1.83333 13C1.83333 13.2761 2.05719 13.5 2.33333 13.5C2.60948 13.5 2.83333 13.2761 2.83333 13H1.83333ZM3.66667 1V0.5V1ZM7.66667 1.5C7.94281 1.5 8.16667 1.27614 8.16667 1C8.16667 0.723858 7.94281 0.5 7.66667 0.5V1.5ZM10.8333 8C10.8333 7.72386 10.6095 7.5 10.3333 7.5C10.0572 7.5 9.83333 7.72386 9.83333 8H10.8333ZM9.83333 13C9.83333 13.2761 10.0572 13.5 10.3333 13.5C10.6095 13.5 10.8333 13.2761 10.8333 13H9.83333ZM13 4.16667C13.2761 4.16667 13.5 3.94281 13.5 3.66667C13.5 3.39052 13.2761 3.16667 13 3.16667V4.16667ZM8.33333 3.66667L7.97978 3.31311C7.78452 3.50838 7.78452 3.82496 7.97978 4.02022L8.33333 3.66667ZM10.6869 2.02022C10.8821 1.82496 10.8821 1.50838 10.6869 1.31311C10.4916 1.11785 10.175 1.11785 9.97978 1.31311L10.6869 2.02022ZM9.97978 6.02022C10.175 6.21548 10.4916 6.21548 10.6869 6.02022C10.8821 5.82496 10.8821 5.50838 10.6869 5.31311L9.97978 6.02022ZM7.16667 7V7.00667H8.16667V7H7.16667ZM1 13.5H13V12.5H1V13.5ZM2.83333 13V2.33333H1.83333V13H2.83333ZM2.83333 2.33333C2.83333 2.11232 2.92113 1.90036 3.07741 1.74408L2.3703 1.03697C2.02649 1.38079 1.83333 1.8471 1.83333 2.33333H2.83333ZM3.07741 1.74408C3.23369 1.5878 3.44565 1.5 3.66667 1.5V0.5C3.18044 0.5 2.71412 0.693154 2.3703 1.03697L3.07741 1.74408ZM3.66667 1.5H7.66667V0.5H3.66667V1.5ZM9.83333 8V13H10.8333V8H9.83333ZM13 3.16667H8.33333V4.16667H13V3.16667ZM9.97978 1.31311L7.97978 3.31311L8.68689 4.02022L10.6869 2.02022L9.97978 1.31311ZM7.97978 4.02022L9.97978 6.02022L10.6869 5.31311L8.68689 3.31311L7.97978 4.02022Z" fill="#1A1A1A"/>
</svg>
