<svg width="14" height="14" viewBox="0 0 14 14" fill="none" xmlns="http://www.w3.org/2000/svg">
<path d="M6.02022 5.31311C5.82496 5.11785 5.50838 5.11785 5.31311 5.31311C5.11785 5.50838 5.11785 5.82496 5.31311 6.02022L6.02022 5.31311ZM7.97978 8.68689C8.17504 8.88215 8.49162 8.88215 8.68689 8.68689C8.88215 8.49162 8.88215 8.17504 8.68689 7.97978L7.97978 8.68689ZM8.68689 6.02022C8.88215 5.82496 8.88215 5.50838 8.68689 5.31311C8.49162 5.11785 8.17504 5.11785 7.97978 5.31311L8.68689 6.02022ZM5.31311 7.97978C5.11785 8.17504 5.11785 8.49162 5.31311 8.68689C5.50838 8.88215 5.82496 8.88215 6.02022 8.68689L5.31311 7.97978ZM12.5 7C12.5 10.0376 10.0376 12.5 7 12.5V13.5C10.5899 13.5 13.5 10.5899 13.5 7H12.5ZM7 12.5C3.96243 12.5 1.5 10.0376 1.5 7H0.5C0.5 10.5899 3.41015 13.5 7 13.5V12.5ZM1.5 7C1.5 3.96243 3.96243 1.5 7 1.5V0.5C3.41015 0.5 0.5 3.41015 0.5 7H1.5ZM7 1.5C10.0376 1.5 12.5 3.96243 12.5 7H13.5C13.5 3.41015 10.5899 0.5 7 0.5V1.5ZM5.31311 6.02022L7.97978 8.68689L8.68689 7.97978L6.02022 5.31311L5.31311 6.02022ZM7.97978 5.31311L5.31311 7.97978L6.02022 8.68689L8.68689 6.02022L7.97978 5.31311Z" fill="#1A1A1A"/>
</svg>
