<?xml version="1.0" encoding="utf-8"?>
<!-- Generator: Adobe Illustrator 24.0.0, SVG Export Plug-In . SVG Version: 6.00 Build 0)  -->
<svg version="1.1" id="Layer_1" xmlns="http://www.w3.org/2000/svg" xmlns:xlink="http://www.w3.org/1999/xlink" x="0px" y="0px"
	 viewBox="0 0 500 500" style="enable-background:new 0 0 500 500;" xml:space="preserve">
<style type="text/css">
	.st0{fill:none;stroke:#0C3E55;stroke-width:2;stroke-linecap:round;stroke-miterlimit:10;}
	.st1{fill:#F46B25;}
</style>
<g>
	<path class="st0" d="M16.73,329.02c19.09,0,19.09,18,38.18,18c19.09,0,19.09-18,38.18-18c19.09,0,19.09,18,38.18,18
		c19.09,0,19.09-18,38.18-18c19.09,0,19.09,18,38.18,18c19.09,0,19.09-18,38.18-18c19.09,0,19.09,18,38.18,18
		c19.09,0,19.09-18,38.18-18c19.09,0,19.09,18,38.18,18c19.09,0,19.09-18,38.19-18c19.09,0,19.09,18,38.19,18"/>
	<path class="st0" d="M70.85,378.88c19.09,0,19.09,18,38.18,18c19.09,0,19.09-18,38.18-18c19.09,0,19.09,18,38.18,18
		c19.09,0,19.09-18,38.18-18c19.09,0,19.09,18,38.18,18c19.09,0,19.09-18,38.18-18c19.09,0,19.09,18,38.18,18
		c19.09,0,19.09-18,38.18-18c19.09,0,19.09,18,38.18,18c19.09,0,19.09-18,38.19-18c19.09,0,19.09,18,38.19,18"/>
	<path class="st0" d="M9.15,428.73c19.09,0,19.09,18,38.18,18c19.09,0,19.09-18,38.18-18c19.09,0,19.09,18,38.18,18
		c19.09,0,19.09-18,38.18-18c19.09,0,19.09,18,38.18,18c19.09,0,19.09-18,38.18-18c19.09,0,19.09,18,38.18,18
		c19.09,0,19.09-18,38.18-18c19.09,0,19.09,18,38.18,18c19.09,0,19.09-18,38.19-18c19.09,0,19.09,18,38.19,18"/>
	<path class="st0" d="M336.18,332.98c-14.12-41.79-78.43-73.35-155.62-73.35c-75.79,0-139.15,30.42-154.8,71.07"/>
	<g>
		<path class="st0" d="M190.02,134.05C173.13,91,124.54,69.78,81.48,86.66s-64.28,65.48-47.4,108.54L190.02,134.05z"/>
		<line class="st0" x1="76.12" y1="72.98" x2="149.3" y2="259.63"/>
		<path class="st0" d="M157.98,146.62c0,0-23.61-62.71-76.5-59.96c-40.66,33.93-15.36,95.97-15.36,95.97"/>
	</g>
	<g>
		<g>
			<line class="st0" x1="391.33" y1="172.03" x2="391.33" y2="183.8"/>
			<line class="st0" x1="391.33" y1="53.27" x2="391.33" y2="65.04"/>
		</g>
		<g>
			<line class="st0" x1="353.5" y1="156.36" x2="345.18" y2="164.69"/>
			<line class="st0" x1="437.48" y1="72.38" x2="429.15" y2="80.71"/>
		</g>
		<g>
			<line class="st0" x1="337.83" y1="118.53" x2="326.06" y2="118.53"/>
			<line class="st0" x1="456.6" y1="118.53" x2="444.82" y2="118.53"/>
		</g>
		<g>
			<line class="st0" x1="353.5" y1="80.71" x2="345.18" y2="72.38"/>
			<line class="st0" x1="437.48" y1="164.69" x2="429.15" y2="156.36"/>
		</g>
		
			<ellipse transform="matrix(0.9571 -0.2898 0.2898 0.9571 -17.5585 118.4865)" class="st1" cx="391.33" cy="118.53" rx="44.18" ry="44.18"/>
	</g>
</g>
</svg>
