<svg width="14" height="12" viewBox="0 0 14 12" fill="none" xmlns="http://www.w3.org/2000/svg">
<path d="M1 10.1667C0.723858 10.1667 0.5 10.3905 0.5 10.6667C0.5 10.9428 0.723858 11.1667 1 11.1667V10.1667ZM13 11.1667C13.2761 11.1667 13.5 10.9428 13.5 10.6667C13.5 10.3905 13.2761 10.1667 13 10.1667V11.1667ZM1 5.33334V4.83334C0.867392 4.83334 0.740215 4.88602 0.646447 4.97979C0.552678 5.07356 0.5 5.20074 0.5 5.33334H1ZM13 5.33334H13.5C13.5 5.20074 13.4473 5.07356 13.3536 4.97979C13.2598 4.88602 13.1326 4.83334 13 4.83334V5.33334ZM7.66667 10.6667V11.1667V10.6667ZM6.33333 10.6667V11.1667V10.6667ZM4.5 3.33334C4.5 3.60949 4.72386 3.83334 5 3.83334C5.27614 3.83334 5.5 3.60949 5.5 3.33334H4.5ZM5.5 1.33334C5.5 1.0572 5.27614 0.833344 5 0.833344C4.72386 0.833344 4.5 1.0572 4.5 1.33334H5.5ZM7.5 1.33334C7.5 1.0572 7.27614 0.833344 7 0.833344C6.72386 0.833344 6.5 1.0572 6.5 1.33334H7.5ZM6.5 3.33334C6.5 3.60949 6.72386 3.83334 7 3.83334C7.27614 3.83334 7.5 3.60949 7.5 3.33334H6.5ZM9.5 1.33334C9.5 1.0572 9.27614 0.833344 9 0.833344C8.72386 0.833344 8.5 1.0572 8.5 1.33334H9.5ZM8.5 3.33334C8.5 3.60949 8.72386 3.83334 9 3.83334C9.27614 3.83334 9.5 3.60949 9.5 3.33334H8.5ZM1 11.1667H13V10.1667H1V11.1667ZM1 5.83334H13V4.83334H1V5.83334ZM12.5 5.33334C12.5 6.61522 11.9908 7.8446 11.0843 8.75103L11.7915 9.45813C12.8854 8.36417 13.5 6.88044 13.5 5.33334H12.5ZM11.0843 8.75103C10.1779 9.65745 8.94855 10.1667 7.66667 10.1667V11.1667C9.21376 11.1667 10.6975 10.5521 11.7915 9.45813L11.0843 8.75103ZM7.66667 10.1667H6.33333V11.1667H7.66667V10.1667ZM6.33333 10.1667C5.05145 10.1667 3.82208 9.65745 2.91565 8.75103L2.20854 9.45813C3.30251 10.5521 4.78624 11.1667 6.33333 11.1667V10.1667ZM2.91565 8.75103C2.00922 7.8446 1.5 6.61522 1.5 5.33334H0.5C0.5 6.88044 1.11458 8.36417 2.20854 9.45813L2.91565 8.75103ZM5.5 3.33334V1.33334H4.5V3.33334H5.5ZM6.5 1.33334V3.33334H7.5V1.33334H6.5ZM8.5 1.33334V3.33334H9.5V1.33334H8.5Z" fill="#1A1A1A"/>
</svg>
