<svg width="19" height="20" viewBox="0 0 19 20" fill="none" xmlns="http://www.w3.org/2000/svg">
<path d="M1.6665 1V0.25C1.25229 0.25 0.916504 0.585786 0.916504 1L1.6665 1ZM17.6665 1H18.4165C18.4165 0.585786 18.0807 0.25 17.6665 0.25V1ZM17.6665 19V19.75C18.0807 19.75 18.4165 19.4142 18.4165 19H17.6665ZM1.6665 19H0.916504C0.916504 19.4142 1.25229 19.75 1.6665 19.75L1.6665 19ZM5.4165 4C5.4165 3.58579 5.08072 3.25 4.6665 3.25C4.25229 3.25 3.9165 3.58579 3.9165 4H5.4165ZM3.9165 5C3.9165 5.41421 4.25229 5.75 4.6665 5.75C5.08072 5.75 5.4165 5.41421 5.4165 5H3.9165ZM5.4165 11C5.4165 10.5858 5.08072 10.25 4.6665 10.25C4.25229 10.25 3.9165 10.5858 3.9165 11H5.4165ZM3.9165 12C3.9165 12.4142 4.25229 12.75 4.6665 12.75C5.08072 12.75 5.4165 12.4142 5.4165 12H3.9165ZM1.6665 1.75H17.6665V0.25H1.6665V1.75ZM16.9165 1V8H18.4165V1H16.9165ZM17.6665 7.25H1.6665V8.75H17.6665V7.25ZM2.4165 8V1H0.916504V8H2.4165ZM16.9165 8V19H18.4165V8H16.9165ZM17.6665 18.25H1.6665V19.75H17.6665V18.25ZM2.4165 19V8H0.916504V19H2.4165ZM3.9165 4V5H5.4165V4H3.9165ZM3.9165 11V12H5.4165V11H3.9165Z" fill="#808080"/>
</svg>
