<svg width="12" height="14" viewBox="0 0 12 14" fill="none" xmlns="http://www.w3.org/2000/svg">
<path d="M5.99984 8.33332C7.10441 8.33332 7.99984 7.43789 7.99984 6.33332C7.99984 5.22875 7.10441 4.33332 5.99984 4.33332C4.89527 4.33332 3.99984 5.22875 3.99984 6.33332C3.99984 7.43789 4.89527 8.33332 5.99984 8.33332Z" stroke="#F36B25" stroke-linecap="round" stroke-linejoin="round"/>
<path d="M9.77117 10.1047L6.94251 12.9333C6.6925 13.1831 6.35356 13.3234 6.00017 13.3234C5.64678 13.3234 5.30785 13.1831 5.05784 12.9333L2.22851 10.1047C1.48265 9.35876 0.97473 8.40845 0.768965 7.3739C0.563199 6.33934 0.668833 5.267 1.07251 4.29247C1.47618 3.31795 2.15977 2.48501 3.03683 1.89899C3.91388 1.31297 4.94502 1.00018 5.99984 1.00018C7.05466 1.00018 8.0858 1.31297 8.96285 1.89899C9.83991 2.48501 10.5235 3.31795 10.9272 4.29247C11.3308 5.267 11.4365 6.33934 11.2307 7.3739C11.0249 8.40845 10.517 9.35876 9.77117 10.1047Z" stroke="#F36B25" stroke-linecap="round" stroke-linejoin="round"/>
</svg>
