<svg width="230" height="205" viewBox="0 0 230 205" fill="none" xmlns="http://www.w3.org/2000/svg">
<path d="M190.515 42.3232C188.43 36.2881 189.991 29.9355 194.304 27.6899C199.797 24.826 209.197 33.0442 211.362 45.4356C212.736 53.2847 221.031 64.9327 215.251 67.6525C210.069 70.0883 195.602 57.0267 190.515 42.3232Z" fill="url(#paint0_linear_2996_10668)"/>
<path d="M115.55 192.86C138.117 195.588 145.017 208.502 173.678 204.09C201.633 199.788 221.279 163.604 226.333 141.893C227.986 134.791 232.498 115.407 223.911 96.1668C218.18 83.3248 208 76.7866 195.586 60.7512C180.06 40.6975 187.619 36.3538 177.474 23.2167C166.309 8.7591 156.781 6.56833 150.844 4.31702C111.22 -10.693 56.1885 15.2898 26.9114 53.6529C6.96431 79.7984 -11.9051 128.23 9.39011 160.88C21.1344 178.875 39.2498 188.297 45.9788 190.393C75.85 199.598 85.6826 189.25 115.55 192.86Z" fill="url(#paint1_linear_2996_10668)"/>
<path d="M41.1748 50.9702V58.5209H61.7674V50.9702C61.7674 48.2395 60.6826 45.6206 58.7517 43.6897C56.8208 41.7587 54.2019 40.674 51.4711 40.674C48.7404 40.674 46.1215 41.7587 44.1905 43.6897C42.2596 45.6206 41.1748 48.2395 41.1748 50.9702Z" fill="url(#paint2_linear_2996_10668)"/>
<path d="M61.7843 40.6705H147.587C150.318 40.6705 152.936 41.7553 154.867 43.6862C156.798 45.6172 157.883 48.2361 157.883 50.9668V52.0136C157.883 52.199 157.883 52.3843 157.883 52.5696V160.797C157.883 163.528 158.968 166.147 160.899 168.078C162.83 170.009 165.449 171.094 168.179 171.094H72.0806C69.3499 171.094 66.731 170.009 64.8 168.078C62.8691 166.147 61.7843 163.528 61.7843 160.797V159.751C61.7843 159.565 61.7843 159.38 61.7843 159.195V50.9703C61.7843 48.2395 60.6995 45.6206 58.7686 43.6897C56.8377 41.7587 54.2188 40.674 51.488 40.674L61.7843 40.6705Z" fill="url(#paint3_linear_2996_10668)"/>
<path d="M70.0044 170.86C70.7234 171.02 71.4577 171.099 72.1941 171.097C72.9315 171.097 73.6668 171.018 74.3872 170.86H70.0044Z" fill="#DFD4C1"/>
<path d="M74.3872 170.86C76.6835 170.36 78.7395 169.089 80.2136 167.258C81.6876 165.427 82.4911 163.148 82.4904 160.797V153.247H178.246V160.797C178.247 162.336 177.902 163.856 177.238 165.244C176.574 166.632 175.607 167.854 174.409 168.82C173.21 169.785 171.81 170.469 170.313 170.823C168.815 171.176 167.257 171.189 165.753 170.86H74.3872Z" fill="url(#paint4_linear_2996_10668)"/>
<path style="mix-blend-mode:multiply" opacity="0.8" d="M77.4623 60.556L144.69 60.556C145.6 60.556 146.338 59.8185 146.338 58.9086C146.338 57.9988 145.6 57.2612 144.69 57.2612L77.4623 57.2612C76.5524 57.2612 75.8149 57.9988 75.8149 58.9086C75.8149 59.8185 76.5524 60.556 77.4623 60.556Z" fill="url(#paint5_linear_2996_10668)"/>
<path style="mix-blend-mode:multiply" opacity="0.8" d="M92.0315 68.0759H144.999C145.74 68.0759 146.341 67.4751 146.341 66.734V66.1231C146.341 65.3819 145.74 64.7811 144.999 64.7811H92.0315C91.2904 64.7811 90.6896 65.3819 90.6896 66.1231V66.734C90.6896 67.4751 91.2904 68.0759 92.0315 68.0759Z" fill="url(#paint6_linear_2996_10668)"/>
<path style="mix-blend-mode:multiply" opacity="0.8" d="M77.4623 115.707L144.69 115.707C145.6 115.707 146.338 114.969 146.338 114.059C146.338 113.149 145.6 112.412 144.69 112.412L77.4623 112.412C76.5524 112.412 75.8149 113.149 75.8149 114.059C75.8149 114.969 76.5524 115.707 77.4623 115.707Z" fill="url(#paint7_linear_2996_10668)"/>
<path style="mix-blend-mode:multiply" opacity="0.8" d="M92.0315 123.226H144.999C145.74 123.226 146.341 122.625 146.341 121.884V121.273C146.341 120.532 145.74 119.931 144.999 119.931H92.0315C91.2904 119.931 90.6896 120.532 90.6896 121.273V121.884C90.6896 122.625 91.2904 123.226 92.0315 123.226Z" fill="url(#paint8_linear_2996_10668)"/>
<path style="mix-blend-mode:multiply" d="M70.6908 77.1743V110.809C70.6781 111.518 70.8054 112.223 71.0655 112.883C71.3256 113.544 71.7133 114.146 72.2065 114.656C72.6997 115.166 73.2886 115.574 73.9396 115.856C74.5906 116.138 75.2908 116.289 76.0003 116.3H157.9V71.683H76.0003C75.2908 71.6942 74.5906 71.8451 73.9396 72.1273C73.2886 72.4095 72.6997 72.8173 72.2065 73.3273C71.7133 73.8374 71.3256 74.4398 71.0655 75.0999C70.8054 75.76 70.6781 76.4649 70.6908 77.1743Z" fill="url(#paint9_radial_2996_10668)"/>
<path d="M85.5998 103.481L168.722 103.481C170.735 103.481 172.367 101.85 172.367 99.8366V81.2929C172.367 79.2799 170.735 77.648 168.722 77.648L85.5998 77.648C83.5868 77.648 81.9549 79.2799 81.9549 81.2929V99.8366C81.9549 101.85 83.5868 103.481 85.5998 103.481Z" fill="white"/>
<path style="mix-blend-mode:multiply" opacity="0.8" d="M95.076 88.4523H136.148C137.058 88.4523 137.795 87.7147 137.795 86.8049C137.795 85.895 137.058 85.1575 136.148 85.1575H95.076C94.1662 85.1575 93.4286 85.895 93.4286 86.8049C93.4286 87.7147 94.1662 88.4523 95.076 88.4523Z" fill="url(#paint10_linear_2996_10668)"/>
<path style="mix-blend-mode:multiply" opacity="0.8" d="M109.642 95.9719H136.453C137.195 95.9719 137.795 95.3711 137.795 94.63V94.0191C137.795 93.2779 137.195 92.6771 136.453 92.6771H109.642C108.901 92.6771 108.3 93.2779 108.3 94.0191V94.63C108.3 95.3711 108.901 95.9719 109.642 95.9719Z" fill="url(#paint11_linear_2996_10668)"/>
<path d="M159.026 86.743C159.026 85.2947 158.127 84.5739 157.266 84.5739C155.134 84.5739 155.704 88.1708 153.71 88.1708C153.52 88.1841 153.33 88.1579 153.151 88.0938C152.972 88.0297 152.808 87.9291 152.67 87.7985C152.532 87.6678 152.423 87.5099 152.349 87.3347C152.275 87.1595 152.238 86.9709 152.241 86.7808C152.241 85.1608 154.414 83.4001 157.149 83.4001C159.83 83.4001 162.019 84.5156 162.019 87.0759C162.019 90.4188 157.736 90.7311 157.736 93.137C157.736 93.7822 155.9 93.8406 155.677 93.137C155.049 90.2609 159.026 89.6363 159.026 86.743ZM154.99 96.2019C154.99 95.1276 155.79 94.6197 156.73 94.6197C157.671 94.6197 158.446 95.1276 158.446 96.2019C158.446 97.2761 157.643 97.7463 156.73 97.7463C155.817 97.7463 154.99 97.2315 154.99 96.2019Z" fill="#F36B25"/>
<path d="M210.6 134.223L203.431 141.396L184.959 122.924C184.722 122.688 184.535 122.408 184.407 122.099C184.279 121.791 184.213 121.46 184.213 121.126C184.213 120.792 184.279 120.461 184.407 120.152C184.535 119.844 184.722 119.563 184.959 119.327L188.542 115.765C189.02 115.289 189.666 115.021 190.341 115.021C191.015 115.021 191.662 115.289 192.139 115.765L202.054 125.68L210.6 134.223Z" fill="url(#paint12_linear_2996_10668)"/>
<path style="mix-blend-mode:multiply" d="M202.557 126.196L195.386 133.369L203.945 141.924L211.115 134.752L202.557 126.196Z" fill="url(#paint13_linear_2996_10668)"/>
<path d="M203.73 127.167L196.374 134.523C195.293 135.603 195.293 137.355 196.374 138.435L216.924 158.986C218.005 160.066 219.756 160.066 220.837 158.986L228.192 151.63C229.273 150.55 229.273 148.798 228.192 147.718L207.642 127.167C206.561 126.087 204.81 126.087 203.73 127.167Z" fill="url(#paint14_linear_2996_10668)"/>
<path d="M162.173 52.2917H157.554V52.5662C148.111 53.7013 139.412 58.257 133.102 65.3718C126.791 72.4865 123.306 81.6671 123.306 91.1773C123.306 100.688 126.791 109.868 133.102 116.983C139.412 124.098 148.111 128.653 157.554 129.788V130.063H162.173C172.487 130.063 182.379 125.966 189.672 118.673C196.965 111.38 201.062 101.488 201.062 91.1739C201.062 80.8599 196.965 70.9683 189.672 63.6751C182.379 56.382 172.487 52.2848 162.173 52.2848V52.2917ZM162.173 120.995C156.277 120.995 150.513 119.246 145.61 115.969C140.707 112.693 136.887 108.036 134.631 102.588C132.374 97.14 131.785 91.1454 132.935 85.3621C134.086 79.5789 136.926 74.2667 141.096 70.0974C145.265 65.9281 150.578 63.0889 156.361 61.9388C162.145 60.7886 168.139 61.3793 173.587 63.636C179.035 65.8927 183.691 69.7141 186.967 74.617C190.243 79.5199 191.991 85.2841 191.991 91.1808C191.991 95.0964 191.22 98.9736 189.721 102.591C188.223 106.209 186.026 109.496 183.258 112.264C180.489 115.033 177.202 117.229 173.584 118.727C169.966 120.225 166.089 120.996 162.173 120.995Z" fill="url(#paint15_linear_2996_10668)"/>
<path d="M132.355 91.1808C132.354 83.8386 135.062 76.754 139.96 71.2842C144.857 65.8144 151.601 62.344 158.899 61.5377C157.812 61.4163 156.719 61.3556 155.625 61.3558C147.773 61.4401 140.27 64.6185 134.747 70.201C129.225 75.7835 126.127 83.3194 126.127 91.1722C126.127 99.025 129.225 106.561 134.747 112.143C140.27 117.726 147.773 120.904 155.625 120.989C156.719 120.989 157.812 120.928 158.899 120.807C151.604 120.002 144.862 116.534 139.964 111.067C135.067 105.601 132.357 98.5203 132.355 91.1808Z" fill="url(#paint16_linear_2996_10668)"/>
<g style="mix-blend-mode:screen" opacity="0.4">
<path d="M158.24 52.2916C150.548 52.2903 143.029 54.5699 136.633 58.8423C130.237 63.1147 125.251 69.1878 122.306 76.2938C119.362 83.3997 118.591 91.2192 120.091 98.7634C121.59 106.308 125.294 113.238 130.732 118.677C136.171 124.117 143.1 127.821 150.644 129.322C158.188 130.823 166.008 130.054 173.114 127.11C180.22 124.167 186.295 119.183 190.568 112.787C194.842 106.392 197.123 98.8726 197.123 91.1808C197.123 80.8679 193.026 70.9773 185.735 63.6844C178.443 56.3915 168.553 52.2934 158.24 52.2916ZM158.24 120.995C152.343 120.995 146.579 119.247 141.676 115.971C136.773 112.695 132.952 108.038 130.695 102.59C128.438 97.1424 127.848 91.1477 128.998 85.3642C130.149 79.5807 132.988 74.2683 137.158 70.0986C141.328 65.929 146.64 63.0894 152.424 61.939C158.207 60.7886 164.202 61.379 169.65 63.6356C175.098 65.8922 179.754 69.7136 183.03 74.6166C186.306 79.5196 188.055 85.284 188.055 91.1808C188.055 99.0881 184.914 106.672 179.322 112.263C173.731 117.854 166.148 120.995 158.24 120.995Z" fill="white"/>
</g>
<path d="M157.554 52.2916C149.862 52.2903 142.343 54.5699 135.946 58.8423C129.55 63.1147 124.565 69.1878 121.62 76.2938C118.676 83.3997 117.905 91.2192 119.404 98.7634C120.904 106.308 124.607 113.238 130.046 118.677C135.484 124.117 142.414 127.821 149.958 129.322C157.502 130.823 165.321 130.054 172.428 127.11C179.534 124.167 185.608 119.183 189.882 112.787C194.155 106.392 196.436 98.8726 196.436 91.1808C196.436 80.8679 192.34 70.9773 185.048 63.6844C177.757 56.3915 167.867 52.2934 157.554 52.2916ZM157.554 120.995C151.657 120.995 145.893 119.247 140.99 115.971C136.087 112.695 132.265 108.038 130.009 102.59C127.752 97.1424 127.162 91.1477 128.312 85.3642C129.463 79.5807 132.302 74.2683 136.472 70.0986C140.641 65.929 145.954 63.0894 151.737 61.939C157.521 60.7886 163.516 61.379 168.964 63.6356C174.411 65.8922 179.068 69.7136 182.344 74.6166C185.62 79.5196 187.369 85.284 187.369 91.1808C187.369 99.0881 184.227 106.672 178.636 112.263C173.045 117.854 165.461 120.995 157.554 120.995Z" fill="url(#paint17_linear_2996_10668)"/>
<path d="M157.554 54.7216C150.343 54.7209 143.293 56.8586 137.297 60.8644C131.301 64.8701 126.627 70.5641 123.867 77.226C121.107 83.888 120.385 91.2189 121.791 98.2915C123.198 105.364 126.67 111.861 131.769 116.96C136.867 122.059 143.364 125.532 150.436 126.939C157.509 128.346 164.84 127.624 171.502 124.865C178.164 122.106 183.858 117.433 187.865 111.437C191.871 105.441 194.009 98.3918 194.009 91.1807C194.009 81.5118 190.169 72.2387 183.332 65.4014C176.495 58.5641 167.223 54.7225 157.554 54.7216ZM157.554 120.995C151.657 120.995 145.893 119.247 140.99 115.971C136.087 112.695 132.265 108.038 130.009 102.59C127.752 97.1424 127.162 91.1477 128.312 85.3642C129.462 79.5807 132.302 74.2683 136.472 70.0986C140.641 65.929 145.954 63.0894 151.737 61.939C157.521 60.7886 163.515 61.379 168.963 63.6356C174.411 65.8922 179.068 69.7136 182.344 74.6166C185.62 79.5196 187.368 85.284 187.368 91.1807C187.368 99.0881 184.227 106.672 178.636 112.263C173.045 117.854 165.461 120.995 157.554 120.995Z" fill="url(#paint18_linear_2996_10668)"/>
<path opacity="0.6" d="M182.889 64.9698C189.647 71.8221 193.421 81.0686 193.388 90.6925C193.354 100.316 189.516 109.536 182.711 116.342C175.906 123.147 166.686 126.985 157.062 127.018C147.438 127.051 138.192 123.278 131.339 116.52C134.705 119.991 138.727 122.757 143.172 124.659C147.617 126.56 152.396 127.559 157.231 127.596C162.065 127.633 166.859 126.708 171.332 124.875C175.806 123.043 179.87 120.338 183.289 116.919C186.708 113.501 189.412 109.436 191.245 104.963C193.078 100.489 194.003 95.6955 193.966 90.861C193.928 86.0265 192.93 81.2477 191.028 76.8028C189.127 72.3578 186.36 68.3355 182.889 64.9698Z" fill="white"/>
<path d="M156.83 53.9872C149.585 53.9861 142.504 56.1439 136.491 60.1852C130.478 64.2265 125.805 69.9679 123.07 76.6765C120.334 83.3852 119.66 90.7568 121.133 97.8504C122.606 104.944 126.159 111.438 131.339 116.503C124.773 109.613 121.161 100.428 121.276 90.9105C121.391 81.3932 125.224 72.2983 131.956 65.5691C138.687 58.84 147.783 55.0103 157.301 54.8983C166.818 54.7863 176.002 58.401 182.89 64.9699C179.5 61.4904 175.448 58.7257 170.972 56.8393C166.496 54.9529 161.687 53.9831 156.83 53.9872Z" fill="white"/>
<path d="M157.554 59.0837C151.206 59.0837 145 60.9662 139.722 64.4931C134.443 68.0199 130.329 73.0328 127.9 78.8978C125.471 84.7627 124.835 91.2163 126.074 97.4426C127.312 103.669 130.369 109.388 134.858 113.877C139.347 118.366 145.066 121.423 151.292 122.661C157.518 123.899 163.972 123.264 169.837 120.835C175.702 118.405 180.715 114.291 184.241 109.013C187.768 103.735 189.651 97.5289 189.651 91.1807C189.651 82.6681 186.269 74.5041 180.25 68.4847C174.23 62.4654 166.066 59.0837 157.554 59.0837ZM157.554 120.995C151.657 120.995 145.893 119.247 140.99 115.971C136.087 112.695 132.265 108.038 130.009 102.59C127.752 97.1424 127.162 91.1477 128.312 85.3642C129.462 79.5807 132.302 74.2682 136.472 70.0986C140.641 65.9289 145.954 63.0894 151.737 61.939C157.521 60.7886 163.515 61.379 168.963 63.6356C174.411 65.8922 179.068 69.7136 182.344 74.6166C185.62 79.5196 187.368 85.284 187.368 91.1807C187.368 99.0881 184.227 106.672 178.636 112.263C173.045 117.854 165.461 120.995 157.554 120.995Z" fill="url(#paint19_linear_2996_10668)"/>
<path style="mix-blend-mode:overlay" d="M157.554 120.995C151.657 120.995 145.893 119.247 140.99 115.971C136.087 112.695 132.265 108.038 130.009 102.59C127.752 97.1424 127.162 91.1477 128.312 85.3642C129.462 79.5807 132.302 74.2683 136.472 70.0986C140.641 65.929 145.954 63.0894 151.737 61.939C157.521 60.7886 163.515 61.379 168.963 63.6356C174.411 65.8922 179.068 69.7136 182.344 74.6166C185.62 79.5196 187.368 85.284 187.368 91.1808C187.368 99.0881 184.227 106.672 178.636 112.263C173.044 117.854 165.461 120.995 157.554 120.995Z" fill="url(#paint20_radial_2996_10668)"/>
<path opacity="0.3" d="M221.817 148.842C223.153 147.506 220.017 142.203 214.811 136.997C209.605 131.791 204.302 128.654 202.965 129.99C201.629 131.327 204.766 136.63 209.972 141.836C215.177 147.042 220.481 150.179 221.817 148.842Z" fill="url(#paint21_radial_2996_10668)"/>
<defs>
<linearGradient id="paint0_linear_2996_10668" x1="175.91" y1="210.193" x2="208.752" y2="-89.4018" gradientUnits="userSpaceOnUse">
<stop stop-color="#99C4DE"/>
<stop offset="0.65" stop-color="#D4E6F0"/>
<stop offset="1" stop-color="#EEF5F8"/>
</linearGradient>
<linearGradient id="paint1_linear_2996_10668" x1="40427.7" y1="43626.1" x2="166392" y2="184337" gradientUnits="userSpaceOnUse">
<stop stop-color="#99C4DE"/>
<stop offset="0.65" stop-color="#D4E6F0"/>
<stop offset="1" stop-color="#EEF5F8"/>
</linearGradient>
<linearGradient id="paint2_linear_2996_10668" x1="57.0448" y1="42.7298" x2="49.0343" y2="58.1948" gradientUnits="userSpaceOnUse">
<stop offset="0.12" stop-color="#D3CDC6"/>
<stop offset="0.28" stop-color="#D8D1CD"/>
<stop offset="1" stop-color="#F0F0EA"/>
</linearGradient>
<linearGradient id="paint3_linear_2996_10668" x1="70.7421" y1="174.145" x2="126.177" y2="77.3494" gradientUnits="userSpaceOnUse">
<stop offset="0.01" stop-color="#DED6CB"/>
<stop offset="0.83" stop-color="#FAF7F6"/>
<stop offset="1" stop-color="white"/>
</linearGradient>
<linearGradient id="paint4_linear_2996_10668" x1="126.322" y1="176.571" x2="126.322" y2="157.087" gradientUnits="userSpaceOnUse">
<stop stop-color="#E8E1DB"/>
<stop offset="1" stop-color="white"/>
</linearGradient>
<linearGradient id="paint5_linear_2996_10668" x1="124.873" y1="34.9079" x2="56.0322" y2="154.678" gradientUnits="userSpaceOnUse">
<stop offset="0.01" stop-color="#E4E4E4"/>
<stop offset="1" stop-color="#D3D7D0"/>
</linearGradient>
<linearGradient id="paint6_linear_2996_10668" x1="-400839" y1="1056.12" x2="-400899" y2="2818.76" gradientUnits="userSpaceOnUse">
<stop offset="0.01" stop-color="#E4E4E4"/>
<stop offset="1" stop-color="#D3D7D0"/>
</linearGradient>
<linearGradient id="paint7_linear_2996_10668" x1="-503497" y1="1021.95" x2="-503538" y2="2550.5" gradientUnits="userSpaceOnUse">
<stop offset="0.01" stop-color="#E4E4E4"/>
<stop offset="1" stop-color="#D3D7D0"/>
</linearGradient>
<linearGradient id="paint8_linear_2996_10668" x1="-393936" y1="929.697" x2="-393996" y2="2692.33" gradientUnits="userSpaceOnUse">
<stop offset="0.01" stop-color="#E4E4E4"/>
<stop offset="1" stop-color="#D3D7D0"/>
</linearGradient>
<radialGradient id="paint9_radial_2996_10668" cx="0" cy="0" r="1" gradientUnits="userSpaceOnUse" gradientTransform="translate(128.38 94.3523) rotate(180) scale(60.9898 22.0066)">
<stop offset="0.01" stop-color="#CBC7C3"/>
<stop offset="0.41" stop-color="#DED6CB" stop-opacity="0.99"/>
<stop offset="0.71" stop-color="#E3DCD4" stop-opacity="0.46"/>
<stop offset="0.91" stop-color="#E7E0D9" stop-opacity="0.13"/>
<stop offset="1" stop-color="#E8E1DB" stop-opacity="0"/>
</radialGradient>
<linearGradient id="paint10_linear_2996_10668" x1="-319122" y1="1232.02" x2="-319164" y2="2217.96" gradientUnits="userSpaceOnUse">
<stop offset="0.01" stop-color="#E4E4E4"/>
<stop offset="1" stop-color="#D3D7D0"/>
</linearGradient>
<linearGradient id="paint11_linear_2996_10668" x1="-210579" y1="1288.3" x2="-210642" y2="2271.98" gradientUnits="userSpaceOnUse">
<stop offset="0.01" stop-color="#E4E4E4"/>
<stop offset="1" stop-color="#D3D7D0"/>
</linearGradient>
<linearGradient id="paint12_linear_2996_10668" x1="200.15" y1="124.407" x2="193.79" y2="130.767" gradientUnits="userSpaceOnUse">
<stop stop-color="#AACBDF"/>
<stop offset="0.3" stop-color="#CFE3EF"/>
<stop offset="0.56" stop-color="#B7D3E5"/>
<stop offset="1" stop-color="#85B3D0"/>
</linearGradient>
<linearGradient id="paint13_linear_2996_10668" x1="7760.67" y1="7139.9" x2="7488.05" y2="7368.37" gradientUnits="userSpaceOnUse">
<stop stop-color="#AACBDF"/>
<stop offset="0.3" stop-color="#CFE3EF"/>
<stop offset="0.56" stop-color="#B7D3E5"/>
<stop offset="1" stop-color="#85B3D0"/>
</linearGradient>
<linearGradient id="paint14_linear_2996_10668" x1="218.659" y1="136.698" x2="206.321" y2="149.037" gradientUnits="userSpaceOnUse">
<stop stop-color="#3D82CB"/>
<stop offset="0.01" stop-color="#3F85CD"/>
<stop offset="0.13" stop-color="#509EDD"/>
<stop offset="0.23" stop-color="#5BAEE7"/>
<stop offset="0.32" stop-color="#5FB3EB"/>
<stop offset="0.77" stop-color="#3273C2"/>
<stop offset="1" stop-color="#2059B1"/>
</linearGradient>
<linearGradient id="paint15_linear_2996_10668" x1="50398.9" y1="28120.1" x2="45444" y2="44247.4" gradientUnits="userSpaceOnUse">
<stop stop-color="#3D82CB"/>
<stop offset="0.01" stop-color="#3F85CD"/>
<stop offset="0.13" stop-color="#509EDD"/>
<stop offset="0.23" stop-color="#5BAEE7"/>
<stop offset="0.32" stop-color="#5FB3EB"/>
<stop offset="0.77" stop-color="#3273C2"/>
<stop offset="1" stop-color="#2059B1"/>
</linearGradient>
<linearGradient id="paint16_linear_2996_10668" x1="18361.7" y1="21806.4" x2="18361.7" y2="32490.8" gradientUnits="userSpaceOnUse">
<stop stop-color="#3D82CB"/>
<stop offset="0.01" stop-color="#3F85CD"/>
<stop offset="0.13" stop-color="#509EDD"/>
<stop offset="0.23" stop-color="#5BAEE7"/>
<stop offset="0.32" stop-color="#5FB3EB"/>
<stop offset="0.77" stop-color="#3273C2"/>
<stop offset="1" stop-color="#2059B1"/>
</linearGradient>
<linearGradient id="paint17_linear_2996_10668" x1="116.231" y1="49.8583" x2="185.838" y2="119.465" gradientUnits="userSpaceOnUse">
<stop offset="0.01" stop-color="#F2F4EF"/>
<stop offset="0.68" stop-color="#85B3D0"/>
</linearGradient>
<linearGradient id="paint18_linear_2996_10668" x1="127.214" y1="60.841" x2="224.222" y2="157.853" gradientUnits="userSpaceOnUse">
<stop offset="0.01" stop-color="#F2F7F8"/>
<stop offset="0.7" stop-color="#89B5D4"/>
</linearGradient>
<linearGradient id="paint19_linear_2996_10668" x1="32314.9" y1="18292.1" x2="41739.2" y2="35603.3" gradientUnits="userSpaceOnUse">
<stop offset="0.01" stop-color="#F2F4EF"/>
<stop offset="0.68" stop-color="#85B3D0"/>
</linearGradient>
<radialGradient id="paint20_radial_2996_10668" cx="0" cy="0" r="1" gradientUnits="userSpaceOnUse" gradientTransform="translate(157.554 91.1808) scale(29.8147)">
<stop stop-color="#DCF3FF"/>
<stop offset="0.98" stop-color="white" stop-opacity="0"/>
</radialGradient>
<radialGradient id="paint21_radial_2996_10668" cx="0" cy="0" r="1" gradientUnits="userSpaceOnUse" gradientTransform="translate(212.176 140.427) rotate(45) scale(13.3415 3.33538)">
<stop stop-color="white"/>
<stop offset="0.1" stop-color="white" stop-opacity="0.88"/>
<stop offset="0.35" stop-color="white" stop-opacity="0.57"/>
<stop offset="0.57" stop-color="white" stop-opacity="0.32"/>
<stop offset="0.76" stop-color="white" stop-opacity="0.15"/>
<stop offset="0.9" stop-color="white" stop-opacity="0.04"/>
<stop offset="0.98" stop-color="white" stop-opacity="0"/>
</radialGradient>
</defs>
</svg>
