<?xml version="1.0" encoding="utf-8"?>
<!-- Generator: Adobe Illustrator 24.0.0, SVG Export Plug-In . SVG Version: 6.00 Build 0)  -->
<svg version="1.1" id="Layer_1" xmlns="http://www.w3.org/2000/svg" xmlns:xlink="http://www.w3.org/1999/xlink" x="0px" y="0px"
	 viewBox="0 0 500 500" style="enable-background:new 0 0 500 500;" xml:space="preserve">
<style type="text/css">
	.st0{fill:none;stroke:#0C3E55;stroke-width:2;stroke-linecap:round;stroke-miterlimit:10;}
	.st1{fill:#F46B25;}
	.st2{fill:none;stroke:#0C3E55;stroke-width:2;stroke-linecap:round;stroke-linejoin:round;stroke-miterlimit:10;}
</style>
<g>
	<path class="st0" d="M453.23,388.51H46.77v-217.8c0-12.98,10.53-23.51,23.51-23.51h359.45c12.98,0,23.51,10.53,23.51,23.51V388.51z
		"/>
	<path class="st0" d="M443.41,435.62H56.59c-18.96,0-34.33-15.37-34.33-34.33v0h455.49v0C477.74,420.25,462.37,435.62,443.41,435.62
		z"/>
	<g>
		<path class="st1" d="M245.27,251.44l-96.58-47.11c-4.59-2.24-9.94,1.1-9.94,6.21v56.09c0,2.73,1.61,5.21,4.1,6.31l104.34,46.34
			c1.79,0.79,3.82,0.79,5.61,0l104.34-46.34c2.5-1.11,4.1-3.58,4.1-6.31v-56.09c0-5.11-5.35-8.45-9.94-6.21l-96.59,47.12
			C251.74,252.89,248.26,252.89,245.27,251.44z"/>
		<path class="st1" d="M409.16,141.25L253.03,65.08c-1.91-0.93-4.15-0.93-6.06,0L90.84,141.25c-5.17,2.52-5.17,9.9,0,12.42
			l156.13,76.16c1.91,0.93,4.15,0.93,6.06,0l128.4-62.63v70.31c0,2.39,1.94,4.33,4.33,4.33h11.51c2.39,0,4.33-1.94,4.33-4.33v-80.14
			l7.57-3.69C414.34,151.14,414.34,143.77,409.16,141.25z"/>
	</g>
</g>
</svg>
