<svg width="10" height="14" viewBox="0 0 10 14" fill="none" xmlns="http://www.w3.org/2000/svg">
<path d="M2.33333 12.5C2.05719 12.5 1.83333 12.7239 1.83333 13C1.83333 13.2761 2.05719 13.5 2.33333 13.5V12.5ZM7.66667 13.5C7.94281 13.5 8.16667 13.2761 8.16667 13C8.16667 12.7239 7.94281 12.5 7.66667 12.5V13.5ZM4.5 13C4.5 13.2761 4.72386 13.5 5 13.5C5.27614 13.5 5.5 13.2761 5.5 13H4.5ZM8.33333 1L8.82831 0.929289C8.79312 0.682965 8.58216 0.5 8.33333 0.5V1ZM9 5.66667H9.5C9.5 5.64301 9.49832 5.61938 9.49498 5.59596L9 5.66667ZM1 5.66667L0.505025 5.59596C0.501679 5.61938 0.5 5.64301 0.5 5.66667H1ZM1.66667 1V0.5C1.41784 0.5 1.20688 0.682965 1.17169 0.929289L1.66667 1ZM2.33333 13.5H7.66667V12.5H2.33333V13.5ZM4.5 9V13H5.5V9H4.5ZM7.83836 1.07071L8.50503 5.73738L9.49498 5.59596L8.82831 0.929289L7.83836 1.07071ZM8.5 5.66667C8.5 7.30247 7.04022 8.5 5 8.5V9.5C7.37845 9.5 9.5 8.04687 9.5 5.66667H8.5ZM5 8.5C2.95978 8.5 1.5 7.30247 1.5 5.66667H0.5C0.5 8.04687 2.62155 9.5 5 9.5V8.5ZM1.49497 5.73738L2.16164 1.07071L1.17169 0.929289L0.505025 5.59596L1.49497 5.73738ZM1.66667 1.5H8.33333V0.5H1.66667V1.5Z" fill="#1A1A1A"/>
</svg>
