<?xml version="1.0" encoding="utf-8"?>
<!-- Generator: Adobe Illustrator 24.0.0, SVG Export Plug-In . SVG Version: 6.00 Build 0)  -->
<svg version="1.1" id="Layer_1" xmlns="http://www.w3.org/2000/svg" xmlns:xlink="http://www.w3.org/1999/xlink" x="0px" y="0px"
	 viewBox="0 0 500 500" style="enable-background:new 0 0 500 500;" xml:space="preserve">
<style type="text/css">
	.st0{fill:none;stroke:#0C3E55;stroke-width:2;stroke-linecap:round;stroke-miterlimit:10;}
	.st1{fill:#F46B25;}
</style>
<g>
	<path class="st0" d="M394.96,202.68v256.17c0,7.72-5.91,14.04-13.14,14.04H161.56c-7.23,0-13.14-6.32-13.14-14.04V338.44"/>
	<path class="st0" d="M148.43,200.76V41.15c0-7.72,5.91-14.04,13.14-14.04h220.26c7.23,0,13.14,6.32,13.14,14.04v33.53"/>
	<path class="st0" d="M244.69,338.44H45.04c-6.6,0-12-5.4-12-12V212.76c0-6.6,5.4-12,12-12h199.65c6.6,0,12,5.4,12,12v113.67
		C256.69,333.04,251.29,338.44,244.69,338.44z"/>
	<rect x="33.3" y="227.65" class="st1" width="223.13" height="21.3"/>
	<line class="st0" x1="206.29" y1="49.28" x2="337.1" y2="49.28"/>
	<circle class="st0" cx="271.69" cy="420.51" r="21.13"/>
	<path class="st1" d="M394.96,68.25c-39.76,0-72,32.24-72,72c0,39.76,32.24,72,72,72c39.76,0,72-32.24,72-72
		C466.96,100.49,434.72,68.25,394.96,68.25z M417.82,166.19c-2.1,3.15-5.03,5.61-8.81,7.39c-2.6,1.22-5.5,2.01-8.69,2.39v8.38H390.3
		v-8.53c-2.63-0.41-5.08-1.13-7.34-2.17c-3.77-1.73-6.87-4.18-9.29-7.37c-2.42-3.18-3.99-6.95-4.73-11.3l9.93-1.58
		c0.96,4.1,3.01,7.35,6.14,9.77c3.13,2.42,6.89,3.62,11.28,3.62c4.35,0,7.89-1.04,10.63-3.12c2.74-2.08,4.1-4.73,4.1-7.97
		c0-2.3-0.7-4.17-2.09-5.61s-3.65-2.65-6.79-3.65l-16.22-4.99c-9.6-2.98-14.4-8.73-14.4-17.27c0-4.03,0.97-7.53,2.9-10.51
		s4.66-5.28,8.18-6.91c2.3-1.07,4.87-1.78,7.68-2.15v-8.46h10.03v8.65c2.39,0.41,4.6,1.07,6.65,2.01c3.5,1.6,6.41,3.9,8.73,6.91
		c2.32,3.01,3.93,6.62,4.82,10.84l-10.22,1.82c-0.45-2.46-1.38-4.64-2.81-6.53c-1.42-1.89-3.21-3.36-5.37-4.41s-4.58-1.6-7.27-1.63
		c-2.53-0.06-4.79,0.33-6.79,1.18c-2,0.85-3.58,2.03-4.75,3.55c-1.17,1.52-1.75,3.24-1.75,5.16c0,2.11,0.82,3.9,2.45,5.37
		c1.63,1.47,4.21,2.74,7.73,3.79l12.72,3.69c5.82,1.73,10.03,4.05,12.62,6.96c2.59,2.91,3.89,6.78,3.89,11.61
		C420.97,159.35,419.92,163.04,417.82,166.19z"/>
</g>
</svg>
