<svg width="14" height="12" viewBox="0 0 14 12" fill="none" xmlns="http://www.w3.org/2000/svg">
<path d="M1 4.16659C0.723858 4.16659 0.5 4.39044 0.5 4.66659C0.5 4.94273 0.723858 5.16659 1 5.16659V4.16659ZM13 5.16659C13.2761 5.16659 13.5 4.94273 13.5 4.66659C13.5 4.39044 13.2761 4.16659 13 4.16659V5.16659ZM3.66667 7.49992C3.39052 7.49992 3.16667 7.72378 3.16667 7.99992C3.16667 8.27606 3.39052 8.49992 3.66667 8.49992V7.49992ZM3.67333 8.49992C3.94948 8.49992 4.17333 8.27606 4.17333 7.99992C4.17333 7.72378 3.94948 7.49992 3.67333 7.49992V8.49992ZM6.33333 7.49992C6.05719 7.49992 5.83333 7.72378 5.83333 7.99992C5.83333 8.27606 6.05719 8.49992 6.33333 8.49992V7.49992ZM7.66667 8.49992C7.94281 8.49992 8.16667 8.27606 8.16667 7.99992C8.16667 7.72378 7.94281 7.49992 7.66667 7.49992V8.49992ZM3 1.83325H11V0.833252H3V1.83325ZM11 1.83325C11.8284 1.83325 12.5 2.50482 12.5 3.33325H13.5C13.5 1.95254 12.3807 0.833252 11 0.833252V1.83325ZM12.5 3.33325V8.66659H13.5V3.33325H12.5ZM12.5 8.66659C12.5 9.49501 11.8284 10.1666 11 10.1666V11.1666C12.3807 11.1666 13.5 10.0473 13.5 8.66659H12.5ZM11 10.1666H3V11.1666H11V10.1666ZM3 10.1666C2.17157 10.1666 1.5 9.49501 1.5 8.66659H0.5C0.5 10.0473 1.61929 11.1666 3 11.1666V10.1666ZM1.5 8.66659V3.33325H0.5V8.66659H1.5ZM1.5 3.33325C1.5 2.50482 2.17157 1.83325 3 1.83325V0.833252C1.61929 0.833252 0.5 1.95254 0.5 3.33325H1.5ZM1 5.16659H13V4.16659H1V5.16659ZM3.66667 8.49992H3.67333V7.49992H3.66667V8.49992ZM6.33333 8.49992H7.66667V7.49992H6.33333V8.49992Z" fill="#1A1A1A"/>
</svg>
