<svg width="14" height="14" viewBox="0 0 14 14" fill="none" xmlns="http://www.w3.org/2000/svg">
<path d="M8.99985 1C9.53028 1 10.039 1.21071 10.4141 1.58579C10.7891 1.96086 10.9998 2.46957 10.9998 3C11.3287 2.99993 11.6526 3.08097 11.9427 3.23594C12.2328 3.39092 12.4802 3.61504 12.6629 3.88846C12.8457 4.16188 12.9583 4.47616 12.9906 4.80346C13.0229 5.13076 12.974 5.46098 12.8482 5.76487C12.7225 6.06876 12.5237 6.33695 12.2695 6.54567C12.0153 6.75438 11.7136 6.8972 11.391 6.96146C11.0685 7.02571 10.7351 7.00943 10.4203 6.91406C10.1055 6.81868 9.81915 6.64715 9.58651 6.41467L6.41451 9.58667C6.64344 9.81578 6.8133 10.0971 6.90948 10.4063C7.00567 10.7156 7.02531 11.0436 6.9667 11.3622C6.9081 11.6807 6.77301 11.9803 6.57305 12.235C6.37309 12.4898 6.11425 12.6923 5.81877 12.8249C5.52329 12.9575 5.20001 13.0164 4.87674 12.9965C4.55347 12.9766 4.23987 12.8785 3.9629 12.7106C3.68593 12.5427 3.45389 12.31 3.28672 12.0326C3.11954 11.7552 3.02224 11.4413 3.00318 11.118L2.99985 11L2.88251 10.9967C2.55907 10.9777 2.24507 10.8805 1.96754 10.7133C1.69 10.5461 1.45724 10.314 1.28927 10.0369C1.1213 9.75989 1.02315 9.44617 1.00328 9.12278C0.983403 8.79939 1.04239 8.47602 1.17517 8.18047C1.30795 7.88493 1.51054 7.62607 1.76551 7.42617C2.02049 7.22626 2.32021 7.09129 2.6389 7.03287C2.95759 6.97445 3.2857 6.99433 3.595 7.0908C3.9043 7.18727 4.18554 7.35744 4.41451 7.58667L7.58651 4.41467C7.30671 4.13504 7.11611 3.77871 7.03882 3.39076C6.96153 3.0028 7.00103 2.60064 7.15231 2.23513C7.3036 1.86962 7.55987 1.55718 7.88873 1.33733C8.21759 1.11748 8.60427 1.00008 8.99985 1V1Z" stroke="#1A1A1A" stroke-linecap="round" stroke-linejoin="round"/>
</svg>
