<?xml version="1.0" encoding="utf-8"?>
<!-- Generator: Adobe Illustrator 24.0.0, SVG Export Plug-In . SVG Version: 6.00 Build 0)  -->
<svg version="1.1" id="Layer_1" xmlns="http://www.w3.org/2000/svg" xmlns:xlink="http://www.w3.org/1999/xlink" x="0px" y="0px"
	 viewBox="0 0 500 500" style="enable-background:new 0 0 500 500;" xml:space="preserve">
<style type="text/css">
	.st0{fill:none;stroke:#0C3E55;stroke-width:2;stroke-linecap:round;stroke-miterlimit:10;}
	.st1{fill:#F46B25;}
	.st2{fill:none;stroke:#0C3E55;stroke-width:2;stroke-linecap:round;stroke-linejoin:round;stroke-miterlimit:10;}
</style>
<g>
	<polyline class="st0" points="332.12,194.14 332.12,463.25 332.12,463.31 310.84,483.31 289.56,463.31 268.28,483.31 
		247.01,463.31 225.73,483.31 204.45,463.31 183.18,483.31 161.9,463.31 140.63,483.31 119.35,463.31 98.08,483.31 76.73,463.31 
		76.73,463.25 76.73,107.84 244.55,107.84 	"/>
	<g>
		<line class="st0" x1="100.91" y1="195.56" x2="263.74" y2="195.56"/>
		<line class="st0" x1="100.91" y1="214.65" x2="307.94" y2="214.65"/>
		<line class="st0" x1="100.91" y1="233.75" x2="307.94" y2="233.75"/>
		<line class="st0" x1="100.91" y1="252.84" x2="307.94" y2="252.84"/>
		<line class="st0" x1="100.91" y1="271.93" x2="254.94" y2="271.93"/>
	</g>
	<g>
		<circle class="st1" cx="295.16" cy="112.52" r="2.89"/>
		<path class="st1" d="M332.12,16.69c-50.34,0-91.15,40.81-91.15,91.15c0,50.34,40.81,91.15,91.15,91.15s91.15-40.81,91.15-91.15
			C423.27,57.5,382.46,16.69,332.12,16.69z M306.56,148.72c0,0.93-0.75,1.69-1.69,1.69h-19.42c-0.93,0-1.69-0.75-1.69-1.69v-43.33
			c0-0.93,0.75-1.69,1.69-1.69h19.42c0.93,0,1.69,0.75,1.69,1.69V148.72z M379.41,113.41c2.72,3.73-1.23,6.77-1.23,6.77
			c-2.69,2.57-1.01,5.57-1.01,5.57c3.2,6.57-3.35,10.72-3.35,10.72c-2.25,1.69-1.4,4.63-1.4,4.63c0.94,4.46-3.65,7.86-3.65,7.86
			c-5.23,4.06-22.38,3.66-22.38,3.66c-8.46,0-21.45-3.09-21.45-3.09c-7.1-2.47-13.81-2.21-15.89-2.17v-39.61
			c6.24-0.18,9.97-11.57,9.97-11.57c2.8-10.03,16.31-23.06,16.31-23.06c4.8-6.77,3.52-7.29,4.63-16.03
			c1.12-8.74,8.23-2.74,8.23-2.74c13.97,13.37,1.63,27.09,1.63,27.09c-5.57,6.69-4.37,10.2-4.37,10.2
			c1.74,4.63,16.89,1.46,16.89,1.46c24.52-4.49,17.06,13.55,17.06,13.55C377.59,110.22,379.41,113.41,379.41,113.41z"/>
	</g>
	<g>
		
			<rect x="78.06" y="374.16" transform="matrix(-1.914044e-10 1 -1 -1.914044e-10 507.9684 266.5405)" class="st0" width="85.3" height="26.19"/>
		
			<rect x="127.34" y="379.61" transform="matrix(-2.194557e-10 1 -1 -2.194557e-10 557.2499 228.1625)" class="st0" width="74.4" height="26.19"/>
		
			<rect x="236.35" y="400.96" transform="matrix(-5.150646e-10 1 -1 -5.150646e-10 666.2592 161.8526)" class="st0" width="31.7" height="26.19"/>
		
			<rect x="181.68" y="390.12" transform="matrix(-3.058320e-10 1 -1 -3.058320e-10 611.5859 194.8389)" class="st0" width="53.39" height="26.19"/>
		<polyline class="st0" points="239.02,348.4 230.85,341.63 210.35,353.54 166.52,325.46 144.72,337.54 107.62,304.86 		"/>
		<line class="st0" x1="300.64" y1="399.5" x2="268.52" y2="372.87"/>
		<g>
			<polyline class="st2" points="285.35,401.14 301.24,400.32 299.13,384.55 			"/>
		</g>
		<g>
			<path class="st1" d="M262.78,362.6c-0.39-0.24-0.82-0.35-1.29-0.35c-0.46,0-0.89,0.12-1.27,0.35c-0.39,0.24-0.7,0.55-0.94,0.94
				s-0.35,0.82-0.35,1.28s0.12,0.89,0.35,1.28c0.24,0.4,0.55,0.71,0.94,0.94c0.39,0.24,0.81,0.35,1.27,0.35
				c0.47,0,0.9-0.12,1.29-0.35c0.39-0.24,0.7-0.55,0.94-0.94c0.24-0.39,0.35-0.82,0.35-1.28s-0.12-0.89-0.35-1.28
				S263.17,362.83,262.78,362.6z"/>
			<path class="st1" d="M255.43,337.64c-11.91,0-21.56,9.65-21.56,21.56c0,11.91,9.65,21.56,21.56,21.56
				c11.91,0,21.56-9.65,21.56-21.56C276.99,347.29,267.34,337.64,255.43,337.64z M244.18,353.58c0-0.94,0.24-1.81,0.72-2.59
				c0.48-0.79,1.12-1.42,1.9-1.89s1.64-0.71,2.57-0.71c0.95,0,1.82,0.23,2.6,0.7c0.78,0.47,1.41,1.09,1.88,1.87s0.71,1.65,0.71,2.62
				c0,0.96-0.24,1.83-0.71,2.61c-0.47,0.78-1.1,1.41-1.88,1.87c-0.78,0.47-1.65,0.7-2.6,0.7s-1.82-0.23-2.61-0.7
				c-0.79-0.47-1.41-1.09-1.88-1.87C244.42,355.42,244.18,354.54,244.18,353.58z M247.06,369.58l-2.02-2.02l18.75-18.73l2.02,2.03
				L247.06,369.58z M265.98,367.44c-0.47,0.78-1.09,1.41-1.88,1.87c-0.79,0.47-1.66,0.7-2.61,0.7c-0.95,0-1.82-0.23-2.6-0.7
				c-0.78-0.47-1.41-1.09-1.88-1.87c-0.47-0.78-0.71-1.65-0.71-2.62c0-0.94,0.24-1.81,0.72-2.59c0.48-0.79,1.11-1.42,1.9-1.89
				c0.79-0.47,1.64-0.71,2.56-0.71c0.95,0,1.82,0.23,2.61,0.7c0.79,0.47,1.41,1.09,1.88,1.87c0.47,0.78,0.7,1.65,0.7,2.62
				S266.44,366.65,265.98,367.44z"/>
			<path class="st1" d="M248.09,355.81c0.39,0.24,0.81,0.35,1.28,0.35c0.46,0,0.89-0.12,1.28-0.35c0.39-0.24,0.71-0.55,0.94-0.94
				c0.24-0.39,0.35-0.82,0.35-1.28s-0.12-0.89-0.35-1.28c-0.24-0.39-0.55-0.71-0.94-0.94c-0.39-0.24-0.82-0.35-1.28-0.35
				c-0.46,0-0.89,0.12-1.27,0.35c-0.39,0.24-0.7,0.55-0.94,0.94c-0.24,0.4-0.36,0.82-0.36,1.28s0.12,0.89,0.36,1.28
				C247.39,355.26,247.7,355.57,248.09,355.81z"/>
		</g>
	</g>
</g>
</svg>
