<?xml version="1.0" encoding="utf-8"?>
<!-- Generator: Adobe Illustrator 24.0.0, SVG Export Plug-In . SVG Version: 6.00 Build 0)  -->
<svg version="1.1" id="Layer_1" xmlns="http://www.w3.org/2000/svg" xmlns:xlink="http://www.w3.org/1999/xlink" x="0px" y="0px"
	 viewBox="0 0 500 500" style="enable-background:new 0 0 500 500;" xml:space="preserve">
<style type="text/css">
	.st0{fill:none;stroke:#0C3E55;stroke-width:2;stroke-linecap:round;stroke-miterlimit:10;}
	.st1{fill:#F46B25;}
</style>
<g>
	<path class="st0" d="M371.95,347.53h-243.9c-5.49,0-9.95-4.45-9.95-9.95V29.88c0-5.49,4.45-9.95,9.95-9.95h243.9
		c5.49,0,9.95,4.45,9.95,9.95v307.71C381.9,343.08,377.44,347.53,371.95,347.53z"/>
	<path class="st0" d="M381.9,99.59h85.5c13.48,0,24.4,10.93,24.4,24.4v278.79c0,13.48-10.93,24.4-24.4,24.4H32.61
		c-13.48,0-24.4-10.93-24.4-24.4V124c0-13.48,10.93-24.4,24.4-24.4h85.5"/>
	<g>
		<line class="st0" x1="164.57" y1="480.06" x2="164.57" y2="428.64"/>
		<line class="st0" x1="335.43" y1="428.64" x2="335.43" y2="480.06"/>
	</g>
	<path class="st0" d="M339.67,205.19H160.33c-6.41,0-11.61-5.2-11.61-11.61v-12.25c0-6.41,5.2-11.61,11.61-11.61h179.34
		c6.41,0,11.61,5.2,11.61,11.61v12.25C351.28,199.99,346.08,205.19,339.67,205.19z"/>
	<path class="st0" d="M339.67,254.86H160.33c-6.41,0-11.61-5.2-11.61-11.61v-12.25c0-6.41,5.2-11.61,11.61-11.61h179.34
		c6.41,0,11.61,5.2,11.61,11.61v12.25C351.28,249.66,346.08,254.86,339.67,254.86z"/>
	<path class="st0" d="M331.52,320.64H168.48c-10.91,0-19.76-8.85-19.76-19.76v0c0-10.91,8.85-19.76,19.76-19.76h163.04
		c10.91,0,19.76,8.85,19.76,19.76v0C351.28,311.8,342.43,320.64,331.52,320.64z"/>
	<line class="st0" x1="8.2" y1="377.22" x2="491.8" y2="377.22"/>
	<line class="st0" x1="138.6" y1="480.06" x2="361.4" y2="480.06"/>
	<rect x="41.6" y="394.18" class="st1" width="13.28" height="13.28"/>
	<rect x="64.3" y="394.18" class="st1" width="13.28" height="13.28"/>
	<rect x="87" y="394.18" class="st1" width="13.28" height="13.28"/>
	<path class="st1" d="M250,34.72c-31.7,0-57.4,25.7-57.4,57.4s25.7,57.4,57.4,57.4s57.4-25.7,57.4-57.4S281.7,34.72,250,34.72z
		 M250,68.6c7.98,0,14.44,5.73,14.44,15.55c0,5.68-2.16,10.74-5.53,13.99c-2.45,2.37-5.55,3.78-8.91,3.78
		c-7.97,0-14.44-7.96-14.44-17.77C235.56,74.34,242.03,68.6,250,68.6z M248.97,130.42c-18.33,0-27.7-11.92-27.7-11.92
		c2.68-6.81,11.39-14.95,17.28-18.06c3.09,3.17,7.09,5.08,11.45,5.08c4.01,0,7.95-1.66,11.07-4.68c0.13-0.13,0.26-0.26,0.39-0.39
		c5.9,3.12,14.6,11.25,17.27,18.05C278.73,118.5,267.3,130.42,248.97,130.42z"/>
	<g>
		<line class="st0" x1="222.25" y1="300.88" x2="277.75" y2="300.88"/>
		<polyline class="st0" points="266.06,311.67 277.75,300.88 266.06,290.1 		"/>
	</g>
</g>
</svg>
