<svg width="14" height="14" viewBox="0 0 14 14" fill="none" xmlns="http://www.w3.org/2000/svg">
<path d="M7 1V0.5V1ZM5 5.16667C4.72386 5.16667 4.5 5.39052 4.5 5.66667C4.5 5.94281 4.72386 6.16667 5 6.16667V5.16667ZM5.00667 6.16667C5.28281 6.16667 5.50667 5.94281 5.50667 5.66667C5.50667 5.39052 5.28281 5.16667 5.00667 5.16667V6.16667ZM9 5.16667C8.72386 5.16667 8.5 5.39052 8.5 5.66667C8.5 5.94281 8.72386 6.16667 9 6.16667V5.16667ZM9.00667 6.16667C9.28281 6.16667 9.50667 5.94281 9.50667 5.66667C9.50667 5.39052 9.28281 5.16667 9.00667 5.16667V6.16667ZM5.69048 8.65007C5.49722 8.45283 5.18065 8.4496 4.98341 8.64286C4.78616 8.83612 4.78293 9.15268 4.97619 9.34993L5.69048 8.65007ZM9.02381 9.34993C9.21707 9.15268 9.21384 8.83612 9.01659 8.64286C8.81935 8.4496 8.50278 8.45283 8.30952 8.65007L9.02381 9.34993ZM7 4.16667C7.27614 4.16667 7.5 3.94281 7.5 3.66667C7.5 3.39052 7.27614 3.16667 7 3.16667V4.16667ZM12.5 7C12.5 10.0376 10.0376 12.5 7 12.5V13.5C10.5899 13.5 13.5 10.5899 13.5 7H12.5ZM7 12.5C3.96243 12.5 1.5 10.0376 1.5 7H0.5C0.5 10.5899 3.41015 13.5 7 13.5V12.5ZM1.5 7C1.5 3.96243 3.96243 1.5 7 1.5V0.5C3.41015 0.5 0.5 3.41015 0.5 7H1.5ZM7 1.5C10.0376 1.5 12.5 3.96243 12.5 7H13.5C13.5 3.41015 10.5899 0.5 7 0.5V1.5ZM5 6.16667H5.00667V5.16667H5V6.16667ZM9 6.16667H9.00667V5.16667H9V6.16667ZM4.97619 9.34993C5.24 9.61917 5.55488 9.83307 5.90239 9.9791L6.28978 9.05718C6.06492 8.9627 5.86117 8.82429 5.69048 8.65007L4.97619 9.34993ZM5.90239 9.9791C6.2499 10.1251 6.62305 10.2003 7 10.2003V9.20034C6.75609 9.20034 6.51464 9.15167 6.28978 9.05718L5.90239 9.9791ZM7 10.2003C7.37695 10.2003 7.7501 10.1251 8.09761 9.9791L7.71022 9.05718C7.48536 9.15167 7.24391 9.20034 7 9.20034V10.2003ZM8.09761 9.9791C8.44512 9.83307 8.76 9.61917 9.02381 9.34993L8.30952 8.65007C8.13883 8.82429 7.93508 8.9627 7.71022 9.05718L8.09761 9.9791ZM7 0.5C6.51377 0.5 6.04745 0.693154 5.70364 1.03697L6.41074 1.74408C6.56703 1.5878 6.77899 1.5 7 1.5V0.5ZM5.70364 1.03697C5.35982 1.38079 5.16667 1.8471 5.16667 2.33333H6.16667C6.16667 2.11232 6.25446 1.90036 6.41074 1.74408L5.70364 1.03697ZM5.16667 2.33333C5.16667 2.81956 5.35982 3.28588 5.70364 3.6297L6.41074 2.92259C6.25446 2.76631 6.16667 2.55435 6.16667 2.33333H5.16667ZM5.70364 3.6297C6.04745 3.97351 6.51377 4.16667 7 4.16667V3.16667C6.77899 3.16667 6.56703 3.07887 6.41074 2.92259L5.70364 3.6297Z" fill="#1A1A1A"/>
</svg>
