<svg width="16" height="16" viewBox="0 0 16 16" fill="none" xmlns="http://www.w3.org/2000/svg">
<path d="M7.99973 2C9.55695 3.37772 11.5894 4.09504 13.6664 4C13.9688 5.02868 14.0613 6.10764 13.9385 7.17279C13.8156 8.23793 13.4799 9.26751 12.9513 10.2004C12.4227 11.1332 11.712 11.9503 10.8614 12.603C10.0107 13.2557 9.03759 13.7308 7.99973 14C6.96187 13.7308 5.98871 13.2557 5.13809 12.603C4.28747 11.9503 3.57673 11.1332 3.04812 10.2004C2.51951 9.26751 2.18382 8.23793 2.06098 7.17279C1.93814 6.10764 2.03067 5.02868 2.33306 4C4.41008 4.09504 6.44251 3.37772 7.99973 2Z" fill="#F36B25"/>
<path d="M7.99973 2C9.55695 3.37772 11.5894 4.09504 13.6664 4C13.9688 5.02868 14.0613 6.10764 13.9385 7.17279C13.8156 8.23793 13.4799 9.26751 12.9513 10.2004C12.4227 11.1332 11.712 11.9503 10.8614 12.603C10.0107 13.2557 9.03759 13.7308 7.99973 14C6.96187 13.7308 5.98871 13.2557 5.13809 12.603C4.28747 11.9503 3.57673 11.1332 3.04812 10.2004C2.51951 9.26751 2.18382 8.23793 2.06098 7.17279C1.93814 6.10764 2.03067 5.02868 2.33306 4C4.41008 4.09504 6.44251 3.37772 7.99973 2" stroke="#F36B25" stroke-linecap="round" stroke-linejoin="round"/>
<path d="M6 8.00001L7.33333 9.33334L10 6.66667" stroke="white" stroke-linecap="round" stroke-linejoin="round"/>
</svg>
