<svg width="14" height="14" viewBox="0 0 14 14" fill="none" xmlns="http://www.w3.org/2000/svg">
<path d="M4.83333 7.66667C4.83333 7.39052 4.60948 7.16667 4.33333 7.16667C4.05719 7.16667 3.83333 7.39052 3.83333 7.66667H4.83333ZM3.83333 10.3333C3.83333 10.6095 4.05719 10.8333 4.33333 10.8333C4.60948 10.8333 4.83333 10.6095 4.83333 10.3333H3.83333ZM10.1667 2.33333C10.1667 2.05719 9.94281 1.83333 9.66667 1.83333C9.39052 1.83333 9.16667 2.05719 9.16667 2.33333H10.1667ZM9.66667 2.66667H10.1667H9.66667ZM11.8333 5.66667C11.8333 5.94281 12.0572 6.16667 12.3333 6.16667C12.6095 6.16667 12.8333 5.94281 12.8333 5.66667H11.8333ZM1.35355 0.646447C1.15829 0.451184 0.841709 0.451184 0.646447 0.646447C0.451184 0.841709 0.451184 1.15829 0.646447 1.35355L1.35355 0.646447ZM12.6464 13.3536C12.8417 13.5488 13.1583 13.5488 13.3536 13.3536C13.5488 13.1583 13.5488 12.8417 13.3536 12.6464L12.6464 13.3536ZM10.3333 7.66667V7.16667C10.1313 7.16667 9.94908 7.28828 9.87157 7.47489C9.79407 7.66149 9.83651 7.8764 9.97911 8.01955L10.3333 7.66667ZM12.8 10.1427L12.4458 10.4956C12.6394 10.6899 12.9535 10.6919 13.1497 10.5001L12.8 10.1427ZM10.3333 10.8333C10.6095 10.8333 10.8333 10.6095 10.8333 10.3333C10.8333 10.0572 10.6095 9.83333 10.3333 9.83333V10.8333ZM1 9.66667H0.5H1ZM7.66667 8.16667C7.94281 8.16667 8.16667 7.94281 8.16667 7.66667C8.16667 7.39052 7.94281 7.16667 7.66667 7.16667V8.16667ZM3.83333 7.66667V10.3333H4.83333V7.66667H3.83333ZM9.16667 2.33333V2.66667H10.1667V2.33333H9.16667ZM9.16667 2.66667C9.16667 3.1529 9.35982 3.61921 9.70364 3.96303L10.4107 3.25592C10.2545 3.09964 10.1667 2.88768 10.1667 2.66667H9.16667ZM9.70364 3.96303C10.0475 4.30685 10.5138 4.5 11 4.5V3.5C10.779 3.5 10.567 3.4122 10.4107 3.25592L9.70364 3.96303ZM11 4.5C11.221 4.5 11.433 4.5878 11.5893 4.74408L12.2964 4.03697C11.9525 3.69315 11.4862 3.5 11 3.5V4.5ZM11.5893 4.74408C11.7455 4.90036 11.8333 5.11232 11.8333 5.33333H12.8333C12.8333 4.8471 12.6402 4.38079 12.2964 4.03697L11.5893 4.74408ZM11.8333 5.33333V5.66667H12.8333V5.33333H11.8333ZM0.646447 1.35355L12.6464 13.3536L13.3536 12.6464L1.35355 0.646447L0.646447 1.35355ZM10.3333 8.16667H12.3333V7.16667H10.3333V8.16667ZM12.3333 8.16667C12.3775 8.16667 12.4199 8.18423 12.4512 8.21548L13.1583 7.50838C12.9395 7.28958 12.6428 7.16667 12.3333 7.16667V8.16667ZM12.4512 8.21548C12.4824 8.24674 12.5 8.28913 12.5 8.33333H13.5C13.5 8.02392 13.3771 7.72717 13.1583 7.50838L12.4512 8.21548ZM12.5 8.33333V9.66667H13.5V8.33333H12.5ZM12.5 9.66667C12.5 9.71365 12.4813 9.75498 12.4503 9.78527L13.1497 10.5001C13.3654 10.289 13.5 9.99302 13.5 9.66667H12.5ZM13.1542 9.78978L10.6876 7.31378L9.97911 8.01955L12.4458 10.4956L13.1542 9.78978ZM10.3333 9.83333H1.66667V10.8333H10.3333V9.83333ZM1.66667 9.83333C1.62246 9.83333 1.58007 9.81577 1.54882 9.78452L0.841709 10.4916C1.0605 10.7104 1.35725 10.8333 1.66667 10.8333V9.83333ZM1.54882 9.78452C1.51756 9.75326 1.5 9.71087 1.5 9.66667H0.5C0.5 9.97609 0.622916 10.2728 0.841709 10.4916L1.54882 9.78452ZM1.5 9.66667V8.33333H0.5V9.66667H1.5ZM1.5 8.33333C1.5 8.28913 1.51756 8.24674 1.54882 8.21548L0.841709 7.50838C0.622916 7.72717 0.5 8.02391 0.5 8.33333H1.5ZM1.54882 8.21548C1.58007 8.18423 1.62246 8.16667 1.66667 8.16667V7.16667C1.35725 7.16667 1.0605 7.28958 0.841709 7.50838L1.54882 8.21548ZM1.66667 8.16667H7.66667V7.16667H1.66667V8.16667Z" fill="#1A1A1A"/>
</svg>
