<svg width="34" height="32" viewBox="0 0 34 32" fill="none" xmlns="http://www.w3.org/2000/svg">
<path d="M17 0.708252L22.9868 9.4675L33.1684 12.4553L26.6871 20.8561L26.9917 31.4613L17 27.8941L7.00821 31.4613L7.31279 20.8561L0.831543 12.4553L11.0131 9.4675L17 0.708252ZM14.1666 16.9999H11.3333C11.3333 18.4783 11.911 19.8981 12.9432 20.9565C13.9754 22.0149 15.3803 22.6279 16.8582 22.6649C18.3362 22.7019 19.77 22.1598 20.8538 21.1544C21.9377 20.149 22.5856 18.7598 22.6595 17.2833L22.6666 16.9999H19.8333C19.8366 17.7351 19.5539 18.4429 19.0451 18.9736C18.5362 19.5042 17.841 19.8163 17.1063 19.8439C16.3716 19.8715 15.6549 19.6124 15.1077 19.1214C14.5605 18.6303 14.2256 17.9458 14.1737 17.2124L14.1666 16.9999Z" fill="#F2BD0D"/>
</svg>
