<?xml version="1.0" encoding="utf-8"?>
<!-- Generator: Adobe Illustrator 24.0.0, SVG Export Plug-In . SVG Version: 6.00 Build 0)  -->
<svg version="1.1" id="Layer_1" xmlns="http://www.w3.org/2000/svg" xmlns:xlink="http://www.w3.org/1999/xlink" x="0px" y="0px"
	 viewBox="0 0 500 500" style="enable-background:new 0 0 500 500;" xml:space="preserve">
<style type="text/css">
	.st0{fill:none;stroke:#0C3E55;stroke-width:2;stroke-linecap:round;stroke-miterlimit:10;}
	.st1{fill:#F46B25;}
	.st2{fill:none;stroke:#0C3E55;stroke-width:2;stroke-linecap:round;stroke-linejoin:round;stroke-miterlimit:10;}
</style>
<g>
	<path class="st1" d="M250,96.91c-82.83,0-149.98,67.15-149.98,149.98S167.17,396.87,250,396.87s149.98-67.15,149.98-149.98
		S332.83,96.91,250,96.91z M242.32,289.94v16.01h-78.36l0.08-14.96l50.44-45.22c4.08-3.59,6.85-7.03,8.33-10.3
		c1.47-3.27,2.21-6.54,2.21-9.82c0-4.13-0.91-7.84-2.74-11.14c-1.82-3.3-4.34-5.91-7.56-7.84c-3.22-1.93-6.92-2.9-11.1-2.9
		c-4.29,0-8.11,1.01-11.46,3.02c-3.35,2.01-5.97,4.68-7.84,8c-1.88,3.33-2.79,6.92-2.74,10.78h-17.22c0-7.51,1.7-14.09,5.11-19.75
		c3.41-5.66,8.09-10.08,14.04-13.27c5.95-3.19,12.76-4.79,20.44-4.79c7.29,0,13.84,1.65,19.63,4.95c5.79,3.3,10.37,7.82,13.72,13.56
		c3.35,5.74,5.03,12.28,5.03,19.63c0,5.31-0.7,9.82-2.09,13.52c-1.4,3.7-3.49,7.13-6.28,10.3c-2.79,3.17-6.28,6.6-10.46,10.3
		l-33.53,29.93H242.32z M336.05,285.83h-11.5v20.19h-17.06v-20.19h-52.29V269.9l37.65-79.73h19.23l-37.65,79.73h33.07v-31.38h17.06
		v31.38h11.5V285.83z"/>
	<g>
		<path class="st0" d="M156.32,426.58h-66c-20.26,0-36.85-16.58-36.85-36.85v-29.56"/>
		<circle class="st0" cx="190.57" cy="426.58" r="34.29"/>
	</g>
	<path class="st0" d="M64.15,220.07C77.29,128.15,156.77,59.13,250,59.13c93.22,0,172.71,69.03,185.85,160.94"/>
	<path class="st0" d="M456.03,220.07c-0.01-0.12-0.01-0.25-0.03-0.37c-6.48-49.58-30.79-95.21-68.42-128.5
		C349.6,57.62,300.74,39.13,250,39.13c-50.76,0-99.63,18.5-137.6,52.1c-37.64,33.3-61.94,78.95-68.41,128.55
		c-0.01,0.1-0.01,0.2-0.02,0.29"/>
	<g>
		<path class="st0" d="M74.87,360.6H44.08c-13.53,0-24.6-11.07-24.6-24.6v-91.34c0-13.53,11.07-24.6,24.6-24.6h30.79
			c6.6,0,12,5.4,12,12V348.6C86.87,355.2,81.47,360.6,74.87,360.6z"/>
		<path class="st0" d="M425.13,360.6h30.79c13.53,0,24.6-11.07,24.6-24.6v-91.34c0-13.53-11.07-24.6-24.6-24.6h-30.79
			c-6.6,0-12,5.4-12,12V348.6C413.13,355.2,418.53,360.6,425.13,360.6z"/>
	</g>
</g>
</svg>
