<?xml version="1.0" encoding="utf-8"?>
<!-- Generator: Adobe Illustrator 24.0.0, SVG Export Plug-In . SVG Version: 6.00 Build 0)  -->
<svg version="1.1" id="Layer_1" xmlns="http://www.w3.org/2000/svg" xmlns:xlink="http://www.w3.org/1999/xlink" x="0px" y="0px"
	 viewBox="0 0 500 500" style="enable-background:new 0 0 500 500;" xml:space="preserve">
<style type="text/css">
	.st0{fill:none;stroke:#0C3E55;stroke-width:2;stroke-linecap:round;stroke-miterlimit:10;}
	.st1{fill:#F46B25;}
</style>
<g>
	<g>
		<line class="st0" x1="250" y1="423.66" x2="250" y2="464.25"/>
		<line class="st0" x1="250" y1="259.99" x2="250" y2="300.57"/>
	</g>
	<g>
		<line class="st0" x1="185.44" y1="362.12" x2="144.86" y2="362.12"/>
		<line class="st0" x1="355.14" y1="362.12" x2="314.56" y2="362.12"/>
	</g>
	<path class="st0" d="M381.9,362.35h85.5c13.48,0,24.4-10.93,24.4-24.4V59.15c0-13.48-10.93-24.4-24.4-24.4H32.61
		c-13.48,0-24.4,10.93-24.4,24.4v278.79c0,13.48,10.93,24.4,24.4,24.4h85.5"/>
	<line class="st0" x1="8.2" y1="84.72" x2="491.8" y2="84.72"/>
	<rect x="394.66" y="50.38" class="st1" width="17.38" height="17.38"/>
	<rect x="424.38" y="50.38" class="st1" width="17.38" height="17.38"/>
	<rect x="454.11" y="50.38" class="st1" width="17.38" height="17.38"/>
	<path class="st1" d="M250,281.2c-44.69,0-80.92,36.23-80.92,80.92s36.23,80.92,80.92,80.92s80.92-36.23,80.92-80.92
		S294.69,281.2,250,281.2z M250,328.96c11.24,0,20.36,8.08,20.36,21.92c0,8-3.05,15.13-7.8,19.72c-3.46,3.34-7.82,5.33-12.56,5.33
		c-11.24,0-20.35-11.22-20.36-25.05C229.64,337.05,238.76,328.96,250,328.96z M248.55,416.1c-25.84,0-39.05-16.8-39.05-16.8
		c3.78-9.6,16.06-21.08,24.36-25.46c4.36,4.47,9.99,7.16,16.14,7.16c5.66,0,11.2-2.34,15.61-6.6c0.19-0.18,0.36-0.37,0.54-0.55
		c8.32,4.39,20.58,15.86,24.35,25.45C290.5,399.3,274.4,416.1,248.55,416.1z"/>
	<g>
		<path class="st0" d="M229.86,246.33H38.7c-6.41,0-11.61-5.2-11.61-11.61V117.24c0-6.41,5.2-11.61,11.61-11.61h191.17
			c6.41,0,11.61,5.2,11.61,11.61v117.48C241.47,241.14,236.27,246.33,229.86,246.33z"/>
		<polyline class="st0" points="27.09,190.79 93.26,162.09 134.28,190.61 203.42,148.66 241.47,173.06 		"/>
		<ellipse class="st0" cx="136.5" cy="147.11" rx="16.36" ry="17.07"/>
	</g>
	<line class="st0" x1="314.56" y1="107.76" x2="477.38" y2="107.76"/>
	<line class="st0" x1="270.35" y1="122.75" x2="477.38" y2="122.75"/>
	<line class="st0" x1="270.35" y1="137.74" x2="477.38" y2="137.74"/>
	<line class="st0" x1="270.35" y1="152.73" x2="477.38" y2="152.73"/>
	<line class="st0" x1="270.35" y1="167.71" x2="477.38" y2="167.71"/>
	<line class="st0" x1="270.35" y1="182.7" x2="424.38" y2="182.7"/>
	<path class="st0" d="M457.63,246.33H290.11c-10.91,0-19.76-8.85-19.76-19.76v0c0-10.91,8.85-19.76,19.76-19.76h167.52
		c10.91,0,19.76,8.85,19.76,19.76v0C477.38,237.49,468.54,246.33,457.63,246.33z"/>
</g>
</svg>
