<svg width="18" height="18" viewBox="0 0 18 18" fill="none" xmlns="http://www.w3.org/2000/svg">
<path d="M13.25 5C13.25 5.41421 13.5858 5.75 14 5.75C14.4142 5.75 14.75 5.41421 14.75 5H13.25ZM13 1V0.25V1ZM3 1V0.25V1ZM1 3H0.25H1ZM3 5V5.75V5ZM15 5V5.75V5ZM15.25 9C15.25 9.41421 15.5858 9.75 16 9.75C16.4142 9.75 16.75 9.41421 16.75 9H15.25ZM16.75 13C16.75 12.5858 16.4142 12.25 16 12.25C15.5858 12.25 15.25 12.5858 15.25 13H16.75ZM1 15H0.25H1ZM17 9H17.75C17.75 8.58579 17.4142 8.25 17 8.25V9ZM17 13V13.75C17.4142 13.75 17.75 13.4142 17.75 13H17ZM13 9V9.75V9ZM14.75 5V2H13.25V5H14.75ZM14.75 2C14.75 1.53587 14.5656 1.09075 14.2374 0.762563L13.1768 1.82322C13.2237 1.87011 13.25 1.93369 13.25 2H14.75ZM14.2374 0.762563C13.9092 0.434375 13.4641 0.25 13 0.25V1.75C13.0663 1.75 13.1299 1.77634 13.1768 1.82322L14.2374 0.762563ZM13 0.25H3V1.75H13V0.25ZM3 0.25C2.27065 0.25 1.57118 0.539731 1.05546 1.05546L2.11612 2.11612C2.35054 1.8817 2.66848 1.75 3 1.75V0.25ZM1.05546 1.05546C0.539731 1.57118 0.25 2.27065 0.25 3H1.75C1.75 2.66848 1.8817 2.35054 2.11612 2.11612L1.05546 1.05546ZM0.25 3C0.25 3.72935 0.539731 4.42882 1.05546 4.94454L2.11612 3.88388C1.8817 3.64946 1.75 3.33152 1.75 3H0.25ZM1.05546 4.94454C1.57118 5.46027 2.27065 5.75 3 5.75V4.25C2.66848 4.25 2.35054 4.1183 2.11612 3.88388L1.05546 4.94454ZM3 5.75H15V4.25H3V5.75ZM15 5.75C15.0663 5.75 15.1299 5.77634 15.1768 5.82322L16.2374 4.76256C15.9092 4.43437 15.4641 4.25 15 4.25V5.75ZM15.1768 5.82322C15.2237 5.87011 15.25 5.93369 15.25 6H16.75C16.75 5.53587 16.5656 5.09075 16.2374 4.76256L15.1768 5.82322ZM15.25 6V9H16.75V6H15.25ZM15.25 13V16H16.75V13H15.25ZM15.25 16C15.25 16.0663 15.2237 16.1299 15.1768 16.1768L16.2374 17.2374C16.5656 16.9092 16.75 16.4641 16.75 16H15.25ZM15.1768 16.1768C15.1299 16.2237 15.0663 16.25 15 16.25V17.75C15.4641 17.75 15.9092 17.5656 16.2374 17.2374L15.1768 16.1768ZM15 16.25H3V17.75H15V16.25ZM3 16.25C2.66848 16.25 2.35054 16.1183 2.11612 15.8839L1.05546 16.9445C1.57118 17.4603 2.27065 17.75 3 17.75V16.25ZM2.11612 15.8839C1.8817 15.6495 1.75 15.3315 1.75 15H0.25C0.25 15.7293 0.539731 16.4288 1.05546 16.9445L2.11612 15.8839ZM1.75 15V3H0.25V15H1.75ZM16.25 9V13H17.75V9H16.25ZM17 12.25H13V13.75H17V12.25ZM13 12.25C12.6685 12.25 12.3505 12.1183 12.1161 11.8839L11.0555 12.9445C11.5712 13.4603 12.2707 13.75 13 13.75V12.25ZM12.1161 11.8839C11.8817 11.6495 11.75 11.3315 11.75 11H10.25C10.25 11.7293 10.5397 12.4288 11.0555 12.9445L12.1161 11.8839ZM11.75 11C11.75 10.6685 11.8817 10.3505 12.1161 10.1161L11.0555 9.05546C10.5397 9.57118 10.25 10.2707 10.25 11H11.75ZM12.1161 10.1161C12.3505 9.8817 12.6685 9.75 13 9.75V8.25C12.2707 8.25 11.5712 8.53973 11.0555 9.05546L12.1161 10.1161ZM13 9.75H17V8.25H13V9.75Z" fill="#1A1A1A"/>
</svg>
