<svg viewBox="0 0 500 500" xmlns="http://www.w3.org/2000/svg"><path d="m425.53 382.47h-39.44a12.44 12.44 0 1 1 0-24.87h39.44a19.63 19.63 0 0 0 19.61-19.6v-227.2a19.64 19.64 0 0 0 -19.61-19.61h-351.06a19.64 19.64 0 0 0 -19.61 19.61v227.2a19.63 19.63 0 0 0 19.61 19.6h235a12.44 12.44 0 1 1 0 24.87h-235a44.52 44.52 0 0 1 -44.47-44.47v-227.2a44.52 44.52 0 0 1 44.47-44.47h351.06a44.52 44.52 0 0 1 44.47 44.47v227.2a44.52 44.52 0 0 1 -44.47 44.47z" fill="#0b3e55"/><path d="m190.57 370.03h118.85v51.21h-118.85z" fill="#cee7f8"/><path d="m309.42 433.67h-118.84a12.43 12.43 0 0 1 -12.44-12.43v-51.24a12.44 12.44 0 0 1 12.44-12.43h118.84a12.44 12.44 0 0 1 12.44 12.43v51.21a12.43 12.43 0 0 1 -12.44 12.46zm-106.42-24.86h94v-26.34h-94z" fill="#0b3e55"/><path d="m346.62 433.67h-193.24a12.43 12.43 0 0 1 0-24.86h193.24a12.43 12.43 0 0 1 0 24.86z" fill="#0b3e55"/><path d="m219.11 299.73a36.69 36.69 0 1 1 61.78 0h86.46v-43.25l-26.08-4.17a95.25 95.25 0 0 0 -21.71-37.55l9.44-24.7-40.65-23.47-16.65 20.5a96.13 96.13 0 0 0 -43.39 0l-16.66-20.5-40.65 23.47 9.44 24.7a95.25 95.25 0 0 0 -21.71 37.55l-26.07 4.17v43.25z" fill="#cee7f8"/><path d="m367.35 312.16h-86.46a12.43 12.43 0 0 1 -10.46-19.16 24.26 24.26 0 1 0 -40.85 0 12.44 12.44 0 0 1 -10.46 19.15h-86.47a12.44 12.44 0 0 1 -12.43-12.43v-43.24a12.43 12.43 0 0 1 10.47-12.27l18.72-3a108.69 108.69 0 0 1 16.75-29l-6.77-17.73a12.42 12.42 0 0 1 5.39-15.2l40.65-23.47a12.43 12.43 0 0 1 15.87 2.92l12 14.72a109.26 109.26 0 0 1 33.48 0l12-14.72a12.42 12.42 0 0 1 15.86-2.92l40.65 23.47a12.43 12.43 0 0 1 5.4 15.2l-6.78 17.73a108.69 108.69 0 0 1 16.75 29l18.73 3a12.43 12.43 0 0 1 10.47 12.27v43.25a12.44 12.44 0 0 1 -12.51 12.43zm-68.78-24.86h56.34v-20.22l-15.61-2.49a12.41 12.41 0 0 1 -9.93-8.68 83.31 83.31 0 0 0 -18.88-32.65 12.44 12.44 0 0 1 -2.49-12.94l5.65-14.79-22.29-12.87-10 12.27a12.43 12.43 0 0 1 -12.46 4.27 83.88 83.88 0 0 0 -37.76 0 12.42 12.42 0 0 1 -12.46-4.27l-10-12.27-22.28 12.87 5.65 14.79a12.44 12.44 0 0 1 -2.54 12.94 83.19 83.19 0 0 0 -18.88 32.65 12.43 12.43 0 0 1 -9.94 8.68l-15.6 2.49v20.22h56.34a50 50 0 0 1 -.55-7.35 49.12 49.12 0 0 1 98.24 0 50 50 0 0 1 -.55 7.35z" fill="#0b3e55"/></svg>