<svg viewBox="0 0 500 500" xmlns="http://www.w3.org/2000/svg"><path d="m250 42.31a132.93 132.93 0 1 0 132.93 132.93 132.93 132.93 0 0 0 -132.93-132.93zm36.17 188.59-36.17-19-36.17 19 6.9-40.28-29.26-28.52 40.44-5.88 18.09-36.65 18.09 36.65 40.44 5.88-29.27 28.52z" fill="#cee7f8"/><g fill="#0b3e55"><path d="m362.8 301a12.31 12.31 0 0 0 -12.31 12.31v80.69l-37.22-25a12.29 12.29 0 0 0 -13.74 0l-37.22 25v-45.8a12.31 12.31 0 0 0 -24.62 0v86.33l-37.22-25.03a12.32 12.32 0 0 0 -13.74 0l-37.22 25.06v-154.56a144.71 144.71 0 0 0 100.49 40.47c80.08 0 145.24-65.15 145.24-145.23s-65.16-145.24-145.24-145.24-145.24 65.15-145.24 145.24a144.36 144.36 0 0 0 20.13 73.68v208.77a12.31 12.31 0 0 0 19.18 10.21l49.53-33.35 49.52 33.35a12.31 12.31 0 0 0 19.19-10.21v-34l44.09-29.69 49.53 33.34a12.31 12.31 0 0 0 19.18-10.21v-103.8a12.31 12.31 0 0 0 -12.31-12.33zm-112.8-246.38a120.62 120.62 0 1 1 -120.62 120.62 120.75 120.75 0 0 1 120.62-120.62z"/><path d="m207.51 194.92-5.81 33.9a12.3 12.3 0 0 0 17.85 13l30.45-16 30.44 16a12.3 12.3 0 0 0 17.86-13l-5.81-33.9 24.63-24a12.32 12.32 0 0 0 -6.82-21l-34-4.94-15.3-30.86a12.31 12.31 0 0 0 -22.08 0l-15.18 30.88-34 4.94a12.32 12.32 0 0 0 -6.82 21zm26.17-26.52a12.3 12.3 0 0 0 9.27-6.73l7.05-14.29 7.05 14.29a12.3 12.3 0 0 0 9.27 6.73l15.76 2.29-11.41 11.12a12.31 12.31 0 0 0 -3.54 10.89l2.7 15.7-14.1-7.4a12.27 12.27 0 0 0 -11.46 0l-14.09 7.41 2.69-15.7a12.31 12.31 0 0 0 -3.54-10.89l-11.41-11.12z"/></g></svg>