<svg viewBox="0 0 500 500" xmlns="http://www.w3.org/2000/svg"><g fill="#cee7f8"><circle cx="183.34" cy="194.63" r="30"/><circle cx="316.66" cy="194.63" r="30"/><path d="m385.15 288.87a67.26 67.26 0 0 1 30.8 7.42l3.32-26.29h-338.54l8.27 65.37h231.87a67.69 67.69 0 0 1 64.28-46.5z"/></g><path d="m431.64 270.56v-.05l7.87-64.46h18a12.47 12.47 0 1 0 0-24.94h-51.51a12.47 12.47 0 0 0 0 24.94h8.4l-6.16 50.48h-316.47l-6.16-50.48h57.14a42.47 42.47 0 0 0 81.19 0h52.12a42.47 42.47 0 1 0 50.15-53.84l-33.21-80.21a12.47 12.47 0 1 0 -23 9.55l30.19 72.87a42.67 42.67 0 0 0 -24.08 26.66h-52.17a42.67 42.67 0 0 0 -24.08-26.66l30.19-72.87a12.47 12.47 0 1 0 -23.05-9.55l-33.22 80.18a42.63 42.63 0 0 0 -31 28.9h-100.31a12.47 12.47 0 0 0 0 24.94h18l7.88 64.52 8.26 65.32s0 0 0 .07l9.2 72.68a12.47 12.47 0 0 0 12.38 10.91h238.81a80.13 80.13 0 1 0 92.36-130.87l2.29-18.11zm-115.32-94.49a10.92 10.92 0 0 0 1.15.09h.61a17.48 17.48 0 1 1 -1.76-.06zm-134.4.06h.61a10.92 10.92 0 0 0 1.15-.09 17.58 17.58 0 1 1 -1.76.06zm131.08 144.44-.17.36-.46.92h-212.37l-5.11-40.37h259.46a79.88 79.88 0 0 0 -41.35 39.09zm-209.85 26.23h202.32a80.85 80.85 0 0 0 -.48 8.71 79.66 79.66 0 0 0 10.21 39.09h-206zm282 63.93a55.19 55.19 0 0 1 -52.15-73.37l.36-1.05a55.48 55.48 0 0 1 37.88-34.24l.18-.05c1.7-.43 3.43-.79 5.19-1.06l.5-.07c.67-.1 1.34-.19 2-.26l.8-.08c.61-.06 1.22-.1 1.84-.14l.78-.05c.85 0 1.72-.06 2.58-.06 1 0 2 0 3.05.08l1.25.1c.58 0 1.15.09 1.73.15l1.54.2 1.37.2c.56.09 1.12.19 1.67.3l1.21.25 1.7.4 1.19.32c.55.15 1.1.3 1.64.47.88.27 1.76.57 2.62.89.33.11.64.25 1 .37.63.25 1.26.5 1.89.77.33.14.65.3 1 .45.6.27 1.21.56 1.81.86a55.2 55.2 0 0 1 -24.62 104.62z" fill="#0b3e55"/><path d="m405.63 343h-8v-8a12.47 12.47 0 0 0 -24.94 0v8h-8a12.47 12.47 0 1 0 0 24.94h8v8a12.47 12.47 0 1 0 24.94 0v-8h8a12.47 12.47 0 1 0 0-24.94z" fill="#0b3e55"/></svg>