<svg viewBox="0 0 500 500" xmlns="http://www.w3.org/2000/svg"><path d="m378 406.35c0-9-3.76-17.54-10.83-24.69-4.43-4.79-9.14-9.43-13.71-13.86-2.36-2.21-4.72-4.57-7-6.85l-20.13-20.13c-15.48-15.47-35.53-15.47-51 0-2.07 2.07-4.21 4.13-6.27 6.2-5.53 5.45-11.28 11.05-16.81 17.1-9.94-4.5-19.75-10.69-31.4-19.9-11.55-9.41-53.49-51.35-62.89-62.9-9.22-11.65-15.41-21.45-19.9-31.4 6-5.53 11.64-11.28 17.09-16.81 2.07-2.06 4.13-4.2 6.2-6.26 15.47-15.48 15.47-35.53 0-51l-20.13-20.12c-2.28-2.29-4.64-4.64-6.85-7-4.42-4.57-9.06-9.29-13.85-13.71-7.16-7.08-15.71-10.84-24.7-10.84s-17.73 3.75-25.1 10.82l-.14.14-9.78 10a53.93 53.93 0 0 0 -16 34.27c-1.8 21.53 4.58 41.59 9.44 54.7 11.94 32.21 29.78 62.06 56.39 94.05a360.12 360.12 0 0 0 30.84 32.5 358.72 358.72 0 0 0 32.53 30.84c32 26.61 61.84 44.45 94 56.39 13.12 4.86 33.17 11.2 54.69 9.43a54 54 0 0 0 34.28-16l10-9.77.15-.15c7.08-7.4 10.88-16.05 10.88-25.05z" fill="#cee7f8"/><g fill="#0b3e55"><path d="m467.86 233.75c0-112.35-91.4-203.75-203.74-203.75a204.13 204.13 0 0 0 -129.42 46.37 12.37 12.37 0 0 0 15.73 19.1 179.32 179.32 0 0 1 113.69-40.73c98.7 0 179 80.3 179 179a179.28 179.28 0 0 1 -66.89 139.53l-.15-.16c-4.65-5-9.51-9.8-14.06-14.21l-.14-.13c-2.11-2-4.29-4.15-6.4-6.26l-20.48-20.43c-10-10-21.81-15.23-34.25-15.23s-24.28 5.26-34.25 15.23c-1 1-2 1.95-3 2.92l-3.24 3.21-1.53 1.5c-3 3-6.14 6.05-9.25 9.23a157.75 157.75 0 0 1 -21-14.37c-11.09-9.05-51.93-49.9-61-61a156.84 156.84 0 0 1 -14.37-21c3.16-3.09 6.2-6.17 9.17-9.2l1.49-1.5c1.1-1.1 2.2-2.22 3.3-3.34s1.93-2 2.9-2.93c20.16-20.17 20.16-48.34 0-68.51l-9.72-9.72a128.87 128.87 0 0 1 220 132 12.37 12.37 0 0 0 22.32 10.68 153.84 153.84 0 0 0 -30-174.92c-59.89-59.89-157.33-59.89-217.21 0a153.58 153.58 0 0 0 -12.77 14.48c-4.29-4.42-8.9-9.1-13.73-13.57-9.5-9.32-21-14.25-33.24-14.25s-23.89 4.94-33.62 14.28l-.18.18-.15.15-.1.09-9.57 9.96a66.11 66.11 0 0 0 -19.52 42c-2 23.91 4.86 45.7 10.17 60 12.47 33.67 31.05 64.7 58.5 97.7a373.9 373.9 0 0 0 31.57 33.31 373.42 373.42 0 0 0 33.34 31.54c33 27.42 64 46 97.66 58.48 12.17 4.52 30.74 10.52 51.5 10.52q4.29 0 8.58-.35a66.1 66.1 0 0 0 41.88-19.52l9.94-9.73.1-.09.15-.15.18-.18c9.34-9.73 14.27-21.36 14.27-33.63a44.74 44.74 0 0 0 -1.5-11.5 204.09 204.09 0 0 0 79.04-161.1zm-109.58 189-9.94 9.72-.1.1a41.31 41.31 0 0 1 -26.54 12.43c-2.11.18-4.29.27-6.48.27-16.78 0-32.51-5.12-42.9-9-30.95-11.48-59.69-28.73-90.41-54.27a350.85 350.85 0 0 1 -31.38-29.78c-.2-.22-.42-.43-.64-.64a349.94 349.94 0 0 1 -29.75-31.35c-25.57-30.74-42.82-59.48-54.3-90.44-4.48-12.09-10.26-30.37-8.71-49.3a41.41 41.41 0 0 1 12.42-26.62l.1-.09 9.72-10c5-4.78 10.69-7.3 16.41-7.3s11.2 2.51 16 7.25l.31.29c4.59 4.24 9.1 8.83 13.29 13.16 2.22 2.36 4.5 4.65 6.72 6.87l20.47 20.47c10.65 10.65 10.65 22.86 0 33.51q-1.53 1.53-3.05 3.09c-1 1.06-2.09 2.12-3.2 3.23l-1.58 1.65c-4.84 4.91-9.84 10-15.07 14.78a12.37 12.37 0 0 0 -2.93 14.22c4.92 10.88 11.74 21.68 21.47 34l.11.14c10 12.33 52.35 54.64 64.69 64.68l.13.11c12.3 9.73 23.1 16.55 34 21.47a12.37 12.37 0 0 0 14.22-2.93c4.8-5.24 9.9-10.27 14.83-15.12l1.61-1.59 3.14-3.11c1.05-1 2.09-2.05 3.12-3.07 5.22-5.23 11-8 16.75-8s11.53 2.76 16.75 8l20.44 20.42c2.23 2.22 4.53 4.52 6.89 6.74 4.32 4.18 8.9 8.68 13.16 13.29l.29.3c3.31 3.35 7.26 8.84 7.26 16-.01 5.75-2.54 11.42-7.32 16.43z"/><path d="m268.3 252h-31.3c.12-3.76 5.91-7.72 12.6-12.3 11.5-7.87 25.81-17.67 25.81-34.7 0-17.51-15.56-27-30.2-27-14.22 0-29.33 8.8-29.33 25.1 0 7.5 3.34 11.31 9.94 11.31 7.42 0 11.43-4.29 11.43-8.33 0-6.68 4.4-8.08 8.09-8.08 6.05 0 8.21 4.09 8.21 7.59 0 6.85-8.51 13.09-17.52 19.71-10.64 7.8-21.64 15.88-21.64 26.78v12.06c0 4.46 5.64 7.2 9.69 7.2h44.22c3.77 0 7.08-4.59 7.08-9.82s-3.24-9.52-7.08-9.52z"/><path d="m334.55 231.9h-4.1v-7.46c0-4.3-4.3-7.08-10.94-7.08s-10.93 2.77-10.93 7.08v7.46h-7.45l21.14-42.4a7.4 7.4 0 0 0 .72-2.85c0-5.32-7.08-8.57-10.93-8.57a10 10 0 0 0 -9.19 5.64l-28.69 56.28a9.14 9.14 0 0 0 -1.15 4.32c0 4.76 3.09 8 7.7 8h27.85v11.94c0 5 5.67 7.21 10.93 7.21s10.94-2.26 10.94-7.21v-11.99h4.11c3.7 0 7.2-5 7.2-10.18 0-4.91-2.26-10.19-7.21-10.19z"/></g></svg>