<svg viewBox="0 0 500 500" xmlns="http://www.w3.org/2000/svg"><path d="m96.16 43.12h307.66v103.51h-307.66z" fill="#cee7f8"/><g fill="#0b3e55"><path d="m403.83 30h-307.66a13.13 13.13 0 0 0 -13.17 13.12v389a29.29 29.29 0 0 0 50 20.7 19.57 19.57 0 0 1 27.65 0 58.67 58.67 0 0 0 82.88 0 13.13 13.13 0 0 0 -18.53-18.52 32.39 32.39 0 0 1 -45.75 0 45.85 45.85 0 0 0 -64.77 0 3 3 0 0 1 -5.19-2.15v-272.39h281.42v272.4a3 3 0 0 1 -5.19 2.14 45.86 45.86 0 0 0 -64.77 0l-10.39 10.4a13.12 13.12 0 1 0 18.56 18.56l10.39-10.4a19.57 19.57 0 0 1 27.65 0 29.29 29.29 0 0 0 50-20.7v-389a13.13 13.13 0 0 0 -13.13-13.16zm-294.54 103.51v-77.26h281.42v77.26z"/><path d="m350.93 263.88h-72.64a13.13 13.13 0 0 1 0-26.25h72.64a13.13 13.13 0 0 1 0 26.25z"/><path d="m350.93 336.07h-72.64a13.13 13.13 0 0 1 0-26.25h72.64a13.13 13.13 0 0 1 0 26.25z"/><path d="m225.42 282.19c-4.84-3.35-13-6.66-25-10.11v-33.08a13.81 13.81 0 0 1 8.67 6.21 21.55 21.55 0 0 1 2.92 9.27 4.6 4.6 0 0 0 4.57 4.15h14.9a4.59 4.59 0 0 0 4.59-4.72c-.28-10.83-4-19.76-10.91-26.53-6-5.83-14.3-9.47-24.73-10.85v-7.08a4.6 4.6 0 0 0 -4.6-4.6h-8.14a4.6 4.6 0 0 0 -4.6 4.6v7c-10.6 1-19.19 5-25.56 11.9-7.12 7.75-10.73 16.69-10.73 26.55 0 11.05 3.48 19.85 10.33 26.15 5.82 5.43 14.55 9.49 26 12.1v37.65c-5.37-1.27-9.06-3.84-11.23-7.78-1.15-2.11-2.64-6.45-3.2-15.18a4.59 4.59 0 0 0 -4.58-4.3h-15.05a4.6 4.6 0 0 0 -4.59 4.59c0 10.81 1.76 19.18 5.37 25.59 6.2 11.14 17.39 17.74 33.28 19.63v10.83a4.6 4.6 0 0 0 4.59 4.6h8.15a4.59 4.59 0 0 0 4.59-4.6v-11c9-1.37 16.29-3.77 21.58-7.18 11.31-7.33 17-19.53 16.91-36.25.05-12.05-4.55-21.34-13.53-27.56zm-54.02-28.19a17.77 17.77 0 0 1 3.9-10.75c1.63-2.18 4.26-3.66 7.83-4.43v29.08a24.77 24.77 0 0 1 -7.64-4.16c-2.79-2.37-4.09-5.47-4.09-9.74zm29.06 43.75a32.73 32.73 0 0 1 8 3.71c4.06 2.88 5.95 6.86 5.95 12.53a19.66 19.66 0 0 1 -2.34 9.76c-2.28 4.13-6.08 6.69-11.57 7.74v-33.77z"/></g></svg>