<svg viewBox="0 0 500 500" xmlns="http://www.w3.org/2000/svg"><path d="m250 103.73a47.07 47.07 0 0 1 -2.37 14.81h-89.63a47.2 47.2 0 1 1 92-14.81z" fill="#cee7f8"/><path d="m344.39 103.73a47.07 47.07 0 0 1 -2.39 14.81h-89.63a47.2 47.2 0 1 1 92-14.81z" fill="#cee7f8"/><path d="m252.37 131.29h-4.74a12.76 12.76 0 1 1 0-25.51h4.74a12.76 12.76 0 1 1 0 25.51z" fill="#b4414b"/><path d="m299.32 294.65-49.32-38.29-49.32 38.29v-176.11h98.64z" fill="#cee7f8"/><path d="m200.68 360.56 49.32-38.3 49.32 38.3z" fill="#cee7f8"/><path d="m457.24 105.78h-100.13c0-.68 0-1.37 0-2a59.92 59.92 0 0 0 -107.11-36.96 59.92 59.92 0 0 0 -107.15 36.91v2h-100.09a12.76 12.76 0 0 0 -12.76 12.81v82.69a12.76 12.76 0 0 0 12.76 12.77h20.37v229.47a12.75 12.75 0 0 0 12.75 12.75h348.24a12.75 12.75 0 0 0 12.75-12.75v-178.41a12.76 12.76 0 1 0 -25.51 0v165.65h-99.28v-70.15a12.78 12.78 0 0 0 -4.94-10.08l-49.32-38.29a12.74 12.74 0 0 0 -15.64 0l-49.33 38.29a12.77 12.77 0 0 0 -4.93 10.08v70.16h-99.28v-216.72h99.28v80.66a12.76 12.76 0 0 0 20.58 10.08l41.5-32.23 41.5 32.22a12.76 12.76 0 0 0 20.58-10.08v-163.36h132.41v57.19h-82.24a12.76 12.76 0 0 0 0 25.51h95a12.76 12.76 0 0 0 12.75-12.76v-82.69a12.76 12.76 0 0 0 -12.76-12.76zm-243.81 261 36.57-28.37 36.57 28.39v63.92h-73.14v-63.92zm-25.51-178.3h-132.41v-57.19h132.41zm12.76-82.7h-32.26c0-.68-.06-1.36-.06-2a34.44 34.44 0 0 1 68.88 0c0 .69 0 1.37-.06 2zm85.89 162.82-28.75-22.32a12.75 12.75 0 0 0 -15.64 0l-28.75 22.32v-137.31h73.14zm45-162.82h-68.75c0-.68-.06-1.36-.06-2a34.44 34.44 0 1 1 68.88 0c0 .63-.02 1.32-.06 2z" fill="#0b3e55"/></svg>