<svg viewBox="0 0 500 500" xmlns="http://www.w3.org/2000/svg"><path d="m250 391.05h-.93a141 141 0 1 1 142-141 143.21 143.21 0 0 1 -1 16.54 141.43 141.43 0 0 1 -39.6 82.41 13.06 13.06 0 0 1 -18.6-18.33 115 115 0 1 0 -82.43 34.26h.56a13.06 13.06 0 0 1 0 26.11z" fill="#0b3e55"/><path d="m307.25 184.38c-25.35 14.78-25.6 53.45-38.71 68.94s-67.67-22.79-66-46.41-6-20.67-10.38-24.36c-2.78-2.35 12-32.4 10.61-50.23 14.59-5.81 30.54-10.32 47.23-10.32 26.13 0 50.44 9.15 70.69 22.58 1.19 15.97-.79 32.42-13.44 39.8z" fill="#cee7f8"/><path d="m259.43 270c-18.35 0-40.88-15.19-54.05-29.3-7.76-8.32-16.83-21.1-15.89-34.67a43.3 43.3 0 0 0 -.14-10 24.07 24.07 0 0 1 -5.65-3.47c-7.84-6.61-5-15.21-.83-28.23 3-9.17 7.48-23 6.86-30.93a13.06 13.06 0 0 1 8.19-13.16c19.08-7.61 36.08-11.24 52.08-11.24 26.55 0 53.49 8.57 77.91 24.77a13 13 0 0 1 5.8 9.9c1.92 25.73-4.77 43.24-19.89 52-11.37 6.63-16.44 21.76-21.34 36.39-3.77 11.23-7.32 21.84-14 29.7-3.14 3.74-9.02 8.24-19.05 8.24zm-52.9-94c7.55 6 10.12 15.58 9 31.82-.13 1.77 1.58 7.19 8.93 15.06 11.51 12.34 27.6 20.95 34.9 21 3.08-4.37 5.76-12.36 8.35-20.11 5.83-17.41 13.09-39.07 33-50.65 5.73-3.34 7.26-12.38 7.25-21.12-18.58-11.09-38.48-16.92-57.93-16.92-10.67 0-21.8 2.06-34.53 6.45-1.22 10.62-4.89 22-7.76 30.82-.4 1.12-.81 2.38-1.21 3.65z" fill="#0b3e55"/><path d="m250 378.37c-38.75-.17-74.06-19.28-97.41-46.64 15.75-19.36 48.82-11.28 58.51-31 16.59-33.73 69.44 32.12 38.9 77.64z" fill="#cee7f8"/><path d="m250 391.42h-.06c-40.55-.18-79.65-18.84-107.28-51.22a13 13 0 0 1 -.2-16.7c10.39-12.78 25.43-16.5 37.54-19.5 10.6-2.65 17.21-4.5 19.41-9 5.18-10.54 14.07-16.58 24.4-16.58 14 0 28.84 11.47 38.68 29.94 10.76 20.17 16 51.07-1.62 77.31a13 13 0 0 1 -10.87 5.75zm-77.71-58c19.64 18.26 44.77 29.58 70.25 31.58 6.86-15.31 3.23-32.52-3.11-44.4-6.18-11.58-13.16-15.73-15.36-16.09a8 8 0 0 0 -1.25 2c-7.66 15.59-23.67 19.58-36.53 22.79a106.3 106.3 0 0 0 -14 4.14z" fill="#0b3e55"/><path d="m375.81 265c-3.39 29-15 55.05-34.48 74.81-22.31-4.59-26.75-24.69-38.89-38.59-28.5-32.65 23.48-40 52.44-40a58.56 58.56 0 0 1 20.93 3.78z" fill="#cee7f8"/><path d="m341.33 352.88a13.1 13.1 0 0 1 -2.63-.26c-21.18-4.36-30.46-19.16-37.91-31.05a92.91 92.91 0 0 0 -8.18-11.75c-13.94-16-12.7-28.46-9.21-36.14 10.08-22.17 49.11-25.49 71.48-25.49a70.86 70.86 0 0 1 25.34 4.55 13.05 13.05 0 0 1 8.55 13.79c-3.78 32.46-17 61-38.14 82.46a13 13 0 0 1 -9.3 3.89zm-34.1-68.51c.06.53.57 3.15 5 8.28a114.67 114.67 0 0 1 10.64 15.05c5.16 8.23 8.91 13.85 14.56 17 11.66-13.88 19.68-30.9 23.59-50a47 47 0 0 0 -6.18-.38c-28.06-.02-45.49 6.37-47.61 10.05z" fill="#0b3e55"/><path d="m250 470a220 220 0 0 1 -155.56-375.56 220 220 0 0 1 311.12 0 13.05 13.05 0 1 1 -18.46 18.46 193.89 193.89 0 1 0 -274.2 274.2 193.89 193.89 0 0 0 331-137.1 13.06 13.06 0 0 1 26.1 0 220 220 0 0 1 -220 220z" fill="#0b3e55"/><circle cx="103.67" cy="103.67" fill="#cee7f8" r="32.46"/><path d="m103.67 149.18a45.52 45.52 0 1 1 32.18-13.33 45.22 45.22 0 0 1 -32.18 13.33zm0-64.92a19.41 19.41 0 1 0 13.72 5.68 19.31 19.31 0 0 0 -13.72-5.68z" fill="#0b3e55"/><circle cx="396.34" cy="396.34" fill="#cee7f8" r="32.46"/><path d="m396.33 441.85a45.52 45.52 0 1 1 32.19-13.33 45.21 45.21 0 0 1 -32.19 13.33zm0-64.93a19.42 19.42 0 1 0 13.73 5.69 19.26 19.26 0 0 0 -13.73-5.69z" fill="#0b3e55"/><circle cx="396.34" cy="103.67" fill="#cee7f8" r="32.46"/><path d="m396.33 149.18a45.52 45.52 0 1 1 32.19-13.33 45.21 45.21 0 0 1 -32.19 13.33zm0-64.92a19.41 19.41 0 1 0 13.73 5.68 19.29 19.29 0 0 0 -13.73-5.68z" fill="#0b3e55"/><circle cx="103.67" cy="396.34" fill="#cee7f8" r="32.46"/><path d="m103.67 441.85a45.52 45.52 0 1 1 32.18-13.33 45.22 45.22 0 0 1 -32.18 13.33zm0-64.93a19.42 19.42 0 1 0 13.72 5.69 19.28 19.28 0 0 0 -13.72-5.69z" fill="#0b3e55"/></svg>