<svg viewBox="0 0 500 500" xmlns="http://www.w3.org/2000/svg"><path d="m293.1 444.25h-37.78a12.54 12.54 0 1 1 0-25.08h37.78a102.17 102.17 0 0 0 102.19-102.17 12.55 12.55 0 0 1 25.09 0 127.25 127.25 0 0 1 -127.28 127.25z" fill="#0b3e55"/><path d="m92.16 348.53a12.55 12.55 0 0 1 -12.54-12.53v-180.18a127.43 127.43 0 0 1 127.28-127.28h86.2a127.53 127.53 0 0 1 111 64.87 12.54 12.54 0 0 1 -21.86 12.31 102.43 102.43 0 0 0 -89.14-52.09h-86.2a102.31 102.31 0 0 0 -102.2 102.19v180.18a12.54 12.54 0 0 1 -12.54 12.53z" fill="#0b3e55"/><path d="m383.3 349.38a23.91 23.91 0 0 0 23.91-23.91v9.28h7.43a30.52 30.52 0 0 0 30.52-30.53v-65.7a30.52 30.52 0 0 0 -30.52-30.52h-7.43v9.28a23.9 23.9 0 0 0 -23.91-23.91 23.91 23.91 0 0 0 -23.91 23.91v108.19a23.92 23.92 0 0 0 23.91 23.91z" fill="#cee7f8"/><path d="m383.3 361.92a36.49 36.49 0 0 1 -36.45-36.45v-108.2a36.45 36.45 0 0 1 65.64-21.82h2.15a43.12 43.12 0 0 1 43.07 43.07v65.7a43.12 43.12 0 0 1 -43.07 43.07h-2.15a36.42 36.42 0 0 1 -29.19 14.63zm0-156a11.38 11.38 0 0 0 -11.36 11.37v108.18a11.37 11.37 0 1 0 22.73 0 12.55 12.55 0 0 1 24.49-3.84 18 18 0 0 0 13.46-17.41v-65.7a18 18 0 0 0 -13.46-17.4 12.55 12.55 0 0 1 -24.49-3.84 11.38 11.38 0 0 0 -11.37-11.37z" fill="#0b3e55"/><path d="m116.7 349.38a23.91 23.91 0 0 1 -23.91-23.91v9.28h-7.43a30.52 30.52 0 0 1 -30.52-30.53v-65.7a30.52 30.52 0 0 1 30.52-30.52h7.43v9.28a23.9 23.9 0 0 1 23.91-23.91 23.91 23.91 0 0 1 23.91 23.91v108.19a23.92 23.92 0 0 1 -23.91 23.91z" fill="#cee7f8"/><path d="m116.7 361.92a36.42 36.42 0 0 1 -29.19-14.63h-2.15a43.12 43.12 0 0 1 -43.07-43.07v-65.7a43.12 43.12 0 0 1 43.07-43.07h2.15a36.45 36.45 0 0 1 65.64 21.82v108.2a36.49 36.49 0 0 1 -36.45 36.45zm-11.37-36.45a11.37 11.37 0 1 0 22.73 0v-108.19a11.37 11.37 0 1 0 -22.73 0 12.55 12.55 0 0 1 -24.49 3.84 18 18 0 0 0 -13.46 17.4v65.7a18 18 0 0 0 13.46 17.41 12.55 12.55 0 0 1 24.49 3.84z" fill="#0b3e55"/><circle cx="263.55" cy="427.62" fill="#cee7f8" r="31.29"/><path d="m263.54 471.46a43.84 43.84 0 1 1 43.84-43.84 43.89 43.89 0 0 1 -43.84 43.84zm0-62.59a18.75 18.75 0 1 0 18.75 18.75 18.78 18.78 0 0 0 -18.75-18.75z" fill="#0b3e55"/></svg>