<svg viewBox="0 0 500 500" xmlns="http://www.w3.org/2000/svg"><path d="m162.01 163.52h172.97v172.97h-172.97z" fill="#cee7f8"/><g fill="#0b3e55"><path d="m335 349.54h-173a13.06 13.06 0 0 1 -13-13.06v-173a13.06 13.06 0 0 1 13-13.02h173a13.06 13.06 0 0 1 13 13.06v173a13.06 13.06 0 0 1 -13 13.02zm-159.94-26.11h146.86v-146.86h-146.86z"/><path d="m392.09 380.54h-274.15v-261.08h62.66a13 13 0 0 0 6.13-1.53 13 13 0 0 0 10-12.67v-60.69a13.06 13.06 0 1 0 -26.11 0v48.78h-65.73a13.06 13.06 0 0 0 -13.06 13.05v62.66h-48.78a13.06 13.06 0 0 0 0 26.11h48.79v41.83h-22.66a13.06 13.06 0 1 0 0 26.11h22.65v41.77h-48.78a13.06 13.06 0 0 0 0 26.11h48.79v62.61a13 13 0 0 0 13 13h62.66v48.78a13.06 13.06 0 1 0 26.11 0v-48.73h41.78v22.66a13.05 13.05 0 1 0 26.1 0v-22.66h41.78v48.78a13.06 13.06 0 1 0 26.11 0v-48.78h62.66a13.06 13.06 0 0 0 0-26.11z"/><path d="m457 304.83h-48.84v-41.78h22.66a13.06 13.06 0 0 0 0-26.11h-22.66v-41.77h48.84a13.06 13.06 0 0 0 0-26.11h-48.84v-62.66a13 13 0 0 0 -13.05-13.05h-62.66v-48.78a13.06 13.06 0 1 0 -26.11 0v48.78h-41.77v-22.66a13.06 13.06 0 0 0 -26.11 0v34.57.57s0 .38 0 .57a13.06 13.06 0 0 0 13 13.06h130.6v191.88a12.07 12.07 0 0 0 -1.89 6.54 13.06 13.06 0 0 0 13.06 13.06h60.69a13.06 13.06 0 0 0 13.08-13.06c0-7.21-5.87-13.05-10-13.05z"/></g></svg>