<svg fill="none" height="29" viewBox="0 0 30 29" width="30" xmlns="http://www.w3.org/2000/svg"><path d="m29.4803 27.9807h-6.0924c.026-.075.048-.1519.061-.2319.0714-.4392-.0515-.8834-.3363-1.2182-.2858-.3357-.702-.5286-1.1427-.5286h-10.2662l-2.31846-2.3185c2.55226-.3957 5.96856-1.2441 8.17806-3.0644.2728-.2239.4252-.5726.4072-.9314-.1204-2.4988-.8254-15.15839-2.8866-19.028814-.2003-.37575-.5746-.6205865-1.0008-.65606283-.4297-.02898067-.8414.14840083-1.1028.48967383-1.7093 2.235013-7.29359 10.456503-7.48047 22.518003 0 .0025-.0005.0045 0 .007 0 .0155-.001.0305-.0015.0464-.00349.2564.10094.5052.28681.6826.17239.1644.40273.2563.63858.2563.01799 0 .03597-.0005.05396-.0015.35277-.021.88141-.0614 1.51849-.1324v2.1326h-2.95603c-.18688-.047-.97085-.2468-3.78498-.9709l-.502662-.1229-.372751.6701 2.613253 2.4029h-2.493333c-.276316 0-.499667.2233-.499667.4996 0 .2764.223351.4997.499667.4997h4.112763c.18487.018.33577.02.36875.02h16.93522c.0774 0 .1529-.009.2273-.02h7.3366c.2764 0 .4997-.2233.4997-.4997 0-.2763-.2233-.4996-.4997-.4996zm-19.1897-1.9787h-1.2946v-1.2946zm3.4832-24.90191c.067-.08744.1564-.101431.2069-.101431.0085 0 .015.0005.021.001.0514.004001.1449.026481.1998.129411.3298.61909.6236 1.5015.8854 2.54431l-4.4925 2.60526c1.2777-2.5488 2.5229-4.32012 3.1794-5.17855zm-3.93136 6.77099 5.48136-3.17888c.0984.46119.1914.94437.2798 1.44354l-6.47469 3.45319c.23235-.5991.47119-1.17322.71353-1.71785zm-1.22269 3.10492c.03798-.0095.07545-.0235.11193-.0425l7.04382-3.75696c.0774.49367.1509.99684.2198 1.5055l-7.90719 3.95386c.16889-.5711.34677-1.1247.53164-1.6599zm-.8929 2.958 8.40535-4.20266c.074.59956.142 1.19966.2054 1.79326-.02.0065-.0405.0055-.06.015l-8.98346 4.2557c.13141-.6381.27631-1.2582.43271-1.8613zm-.65606 3.0375c.04746-.007.09493-.0105.1404-.032l9.23231-4.3731c.052.5332.1005 1.0563.1439 1.5615l-9.79143 4.6624c.07795-.6201.17089-1.2257.27482-1.8188zm-.40074 2.9755c.01399-.005.02848-.003.04248-.0095l9.96337-4.7443c.0524.6621.0979 1.2791.1359 1.8358-.0145.0055-.03.005-.0445.012l-10.24315 5.1215c.02798-.7549.07695-1.4935.1459-2.2155zm.52166 2.999 9.68949-4.8447c.0495.8039.079 1.385.091 1.6354.0025.0459-.0135.0859-.044.1114-2.7067 2.2285-7.481 2.9001-9.73649 3.0979zm14.84559 5.0347h-17.37091c-.09644-.01-.18688-.023-.23884-.0375l-1.62442-1.482c2.1006.5401 2.11309.5401 2.17755.5401h16.98872c.1469 0 .2858.0645.3812.1764.0964.1139.1359.2593.1114.4102-.0315.1954-.2093.3478-.4247.3928z" fill="#f36b25"/></svg>