<svg width="30" height="30" viewBox="0 0 30 30" fill="none" xmlns="http://www.w3.org/2000/svg">
<path d="M10 6H14.5V2.5H10V6ZM11 3.5H13.5V5H11V3.5Z" fill="#F36B25"/>
<path d="M15.5 6H20V2.5H15.5V6ZM16.5 3.5H19V5H16.5V3.5Z" fill="#F36B25"/>
<path d="M23 8H28V4.5H23V8ZM24 5.5H27V7H24V5.5Z" fill="#F36B25"/>
<path d="M23 12.5H28V9H23V12.5ZM24 10H27V11.5H24V10Z" fill="#F36B25"/>
<path d="M7 4.5H2V8H7V4.5ZM6 7H3V5.5H6V7Z" fill="#F36B25"/>
<path d="M7 9H2V12.5H7V9ZM6 11.5H3V10H6V11.5Z" fill="#F36B25"/>
<path d="M10 10.5H14.5V7H10V10.5ZM11 8H13.5V9.5H11V8Z" fill="#F36B25"/>
<path d="M15.5 10.5H20V7H15.5V10.5ZM16.5 8H19V9.5H16.5V8Z" fill="#F36B25"/>
<path d="M10 15H14.5V11.5H10V15ZM11 12.5H13.5V14H11V12.5Z" fill="#F36B25"/>
<path d="M15.5 15H20V11.5H15.5V15ZM16.5 12.5H19V14H16.5V12.5Z" fill="#F36B25"/>
<path d="M22 1.5V0H8V1.5H0V19C0 21.312 1.7535 23.2205 4 23.4705V29.5C4 29.776 4.224 30 4.5 30C4.776 30 5 29.776 5 29.5V23.4705C6.2085 23.336 7.273 22.7215 8 21.822V24H6C5.724 24 5.5 24.224 5.5 24.5C5.5 24.776 5.724 25 6 25H8H8.5H11H11.89L11.0095 29.402C10.98 29.549 11.018 29.7015 11.113 29.817C11.2085 29.933 11.35 30 11.5 30H18.5C18.65 30 18.7915 29.933 18.8865 29.817C18.9815 29.7015 19.0195 29.549 18.99 29.402L18.11 25H19H21.5H22H24C24.276 25 24.5 24.776 24.5 24.5C24.5 24.224 24.276 24 24 24H22V21.822C22.727 22.7215 23.7915 23.336 25 23.4705V29.5C25 29.776 25.224 30 25.5 30C25.776 30 26 29.776 26 29.5V23.4705C28.2465 23.2205 30 21.312 30 19V1.5H22ZM1 16.1745V2.5H8V16.1745C7.9955 16.169 7.99 16.164 7.9855 16.1585C7.888 16.039 7.7845 15.924 7.6755 15.815C7.657 15.7965 7.636 15.7805 7.617 15.762C7.5245 15.673 7.4295 15.5865 7.3295 15.5055C7.287 15.471 7.242 15.44 7.198 15.407C7.1175 15.3465 7.0365 15.287 6.9525 15.232C6.901 15.1985 6.848 15.1675 6.795 15.136C6.7135 15.0875 6.6315 15.0405 6.547 14.997C6.49 14.968 6.4325 14.9405 6.374 14.9135C6.2885 14.874 6.2015 14.8375 6.1135 14.8035C6.0535 14.7805 5.994 14.758 5.9325 14.737C5.8405 14.706 5.7465 14.6795 5.6515 14.654C5.5915 14.638 5.5325 14.621 5.4715 14.6075C5.3665 14.584 5.259 14.5675 5.1515 14.5515C5.0985 14.544 5.047 14.533 4.9935 14.5275C4.831 14.5105 4.6665 14.5 4.5 14.5C4.3335 14.5 4.169 14.5105 4.007 14.5285C3.9535 14.5345 3.902 14.545 3.849 14.5525C3.741 14.568 3.634 14.585 3.529 14.6085C3.468 14.622 3.409 14.639 3.349 14.655C3.254 14.68 3.1605 14.7065 3.068 14.738C3.007 14.7585 2.947 14.781 2.887 14.8045C2.7985 14.8385 2.712 14.875 2.6265 14.9145C2.568 14.9415 2.5105 14.9685 2.4535 14.998C2.369 15.0415 2.2865 15.0885 2.2055 15.137C2.1525 15.1685 2.0995 15.1995 2.048 15.233C1.9635 15.288 1.8825 15.3475 1.8025 15.408C1.759 15.441 1.7135 15.472 1.671 15.5065C1.571 15.5875 1.476 15.674 1.3835 15.763C1.364 15.78 1.3435 15.796 1.325 15.815C1.2155 15.924 1.1125 16.039 1.015 16.1585C1.01 16.164 1.0045 16.169 1 16.1745ZM5 22.46V21.207L6.3535 19.8535C6.549 19.658 6.549 19.342 6.3535 19.1465C6.158 18.951 5.842 18.951 5.6465 19.1465L4.5 20.293L3.3535 19.1465C3.158 18.951 2.842 18.951 2.6465 19.1465C2.451 19.342 2.451 19.658 2.6465 19.8535L4 21.207V22.46C2.3065 22.216 1 20.7595 1 19C1 17.07 2.57 15.5 4.5 15.5C6.43 15.5 8 17.07 8 19C8 20.7595 6.6935 22.216 5 22.46ZM12.5 24H11.5V18H14.5V24H12.5ZM17.89 29H12.11L12.91 25H17.09L17.89 29ZM17.5 24H15.5V18H18.5V24H17.5ZM21 24H19.5V17.5C19.5 17.224 19.276 17 19 17H11C10.724 17 10.5 17.224 10.5 17.5V24H9V19V1.5V1H21V1.5V19V24ZM26 22.46V21.207L27.3535 19.8535C27.549 19.658 27.549 19.342 27.3535 19.1465C27.158 18.951 26.842 18.951 26.6465 19.1465L25.5 20.293L24.3535 19.1465C24.158 18.951 23.842 18.951 23.6465 19.1465C23.451 19.342 23.451 19.658 23.6465 19.8535L25 21.207V22.46C23.3065 22.216 22 20.7595 22 19C22 17.07 23.57 15.5 25.5 15.5C27.43 15.5 29 17.07 29 19C29 20.7595 27.6935 22.216 26 22.46ZM28.675 15.815C28.6565 15.7965 28.6355 15.7805 28.6165 15.762C28.524 15.673 28.429 15.5865 28.329 15.5055C28.2865 15.471 28.2415 15.44 28.1975 15.407C28.117 15.3465 28.036 15.287 27.952 15.232C27.9005 15.1985 27.8475 15.1675 27.7945 15.136C27.713 15.0875 27.631 15.0405 27.5465 14.997C27.4895 14.968 27.432 14.9405 27.3735 14.9135C27.288 14.874 27.201 14.8375 27.113 14.8035C27.053 14.7805 26.9935 14.758 26.932 14.737C26.84 14.706 26.746 14.6795 26.651 14.654C26.591 14.638 26.532 14.621 26.471 14.6075C26.366 14.584 26.2585 14.5675 26.151 14.5515C26.098 14.544 26.0465 14.533 25.993 14.5275C25.831 14.5105 25.6665 14.5 25.5 14.5C25.3335 14.5 25.169 14.5105 25.007 14.5285C24.9535 14.5345 24.902 14.545 24.849 14.5525C24.741 14.568 24.634 14.585 24.529 14.6085C24.468 14.622 24.409 14.639 24.349 14.655C24.254 14.68 24.1605 14.7065 24.068 14.738C24.007 14.7585 23.947 14.781 23.887 14.8045C23.7985 14.8385 23.712 14.875 23.6265 14.9145C23.568 14.9415 23.5105 14.9685 23.4535 14.998C23.369 15.0415 23.2865 15.0885 23.2055 15.137C23.1525 15.1685 23.0995 15.1995 23.048 15.233C22.9635 15.288 22.8825 15.3475 22.8025 15.408C22.759 15.441 22.7135 15.472 22.671 15.5065C22.571 15.5875 22.476 15.674 22.3835 15.763C22.3645 15.781 22.344 15.7975 22.325 15.816C22.2155 15.925 22.1125 16.04 22.015 16.1595C22.0105 16.165 22.005 16.17 22.0005 16.1755V2.5H29.0005V16.1745C28.996 16.169 28.9905 16.164 28.986 16.1585C28.8875 16.0385 28.7845 15.9235 28.675 15.815Z" fill="#F36B25"/>
<path d="M3 24H0.5C0.224 24 0 24.224 0 24.5C0 24.776 0.224 25 0.5 25H3C3.276 25 3.5 24.776 3.5 24.5C3.5 24.224 3.276 24 3 24Z" fill="#F36B25"/>
<path d="M29.5 24H27C26.724 24 26.5 24.224 26.5 24.5C26.5 24.776 26.724 25 27 25H29.5C29.776 25 30 24.776 30 24.5C30 24.224 29.776 24 29.5 24Z" fill="#F36B25"/>
</svg>
