<svg width="19" height="30" viewBox="0 0 19 30" fill="none" xmlns="http://www.w3.org/2000/svg">
<path d="M9.4885 0C4.25648 0 0 4.25648 0 9.4885C0 14.29 3.53807 19.8553 6.53947 23.7123L7.01461 26.5629V28.5282C7.01461 29.3398 7.67484 30 8.48643 30H10.4906C11.3022 30 11.9624 29.3398 11.9624 28.5282V26.5629L12.4376 23.7123C15.439 19.8553 18.9771 14.29 18.9771 9.4885C18.977 4.25648 14.7205 0 9.4885 0ZM18.0376 9.4885C18.0376 10.7122 17.5664 11.524 17.2547 11.524C16.943 11.524 16.4718 10.7122 16.4718 9.4885C16.4718 6.9815 15.7627 4.61906 14.4751 2.83617C14.3188 2.61979 14.1561 2.41535 13.9878 2.22234C16.4167 3.73189 18.0376 6.42428 18.0376 9.4885ZM9.4885 0.939434C9.85102 0.939434 10.4473 1.76865 10.9 3.58928C10.9626 3.84105 11.2175 3.99451 11.4691 3.93182C11.7209 3.86918 11.8743 3.61441 11.8117 3.36264C11.5922 2.47969 11.3313 1.7642 11.0347 1.22344C13.6206 2.19217 15.5323 5.53031 15.5323 9.48855C15.5323 10.6109 14.844 11.524 13.9979 11.524C13.1518 11.524 12.4634 10.6109 12.4634 9.48855C12.4634 9.14965 12.4582 8.8077 12.4479 8.47213C12.4399 8.21285 12.2239 8.00965 11.964 8.01697C11.7047 8.02494 11.5009 8.24156 11.5088 8.5009C11.5188 8.82691 11.5239 9.15914 11.5239 9.4885C11.5239 10.6109 10.6108 11.524 9.48844 11.524C8.36607 11.524 7.45301 10.6109 7.45301 9.4885C7.45301 7.12072 7.70748 4.90061 8.16961 3.23695C8.6734 1.42336 9.23566 0.939434 9.4885 0.939434ZM11.457 11.7163C11.2321 15.6633 10.4787 19.8912 9.80502 23.048H9.17197C8.49826 19.8912 7.74492 15.6633 7.52004 11.7163C8.04498 12.1808 8.73422 12.4635 9.4885 12.4635C10.2428 12.4635 10.932 12.1808 11.457 11.7163ZM7.93588 1.22596C7.68703 1.68498 7.46285 2.27145 7.26445 2.98559C6.78018 4.72881 6.51352 7.03828 6.51352 9.48855C6.51352 10.6109 5.82516 11.524 4.97906 11.524C4.13297 11.524 3.44461 10.6109 3.44461 9.48855C3.44467 5.53359 5.35324 2.19785 7.93588 1.22596ZM4.98926 2.2224C4.82098 2.41547 4.6582 2.6199 4.50193 2.83623C3.21434 4.61906 2.50523 6.98156 2.50523 9.48855C2.50523 10.7122 2.03408 11.524 1.72236 11.524C1.41064 11.524 0.939492 10.7122 0.939492 9.48855C0.939433 6.42428 2.56025 3.73189 4.98926 2.2224ZM4.50562 15.3577C4.42594 15.1107 4.16121 14.9752 3.91436 15.0549C3.66744 15.1346 3.53191 15.3993 3.6116 15.6462C4.21201 17.5069 5.04404 19.486 6.09252 21.552C3.30164 17.6872 1.94848 14.6689 1.35199 12.3996C1.47059 12.4412 1.59439 12.4634 1.7223 12.4634C2.09537 12.4634 2.43346 12.2783 2.70949 11.9563C2.79305 12.4904 2.90191 13.0402 3.03615 13.6037C3.09627 13.8561 3.34963 14.0119 3.60193 13.9518C3.8543 13.8917 4.01016 13.6383 3.95004 13.386C3.83818 12.9165 3.7452 12.458 3.6702 12.0113C4.05012 12.2973 4.49865 12.4634 4.97906 12.4634C5.58973 12.4634 6.14906 12.1953 6.58102 11.7527C6.80391 15.6837 7.54061 19.8746 8.21168 23.0479H7.95416C6.43389 20.3254 5.27408 17.7391 4.50562 15.3577ZM7.53779 23.9875H9.01875V26.0542H7.88227L7.53779 23.9875ZM11.0229 28.5282C11.0229 28.8217 10.7841 29.0606 10.4906 29.0606H8.48637C8.19281 29.0606 7.95398 28.8217 7.95398 28.5282V26.9937H11.0229V28.5282H11.0229ZM11.0947 26.0543H9.95824V23.9875H11.4392L11.0947 26.0543ZM11.0228 23.048H10.7653C11.4364 19.8748 12.1731 15.6838 12.396 11.7528C12.8279 12.1954 13.3873 12.4635 13.9979 12.4635C14.479 12.4635 14.9282 12.2969 15.3086 12.01C14.6633 15.8736 12.7328 19.9852 11.0228 23.048ZM12.8836 21.5534C14.344 18.6745 15.7546 15.2371 16.268 11.9569C16.5439 12.2787 16.8818 12.4635 17.2547 12.4635C17.3827 12.4635 17.5063 12.4413 17.625 12.3997C17.0285 14.6692 15.6751 17.6879 12.8836 21.5534Z" fill="#F36B25"/>
</svg>
