<svg width="10" height="11" viewBox="0 0 10 11" fill="none" xmlns="http://www.w3.org/2000/svg">
<path d="M1.14701 9.77444L0.815395 10.1242C0.739595 10.2041 0.6133 10.2075 0.533367 10.1317C0.453423 10.0559 0.450054 9.92961 0.525876 9.84965L0.857493 9.49991C0.874334 9.48213 0.893675 9.46816 0.914458 9.45798C0.987151 9.42238 1.07735 9.43346 1.13952 9.49242C1.21947 9.56822 1.22284 9.69449 1.14701 9.77444ZM1.73314 9.72C1.70359 9.72078 1.67573 9.72796 1.6508 9.74017C1.58286 9.77345 1.53689 9.84416 1.53906 9.92474L1.55192 10.4066C1.55485 10.5167 1.64651 10.6036 1.75665 10.6007C1.86677 10.5977 1.95367 10.506 1.95075 10.3959L1.93789 9.9141C1.93493 9.80398 1.84329 9.71705 1.73314 9.72ZM3.59604 9.34758C4.19256 9.44878 4.80793 9.49632 5.43523 9.48943L5.37773 7.52383C5.3745 7.41373 5.46117 7.32179 5.57131 7.31858C5.68141 7.31536 5.77333 7.40201 5.77654 7.51214L5.83406 9.47771C6.4599 9.44783 7.07346 9.36372 7.66178 9.22837C6.84786 8.19929 6.18115 7.00828 6.00523 6.25165C5.98027 6.14434 6.04687 6.03722 6.15437 6.01214C6.26169 5.9872 6.3689 6.05398 6.39385 6.16127C6.56574 6.9006 7.25569 8.10341 8.08687 9.12043C8.56174 8.98828 9.01715 8.82178 9.44611 8.62253L9.44387 8.54555C8.76974 8.18625 7.92375 7.33423 7.15354 6.23356C6.58877 5.42648 5.98981 4.35792 5.89764 3.64385C5.89361 3.64358 5.88964 3.6433 5.88562 3.64302L5.88148 3.64274C5.74291 3.63342 5.60297 3.63077 5.46356 3.63485C5.31835 3.63914 5.17321 3.6507 5.03016 3.66931C4.99446 4.15234 4.73397 4.87281 4.29548 5.69055C3.80761 6.60039 3.18788 7.47391 2.59524 8.08714C2.51863 8.16646 2.39236 8.16852 2.31316 8.09197C2.23395 8.01539 2.23177 7.88912 2.30836 7.80987C2.86815 7.23061 3.47957 6.36785 3.94385 5.50197C4.40139 4.64869 4.65936 3.90407 4.63388 3.51009C4.6273 3.40816 4.69875 3.31774 4.79948 3.30056C4.80456 3.29971 4.80963 3.29883 4.81472 3.29798L4.73749 0.657349C4.7325 0.486832 4.7942 0.32458 4.91126 0.200465C4.96481 0.143692 5.02703 0.0979971 5.09507 0.0646738C5.17578 0.025142 5.26475 0.00297581 5.35728 0.000277054C5.70921 -0.0100202 6.00396 0.268006 6.01433 0.620017L6.09148 3.26063C6.09661 3.26117 6.10173 3.26172 6.10685 3.26229C6.20837 3.27352 6.285 3.35963 6.28439 3.46178C6.28144 3.95629 6.76206 4.97827 7.48042 6.00482C8.24375 7.09569 9.10333 7.95194 9.72366 8.23944C9.79224 8.27124 9.83699 8.33906 9.83919 8.41465L9.84868 8.74118C9.85101 8.81948 9.80732 8.89178 9.73707 8.92619C9.21697 9.17782 8.65739 9.3829 8.07214 9.53783C8.06809 9.53903 8.064 9.54009 8.05991 9.54104C7.29178 9.7433 6.47826 9.85987 5.64712 9.88421L5.64566 9.88424C4.62321 9.91406 3.62816 9.80524 2.68814 9.56087C2.58152 9.53316 2.51756 9.42423 2.54528 9.31761C2.573 9.21098 2.68193 9.14699 2.78855 9.17474C2.91319 9.20716 3.03883 9.23708 3.16547 9.26452C3.93585 8.20059 4.55425 6.95955 4.68259 6.21145C4.70123 6.10284 4.8043 6.02994 4.91296 6.04855C5.02155 6.06718 5.09447 6.17032 5.07585 6.2789C4.94448 7.04451 4.34847 8.27264 3.59604 9.34758ZM5.61553 0.631748C5.61164 0.499649 5.50104 0.39527 5.36895 0.399127C5.30497 0.400978 5.24552 0.427681 5.20155 0.474261C5.15763 0.520819 5.13446 0.581733 5.13633 0.645707L5.21249 3.24919C5.29209 3.24282 5.37197 3.23844 5.45186 3.23607C5.53171 3.23372 5.61175 3.23342 5.69163 3.23511L5.61553 0.631748ZM1.68906 8.05925C1.79917 8.05633 1.88612 7.96468 1.88321 7.85453L1.87043 7.3727C1.86752 7.26256 1.77585 7.17564 1.66571 7.17855C1.63616 7.17934 1.60827 7.1865 1.58334 7.19871C1.51539 7.23199 1.46944 7.30268 1.47159 7.38326L1.48436 7.86509C1.48726 7.97527 1.57892 8.06216 1.68906 8.05925ZM0.204781 9.12923L0.686648 9.1164C0.79678 9.11341 0.883717 9.0218 0.88076 8.91167C0.877816 8.80152 0.786163 8.71463 0.676021 8.71754L0.194154 8.73036C0.164605 8.73115 0.136743 8.73832 0.111817 8.75053C0.0438718 8.78381 -0.00209851 8.85453 7.38195e-05 8.9351C0.00299616 9.04527 0.0946597 9.13218 0.204781 9.12923ZM0.826278 8.32559C0.906233 8.40141 1.03248 8.39806 1.10831 8.3181C1.18413 8.23815 1.18077 8.1119 1.10081 8.03607L0.751083 7.70442C0.688912 7.64546 0.598714 7.63438 0.52602 7.66999C0.505238 7.68017 0.485896 7.69414 0.469055 7.71191C0.393232 7.79187 0.396592 7.91812 0.476547 7.99394L0.826278 8.32559ZM1.22219 8.42595C1.27842 8.36665 1.34366 8.31889 1.41492 8.28399C1.5006 8.24202 1.59504 8.21862 1.69325 8.216C1.87317 8.21121 2.04419 8.2768 2.1748 8.40067C2.30545 8.5245 2.38001 8.69179 2.38481 8.87173C2.38959 9.05168 2.324 9.2227 2.20013 9.35332C2.07629 9.48395 1.909 9.5585 1.72905 9.56328C1.5491 9.56806 1.3781 9.50246 1.24746 9.3786C1.11682 9.25474 1.04227 9.08744 1.0375 8.90752C1.03273 8.72759 1.09832 8.55657 1.22219 8.42595ZM1.43633 8.89693C1.43826 8.97032 1.46868 9.03856 1.52198 9.08909C1.57525 9.13964 1.64502 9.16638 1.71843 9.16444C1.75848 9.16337 1.79703 9.15382 1.83197 9.13671C1.86106 9.12246 1.88767 9.10298 1.91061 9.07878C1.96115 9.02551 1.9879 8.95574 1.98595 8.88236C1.98402 8.80897 1.95356 8.74073 1.90029 8.69018C1.84698 8.63962 1.77723 8.61287 1.70386 8.61482C1.63046 8.61678 1.56223 8.64717 1.51169 8.7005C1.46116 8.7538 1.43438 8.82356 1.43633 8.89693Z" fill="#A3A3A3"/>
</svg>
