<svg viewBox="0 0 100 100" xmlns="http://www.w3.org/2000/svg"><path d="m33.32 37.35a1 1 0 1 1 -1 1 1 1 0 0 1 1-1z" fill="#5c5c5c"/><path d="m50.11 37.35a1 1 0 1 1 -1 1 1.15 1.15 0 0 1 1-1z" fill="#5c5c5c"/><path d="m50.11 41.17a1 1 0 0 1 0 2 1 1 0 0 1 -1-1 1.15 1.15 0 0 1 1-1z" fill="#5c5c5c"/><path d="m50.11 44.88h.22a.94.94 0 0 1 .87.87v.25a.94.94 0 0 1 -.87.87h-.22a.94.94 0 0 1 -.87-.87v-.22a.79.79 0 0 1 .87-.9z" fill="#5c5c5c"/><path d="m66.9 37.35a1 1 0 1 1 -1 1 1 1 0 0 1 1-1z" fill="#5c5c5c"/><path d="m66.9 41a1 1 0 1 1 0 2 1 1 0 1 1 0-2z" fill="#5c5c5c"/><path d="m33.32 41a1 1 0 0 1 0 2 1 1 0 0 1 0-2z" fill="#5c5c5c"/><path d="m51.16 21.49a.43.43 0 0 1 -.17-.13c-.11 0-.22 0-.34 0a4.84 4.84 0 0 0 -4.9 4.9 4.92 4.92 0 0 0 4.8 4.91h.1a4.9 4.9 0 0 0 .92-9.72.4.4 0 0 1 -.41.04z" fill="none"/><path d="m56.65 26.23a6 6 0 0 1 -1.5 4c1.44.88 2.75 1.21 4.22.26a2.76 2.76 0 0 0 1.33-2 1.5 1.5 0 0 1 -1.25 0c-.92-.46-1.25-1.83-1.25-2.87v-.64c-.08-2-.19-4.74-2-5.53a3.48 3.48 0 0 0 -4 1 5.9 5.9 0 0 1 4.45 5.78z" fill="none"/><path d="m70.46 21.37c-.14 0-.26 0-.4 0a4.85 4.85 0 0 0 -4.91 4.9 4.92 4.92 0 0 0 4.85 4.87h.11a4.91 4.91 0 0 0 1.89-9.44 4 4 0 0 1 -1.26.83 3 3 0 0 1 -.28-1.16z" fill="none"/><path d="m32.37 21.32h-1.23a5 5 0 0 0 -3.43 8.49 4.55 4.55 0 0 0 3.41 1.32h.08a4.94 4.94 0 1 0 1.17-9.82zm-1.37 6.77c-2 2-3.71-.33-3.27 0s1.09.43 1.42-.66 2-.32 2-.32 1.63-.77 2 .32 1 1 1.42.66-1.36 2.07-3.57 0z" fill="none"/><path d="m34.52 28.09c-.44.32-1.09.43-1.42-.66s-2-.32-2-.32-1.64-.77-2 .32-1 1-1.42.66 1.31 2 3.27 0c2.26 2.07 4.05-.33 3.57 0z" fill="#5c5c5c"/><path d="m61.29 27.39a.4.4 0 0 0 -.41 0c-.44.33-.8.42-1.07.29a2.6 2.6 0 0 1 -.81-2.12v-.65c-.08-2.1-.21-5.26-2.52-6.25a4.29 4.29 0 0 0 -5.2 1.64 5.28 5.28 0 0 1 .9.15 3.48 3.48 0 0 1 4-1c1.83.79 1.94 3.53 2 5.53v.64c0 1 .33 2.41 1.25 2.87a1.5 1.5 0 0 0 1.25 0 2.76 2.76 0 0 1 -1.33 2c-1.47 1-2.78.62-4.22-.26a5.58 5.58 0 0 1 -.61.58 5.79 5.79 0 0 0 3 1.07 4 4 0 0 0 2.22-.7 3.61 3.61 0 0 0 1.73-3.44.42.42 0 0 0 -.18-.35z" fill="#5c5c5c"/><path d="m51.16 21.49a.4.4 0 0 0 .41-.07 3.68 3.68 0 0 0 -.58-.06.43.43 0 0 0 .17.13z" fill="#5c5c5c"/><path d="m32.45 20.24h-1.31a6 6 0 0 0 -6 6.1 5.86 5.86 0 0 0 1.86 4.27 5.72 5.72 0 0 0 4.17 1.62h.64a6 6 0 0 0 .69-12zm4.25 6.57a5 5 0 0 1 -5.5 4.33h-.08a4.55 4.55 0 0 1 -3.41-1.32 5 5 0 0 1 3.43-8.49h1.23a5 5 0 0 1 4.33 5.48z" fill="#5c5c5c"/><path d="m54.13 30a.41.41 0 0 1 .57-.11l.45.28a6 6 0 0 0 1.5-4 5.9 5.9 0 0 0 -4.48-5.78 3.1 3.1 0 0 0 -.48.81.61.61 0 0 1 -.12.16 4.9 4.9 0 0 1 -.92 9.72h-.1a4.92 4.92 0 0 1 -4.8-4.91 4.84 4.84 0 0 1 4.9-4.9h.34a.41.41 0 0 1 -.06-.4 3.74 3.74 0 0 1 .34-.66 6.2 6.2 0 0 0 -.62-.06 5.92 5.92 0 0 0 -6 6 6 6 0 0 0 5.89 6h.1a5.93 5.93 0 0 0 3.89-1.44l-.3-.18a.41.41 0 0 1 -.1-.53z" fill="#5c5c5c"/><path d="m55.15 30.21-.45-.28a.41.41 0 1 0 -.46.68l.3.18a5.58 5.58 0 0 0 .61-.58z" fill="#5c5c5c"/><path d="m51 21.36a3.68 3.68 0 0 1 .58.06.61.61 0 0 0 .12-.16 3.1 3.1 0 0 1 .48-.81 5.28 5.28 0 0 0 -.9-.15 3.74 3.74 0 0 0 -.34.66.41.41 0 0 0 .06.4z" fill="#5c5c5c"/><path d="m73.64 21.42a5 5 0 0 0 -1.07-1 2.76 2.76 0 0 0 -.87-2 4.88 4.88 0 0 1 -.55.66 2.88 2.88 0 0 0 -1.31-1s-.11.43-.22 1a2.56 2.56 0 0 0 -2.5-.22l.54.65a2.74 2.74 0 0 0 -2 .87 4.4 4.4 0 0 0 1 .55 4.27 4.27 0 0 0 -.56.71 5.94 5.94 0 0 0 -2.06 4.52 6 6 0 0 0 5.89 6h.11a6 6 0 0 0 3.58-10.81zm-3.58 9.72h-.06a4.92 4.92 0 0 1 -4.8-4.91 4.85 4.85 0 0 1 4.91-4.9h.4a3 3 0 0 0 .25 1.16 4 4 0 0 0 1.24-.79 4.91 4.91 0 0 1 -1.91 9.44z" fill="#5c5c5c"/><g fill="none"><path d="m59.81 57v-13.21a.24.24 0 0 0 -.22-.22 2.42 2.42 0 0 0 -2.39 2.43v11a.52.52 0 0 1 -.55.54h-.44v23a.23.23 0 0 0 .22.21h4.36v-23.12h-.43a.62.62 0 0 1 -.55-.63z"/><path d="m55.78 53.92h-11.45a.24.24 0 0 0 -.22.22v2.18a.24.24 0 0 0 .22.22h11.67v-2.4a.24.24 0 0 0 -.22-.22z"/><path d="m54.91 57.63h-9.71a.24.24 0 0 0 -.22.22v22.79a.24.24 0 0 0 .22.21h4.15a.23.23 0 0 0 .21-.21v-20.39h1.09v20.39a.24.24 0 0 0 .22.21h4a.23.23 0 0 0 .21-.21v-22.79a.23.23 0 0 0 -.17-.22z"/><path d="m43 57v-11a2.42 2.42 0 0 0 -2.4-2.4.24.24 0 0 0 -.21.22v13.18a.52.52 0 0 1 -.55.54h-.44v23a.23.23 0 0 0 .22.21h4.38v-23.12h-.43a.61.61 0 0 1 -.57-.63z"/><path d="m55.78 53.92h-11.45a.24.24 0 0 0 -.22.22v2.18a.24.24 0 0 0 .22.22h11.67v-2.4a.24.24 0 0 0 -.22-.22z"/><path d="m59.81 57v-13.21a.24.24 0 0 0 -.22-.22 2.42 2.42 0 0 0 -2.39 2.43v11a.52.52 0 0 1 -.55.54h-.44v23a.23.23 0 0 0 .22.21h4.36v-23.12h-.43a.62.62 0 0 1 -.55-.63z"/><path d="m43 57v-11a2.42 2.42 0 0 0 -2.4-2.4.24.24 0 0 0 -.21.22v13.18a.52.52 0 0 1 -.55.54h-.44v23a.23.23 0 0 0 .22.21h4.38v-23.12h-.43a.61.61 0 0 1 -.57-.63z"/><path d="m54.91 57.63h-9.71a.24.24 0 0 0 -.22.22v22.79a.24.24 0 0 0 .22.21h4.15a.23.23 0 0 0 .21-.21v-20.39h1.09v20.39a.24.24 0 0 0 .22.21h4a.23.23 0 0 0 .21-.21v-22.79a.23.23 0 0 0 -.17-.22z"/><path d="m54.91 57.63h-9.71a.24.24 0 0 0 -.22.22v22.79a.24.24 0 0 0 .22.21h4.15a.23.23 0 0 0 .21-.21v-20.39h1.09v20.39a.24.24 0 0 0 .22.21h4a.23.23 0 0 0 .21-.21v-22.79a.23.23 0 0 0 -.17-.22z"/><path d="m55.78 53.92h-11.45a.24.24 0 0 0 -.22.22v2.18a.24.24 0 0 0 .22.22h11.67v-2.4a.24.24 0 0 0 -.22-.22z"/><path d="m43 57v-11a2.42 2.42 0 0 0 -2.4-2.4.24.24 0 0 0 -.21.22v13.18a.52.52 0 0 1 -.55.54h-.44v23a.23.23 0 0 0 .22.21h4.38v-23.12h-.43a.61.61 0 0 1 -.57-.63z"/><path d="m59.81 57v-13.21a.24.24 0 0 0 -.22-.22 2.42 2.42 0 0 0 -2.39 2.43v11a.52.52 0 0 1 -.55.54h-.44v23a.23.23 0 0 0 .22.21h4.36v-23.12h-.43a.62.62 0 0 1 -.55-.63z"/></g><path d="m78.46 80.74h-5.24a.23.23 0 0 1 -.22-.21v-18.43a.5.5 0 0 0 -.54-.54.51.51 0 0 0 -.55.54v18.43a.23.23 0 0 1 -.21.21h-4.15a.23.23 0 0 1 -.22-.21v-20.28a.51.51 0 0 0 -.54-.55.52.52 0 0 0 -.55.55v20.39a.23.23 0 0 1 -.21.21h-4.15a.23.23 0 0 1 -.21-.21v-22.79a.23.23 0 0 1 .21-.22h9.92v1.31a.82.82 0 0 0 .77.54h4.69a.69.69 0 0 0 .65-.54v-20.39a4.42 4.42 0 0 0 -4.47-4.47h-46.55a4.49 4.49 0 0 0 -4.47 4.47v20.39a.69.69 0 0 0 .54.65h4.8a.68.68 0 0 0 .65-.54v-1.31h9.92a.24.24 0 0 1 .22.22v22.78a.24.24 0 0 1 -.22.22h-4.14a.24.24 0 0 1 -.22-.22v-20.49a.51.51 0 0 0 -.54-.55.52.52 0 0 0 -.55.55v20.39a.23.23 0 0 1 -.21.21h-4.15a.24.24 0 0 1 -.22-.21v-18.54a.5.5 0 0 0 -.54-.54.51.51 0 0 0 -.55.54v18.43a.22.22 0 0 1 -.21.21h-5.46a.52.52 0 0 0 -.54.55.51.51 0 0 0 .54.54h56.92a.51.51 0 0 0 .54-.54.71.71 0 0 0 -.54-.55zm-34.46 0h-4.36a.23.23 0 0 1 -.22-.21v-22.9h.44a.52.52 0 0 0 .55-.54v-13.3a.24.24 0 0 1 .21-.22 2.42 2.42 0 0 1 2.38 2.43v11a.7.7 0 0 0 .55.65h.45zm11.12-.1a.23.23 0 0 1 -.21.21h-4.15a.24.24 0 0 1 -.22-.21v-20.39a.54.54 0 1 0 -1.08 0v20.39a.24.24 0 0 1 -.22.21h-4.15a.23.23 0 0 1 -.21-.21v-22.79a.23.23 0 0 1 .21-.22h9.82a.23.23 0 0 1 .21.22zm.88-24.1h-11.67a.24.24 0 0 1 -.22-.22v-2.18a.24.24 0 0 1 .22-.22h11.56a.24.24 0 0 1 .22.22zm4.79 24.2h-4.36a.23.23 0 0 1 -.22-.21v-22.9h.44a.52.52 0 0 0 .55-.54v-11.09a2.42 2.42 0 0 1 2.39-2.4.24.24 0 0 1 .22.22v13.18a.52.52 0 0 0 .55.54h.43zm.11-24.53v-14.21a3.3 3.3 0 0 0 -2.83-3.27h-.22a.55.55 0 1 0 0 1.09 2.43 2.43 0 0 1 2 2.18v.44h-.43a3.51 3.51 0 0 0 -3.53 3.56v6.65a.23.23 0 0 1 -.22.21h-11.34a.23.23 0 0 1 -.22-.21v-6.57a3.62 3.62 0 0 0 -3.59-3.6h-.22v-.48a2.32 2.32 0 0 1 2-2.18v-.11a.54.54 0 0 0 .54-.54.55.55 0 0 0 -.54-.55.53.53 0 0 0 -.41.2 3.48 3.48 0 0 0 -2.68 3.18v14.32a.24.24 0 0 1 -.22.22h-10.58a.23.23 0 0 1 -.21-.22v-2.18a.23.23 0 0 1 .21-.22h8.51a.51.51 0 0 0 .54-.54.69.69 0 0 0 -.65-.65h-8.51a.24.24 0 0 1 -.21-.22v-10.69a.52.52 0 0 0 -.55-.54.51.51 0 0 0 -.54.54v16.36a.23.23 0 0 1 -.22.21h-3.05a.23.23 0 0 1 -.22-.21v-19.85a3.33 3.33 0 0 1 3.16-3.27h46.77a3.28 3.28 0 0 1 3.27 3.27v19.85a.23.23 0 0 1 -.22.21h-3a.23.23 0 0 1 -.22-.21v-16.36a.55.55 0 0 0 -1.09 0v10.69a.24.24 0 0 1 -.22.22h-9.2a.51.51 0 0 0 -.55.54.52.52 0 0 0 .55.55h9a.23.23 0 0 1 .24.18v2.18c0 .11-.11.22-.32.22h-10.56a.24.24 0 0 1 -.22-.19z" fill="#5c5c5c"/></svg>