<svg fill="none" height="25" viewBox="0 0 30 25" width="30" xmlns="http://www.w3.org/2000/svg"><path d="m2.01855 24.4999h13.99995c.675 0 1.3105-.187 1.8375-.541l8.5604-8.547c.376-.3765.5835-.8785.5835-1.414 0-.535-.2075-1.0374-.584-1.4139s-.8789-.584-1.4139-.584c-.5355 0-1.0375.2075-1.414.584l-6.6085 6.6084 6.3335-12.46542c.0055-.0115.005-.0235.0095-.035.3115-.3545.859-.445 1.306-.186.2475.143.427.369.504.6365.0745.26049.0435.52949-.0885.75799-.0455.0785-.067.1645-.067.249 0 .173.0895.3415.25.434.2385.1375.5445.056.6829-.183.276-.477.91-.629 1.416-.337.514.297.7085.927.4325 1.4045-.138.2395-.056.54503.183.68303.0785.0455.1645.067.2495.067.173 0 .341-.0895.4335-.25004.0005-.0005.0005-.0015.001-.002.8955-1.55199 1.1115-3.33698.607-5.02548-.495-1.65749-1.633-3.06998-3.2035-3.976979-3.2774-1.891992-7.2714-.9024959-9.0944 2.252489-.0005.001-.0005.0015-.001.002-.138.2395-.056.545.183.683.2395.138.5445.0555.683-.183.2755-.478.918-.625 1.4325-.3275.248.143.427.369.504.6365.075.2605.044.5305-.0875.7585-.0455.0785-.067.16449-.067.24949 0 .173.0895.341.25.4335.2385.1375.5445.056.683-.183.276-.47749.9105-.62899 1.4165-.337.2475.143.4265.369.5035.6365.075.2605.044.53-.0875.758-.036.062-.053.129-.06.1965l-7.094 13.96042h-13.17445c-1.102999 0-1.9999953.897-1.9999953 2s.8969963 2 1.9999953 2zm20.41245-20.41841c-.5375-.31-1.1555-.3565-1.6955-.1775-.0105-.0515-.0235-.103-.038-.1545-.149-.5175-.492-.953-.965-1.226-.229-.13199-.4715-.21699-.7165-.25799 1.747-1.461998 4.3175-1.704997 6.514-.4365 2.1969 1.26849 3.2714 3.61548 2.8789 5.85997-.1575-.192-.353-.36-.582-.49199-.331-.191-.6925-.2815-1.047-.2815-.2215 0-.4405.035-.648.104-.0105-.0515-.0235-.103-.038-.1545-.1495-.517-.4915-.9525-.9649-1.2255-.538-.31-1.156-.3565-1.6955-.1775-.0105-.0515-.0235-.103-.038-.1545-.149-.51749-.4915-.95249-.9645-1.22599zm-20.41245 17.41841h14.06745l8.209-8.2089c.3745-.376 1.0375-.375 1.414 0 .1874.1879.2909.4389.2909.7069 0 .2685-.103.5195-.2909.707l-8.449 8.449c-.3545.2265-.7825.346-1.2415.346h-13.99995c-.5515 0-1-.4485-1-1s.4485-1 1-1z" fill="#f36b25"/></svg>