<svg height="782.9541" viewBox="0 0 1021.5 782.9541" width="1021.5" xmlns="http://www.w3.org/2000/svg"><ellipse cx="867" cy="757.4541" fill="#3f3d56" rx="154.5" ry="25.5"/><path d="m1086.92726 722.09273c-.30332 54.7845-32.9781 73.73034-73.15013 73.50793q-1.39969-.00775-2.78571-.04668-2.79235-.07572-5.52576-.28509c-36.2424-2.76785-64.30238-23.03216-64.0203-73.98162.29192-52.72638 68.0483-118.893 73.12939-123.78493.00441 0 .00441 0 .00891-.00442.193-.18644.29182-.27964.29182-.27964s72.35507 70.09439 72.05178 124.87445z" fill="#d57149" transform="translate(-89.25 -58.52295)"/><path d="m1011.176 787.206 26.81-37.02458-26.89962 41.10481-.095 4.26772q-2.79235-.07572-5.52576-.28509l3.1697-54.791-.01994-.42423.04949-.08012.30106-5.17736-26.50921-41.50315 26.61106 37.62393.0609 1.09866 2.39456-41.39673-22.65314-42.86142 22.9747 35.58578 2.73-85.84088.01046-.28566-.00155.28124-.74981 67.70287 22.9311-26.71479-23.06169 32.545-.808 37.07476 21.47949-35.46462-21.59447 40.91538-.449 20.61545 31.16-49.35875-31.32033 56.55042z" fill="#3f3d56" transform="translate(-89.25 -58.52295)"/><circle cx="852.45395" cy="198.3205" fill="#2f2e41" r="48.69502"/><circle cx="845.20616" cy="215.33198" fill="#ffb8b8" r="33.0677"/><path d="m914.79429 291.72936s14.29954 33.0677 7.14977 36.64259-10.72466 19.66187-10.72466 19.66187l18.76815 39.32376 25.91793 16.087h15.19327s15.19327-67.92285 9.83094-75.96634-25.02421-12.51211-25.02421-12.51211-4.46861-10.72466-2.68116-20.55559-38.43003-2.68118-38.43003-2.68118z" fill="#ffb8b8" transform="translate(-89.25 -58.52295)"/><path d="m893.345 385.57013-23.23679-18.76813s-42.00492-29.49281-36.64259-8.0435 29.49281 23.23677 29.49281 23.23677l40.21748 32.174z" fill="#ffb8b8" transform="translate(-89.25 -58.52295)"/><path d="m891.55752 483.87951s-10.72466 44.68608 0 105.45916l4.46861 24.13048s0 18.76815 4.46861 25.91793c0 0 11.61838 106.35287 17.87443 106.35287s25.91793-3.57489 27.70537-6.25605-34.85514-260.073-34.85514-260.073z" fill="#2f2e41" transform="translate(-89.25 -58.52295)"/><path d="m891.55752 483.87951s-10.72466 44.68608 0 105.45916l4.46861 24.13048s0 18.76815 4.46861 25.91793c0 0 11.61838 106.35287 17.87443 106.35287s25.91793-3.57489 27.70537-6.25605-34.85514-260.073-34.85514-260.073z" opacity=".1" transform="translate(-89.25 -58.52295)"/><path d="m920.90816 738.60224-13.84444 51.30584s-27.68887 16.28757-10.58692 19.54508 34.2039-3.25751 34.2039-3.25751l8.14378-23.617 8.14379-4.88627v25.24574h2.44313l5.70065-33.38952s-.81438-17.10195-5.70065-18.7307-7.3294-10.5869-7.3294-10.5869z" fill="#2f2e41" transform="translate(-89.25 -58.52295)"/><path d="m920.90816 738.60224-13.84444 51.30584s-27.68887 16.28757-10.58692 19.54508 34.2039-3.25751 34.2039-3.25751l8.14378-23.617 8.14379-4.88627v25.24574h2.44313l5.70065-33.38952s-.81438-17.10195-5.70065-18.7307-7.3294-10.5869-7.3294-10.5869z" opacity=".1" transform="translate(-89.25 -58.52295)"/><path d="m887.98264 482.09207s7.14977 26.81165 9.83094 31.28026c0 0 3.57488 75.96634 15.19326 101.88426l12.51211 33.0677s20.55559 97.41571 15.19326 108.14032c0 0 27.70537 6.256 29.49282 0 0 0-.89372-51.83585 1.78744-58.98563s7.14977-46.47352-14.29955-75.07261v-86.691s33.96143-28.59909 14.29955-65.24168-84.00983 11.61838-84.00983 11.61838z" fill="#2f2e41" transform="translate(-89.25 -58.52295)"/><path d="m943.39338 751.10228-15.19327 56.30446s-30.38653 17.87444-11.61838 21.44932 37.53631-3.57488 37.53631-3.57488l8.93721-25.91793 8.93722-5.36233v27.70537h2.68117l6.25605-36.64259s-.89372-18.76815-6.25605-20.55559-8.0435-11.61839-8.0435-11.61839z" fill="#2f2e41" transform="translate(-89.25 -58.52295)"/><path d="m923.88821 321.6974s-22.49975 12.9306-22.49975 13.82432 2.68117 15.19327 2.68117 15.19327-27.70537 27.70537-8.93722 51.83585c0 0 6.256 4.46861 6.256 18.76816v14.29954s-52.72957 33.06771-39.32375 43.79236 27.70537 8.93722 32.174 15.19327 30.38653-5.36233 35.74886-7.14977 6.25606-3.57489 10.72466 2.68116 29.49282-4.46856 29.49282-4.46856 16.087-4.46861 19.66187-4.46861a12.364 12.364 0 0 0 6.25606-1.78745l-38.43-39.32375 19.215-48.70783s-56.75132-35.302-56.75132-45.13294 3.7316-24.54902 3.7316-24.54902z" fill="#3f3d56" transform="translate(-89.25 -58.52295)"/><path d="m958.58665 323.90334s-11.61838 16.087-2.68117 38.43 23.23676 48.261 23.23676 48.261l-22.343 7.14977h-20.55563s-42.89864-7.14977-38.43 8.93722 34.85514 8.93721 34.85514 8.93721h17.87443s40.21748 4.46861 45.57981-2.68116c0 0 14.29954-.89372 8.04349-29.49281s-24.52189-77.55431-24.52189-77.55431z" fill="#ffb8b8" transform="translate(-89.25 -58.52295)"/><ellipse cx="838.77557" cy="184.64213" fill="#2f2e41" rx="31.1867" ry="15.86692"/><ellipse cx="877.827" cy="213.09768" fill="#ffb8b8" rx="4.46861" ry="9.83094"/><circle cx="874.25212" cy="155.00577" fill="#2f2e41" r="26.81165"/><circle cx="303" cy="166.9541" fill="#d57149" opacity=".3" r="110"/><circle cx="90" cy="472.9541" fill="#d57149" opacity=".3" r="65"/><circle cx="507" cy="472.9541" fill="#d57149" opacity=".3" r="133"/><g transform="translate(-89.25 -58.52295)"><path d="m155.37988 316.55957-1.95605-.417q.62841-2.94728 1.31006-5.875l1.94824.45361q-.67749 2.90992-1.30225 5.83839z" fill="#d57149"/><path d="m785.13672 300.03613c-1.02539-3.81054-2.13867-7.65869-3.30664-11.437l1.91015-.59082c1.17579 3.80176 2.2959 7.67383 3.32813 11.5083zm-625.53711-.874-1.92969-.52539c1.04688-3.8457 2.18164-7.72852 3.37305-11.54053l1.90918.59668c-1.18457 3.78856-2.31201 7.64695-3.35254 11.46922zm618.50879-21.85061c-1.30957-3.73437-2.70117-7.48486-4.13867-11.14648l1.86132-.73047c1.44629 3.68408 2.84766 7.458 4.16407 11.21582zm-611.38086-.95214-1.88574-.667c1.332-3.76269 2.75146-7.54834 4.21924-11.25244l1.85937.73633c-1.45898 3.68164-2.86963 7.44434-4.19287 11.18311zm602.69238-21.18311c-1.57422-3.61475-3.24023-7.25391-4.95117-10.81641l1.80273-.86621c1.72168 3.585 3.39844 7.24658 4.98243 10.88379zm-593.896-1.01709-1.83106-.80566c1.60547-3.64942 3.30029-7.31788 5.03858-10.90332l1.7998.87207c-1.72753 3.56347-3.4121 7.20947-5.00731 10.83691zm583.59424-20.42918c-1.84375-3.50049-3.77441-7.00879-5.73828-10.42725l1.73438-.99609c1.97558 3.43945 3.91894 6.96924 5.77344 10.4917zm-573.18216-1.04885-1.76661-.93847c1.87159-3.522 3.83252-7.0542 5.82862-10.49756l1.73047 1.00293c-1.98385 3.42236-3.93307 6.93261-5.79248 10.4331zm561.3247-19.58984c-2.09082-3.3501-4.27539-6.7085-6.49023-9.98242l1.65625-1.1211c2.22949 3.29444 4.42676 6.67383 6.53125 10.044zm-549.36133-1.0542-1.69238-1.06543c2.12158-3.36865 4.33594-6.74561 6.582-10.03662l1.65235 1.12695c-2.23234 3.27149-4.43353 6.62744-6.54193 9.9751zm536.01465-18.667c-2.32129-3.17578-4.74609-6.3667-7.207-9.4834l1.57031-1.23926c2.47559 3.13623 4.915 6.34668 7.252 9.542zm-522.56933-1.03418-1.60938-1.1875c2.3667-3.2085 4.82227-6.4126 7.29883-9.52344l1.56445 1.24512c-2.46089 3.09229-4.90132 6.27689-7.25386 9.46583zm507.80961-17.66405c-2.56055-3.01124-5.21289-6.01709-7.88379-8.93409l1.47461-1.35058c2.6875 2.93457 5.35644 5.959 7.93261 8.98877zm-492.96045-.99415-1.51856-1.30175c2.58887-3.019 5.27149-6.03418 7.97364-8.96143l1.46972 1.35645c-2.68554 2.90966-5.35205 5.90625-7.9248 8.90673zm476.86865-16.58105c-2.78027-2.82178-5.64648-5.62647-8.51953-8.33643l1.37305-1.45507c2.88964 2.727 5.77343 5.54882 8.57031 8.38818zm-460.69971-.93506-1.41894-1.40918c2.80859-2.82812 5.70361-5.63818 8.60449-8.35205l1.36621 1.46045c-2.8833 2.69727-5.76025 5.49023-8.55176 8.30078zm443.35889-15.42187c-2.97559-2.60889-6.04-5.19776-9.10742-7.69434l1.26172-1.55078c3.08691 2.51172 6.16992 5.11621 9.16406 7.74121zm-425.9585-.86133-1.3125-1.50928c3.00537-2.61279 6.09668-5.20312 9.18946-7.69922l1.25586 1.55664c-3.07325 2.48044-6.146 5.05518-9.13282 7.65186zm407.46436-14.18942c-3.15234-2.37988-6.39941-4.73779-9.64941-7.0083l1.14453-1.63964c3.27148 2.28466 6.53808 4.65722 9.71 7.05127zm-388.92627-.774-1.19824-1.60156c3.18945-2.38672 6.46142-4.74317 9.72461-7.00391l1.13867 1.64453c-3.24317 2.24614-6.49512 4.58842-9.66504 6.96094zm369.37451-12.88477c-3.32617-2.146-6.73926-4.26025-10.14258-6.28271l1.02149-1.71973c3.4248 2.03565 6.8584 4.1626 10.20508 6.32178zm-349.79785-.67675-1.07813-1.68448c3.35108-2.144 6.78565-4.25342 10.208-6.27l1.01563 1.72363c-3.40185 2.00383-6.81543 4.10051-10.1455 6.23089zm329.28516-11.51168c-3.46778-1.89258-7.02832-3.75-10.58106-5.52051l.89258-1.79c3.57422 1.78174 7.15723 3.65039 10.64648 5.55469zm-308.77442-.57227-.95117-1.75976c3.49609-1.88965 7.0752-3.74024 10.63672-5.49952l.88574 1.793c-3.54004 1.74851-7.09668 3.58786-10.57129 5.46628zm287.41211-10.07568c-3.60058-1.63184-7.28906-3.22071-10.96387-4.72364l.75684-1.85156c3.69775 1.51221 7.41016 3.11182 11.0332 4.75391zm-266.07715-.46143-.81884-1.82422c3.61914-1.624 7.32275-3.20507 11.00781-4.69824l.751 1.85352c-3.6626 1.48437-7.34329 3.05517-10.93997 4.66894zm243.97754-8.57763c-3.72656-1.36475-7.52539-2.67676-11.2915-3.89991l.61816-1.90234c3.78906 1.231 7.61133 2.55127 11.36084 3.92432zm-221.93554-.35254-.68165-1.87989c3.73438-1.355 7.54248-2.65673 11.31788-3.87011l.61181 1.90429c-3.75195 1.20557-7.53613 2.49951-11.24804 3.84571zm199.21289-7.02588c-3.80811-1.082-7.68506-2.106-11.523-3.04444l.47461-1.94238c3.86181.94385 7.76318 1.97461 11.59521 3.063zm-176.55176-.25537-.541-1.92579c3.82715-1.0747 7.731-2.09375 11.60352-3.0288l.46924 1.94433c-3.84866.9292-7.72852 1.9419-11.53176 3.01026zm153.40088-5.4043c-3.873-.7959-7.81494-1.53027-11.71631-2.18311l.33008-1.97265c3.92529.65674 7.8916 1.396 11.78857 2.19677zm-130.23438-.188-.39648-1.96c3.90429-.79053 7.87256-1.51807 11.79492-2.1626l.32422 1.97364c-3.89792.64018-7.84229 1.36333-11.72266 2.14897zm106.729-3.7456c-3.92969-.50928-7.915-.95118-11.84522-1.31495l.18408-1.99121c3.95459.36573 7.96436.81055 11.918 1.32276zm-83.21192-.11866-.25146-1.98437c3.94091-.49951 7.95215-.93311 11.92138-1.28906l.17871 1.99218c-3.9453.35353-7.93163.78468-11.84862 1.28126zm59.48047-2.07715c-3.94141-.22021-7.94824-.3706-11.90967-.44726l.03906-2c3.98487.07764 8.01661.229 11.98194.45019zm-35.74315-.05129-.10547-1.99708c3.97119-.21044 8.0039-.35009 11.98535-.416l.0332 2c-3.95752.06497-7.96533.20413-11.91308.41308z" fill="#d57149"/><path d="m789.35449 317.668q-.61523-2.93115-1.28125-5.84229l1.94922-.44726q.67236 2.92968 1.28906 5.87939z" fill="#d57149"/><path d="m792.05176 448.06885-1.96289-.3877q.57861-2.92968 1.10547-5.87842l1.96875.35059q-.52881 2.96778-1.11133 5.91553z" fill="#d57149"/><path d="m472.25049 710.47705q-3.26075 0-6.50586-.06348l.03906-2c3.95361.07715 7.93457.082 11.89258.01856l.03223 2q-2.72388.04395-5.45801.04492zm17.41551-.45605-.10547-1.998c3.95556-.208 7.9458-.49121 11.85986-.84082l.17773 1.99219c-3.93796.35151-7.95261.63663-11.93212.84663zm-35.875-.05762c-3.96973-.22168-7.9834-.51856-11.9292-.88281l.18359-1.99219c3.92236.3623 7.91162.6582 11.85693.87891zm59.70117-2.06934-.251-1.98437c3.93652-.49805 7.89551-1.07227 11.7666-1.707l.32324 1.97461c-3.89501.63766-7.87788 1.21481-11.83882 1.71672zm-83.521-.13281c-3.95166-.51269-7.9331-1.10254-11.834-1.75488l.33008-1.97266c3.87646.64746 7.83349 1.23438 11.76074 1.74317zm107.12842-3.7334-.39551-1.96094c3.88086-.7832 7.78662-1.64746 11.60889-2.56738l.46777 1.94531c-3.84568.92481-7.77586 1.79395-11.68113 2.58301zm-130.72363-.21c-3.90137-.80078-7.8291-1.68262-11.67285-2.62109l.4746-1.94336c3.81983.93262 7.72315 1.80957 11.60059 2.60547zm153.9834-5.38672-.53907-1.92578c3.79346-1.0625 7.625-2.21191 11.3877-3.418l.61035 1.9043c-3.78611 1.21394-7.64158 2.37116-11.45896 3.43952zm-177.2251-.28418c-3.82276-1.084-7.68457-2.25683-11.478-3.48633l.61621-1.90234c3.77051 1.22168 7.6084 2.3877 11.40772 3.46484zm199.978-7.0039-.68066-1.88086c3.6958-1.33692 7.42334-2.7627 11.07861-4.23926l.749 1.85449c-3.67816 1.48539-7.42864 2.92094-11.14691 4.26567zm-222.79345-.38965c-3.73828-1.36621-7.50049-2.82129-11.18262-4.3252l.75586-1.85156c3.65918 1.49414 7.39844 2.94043 11.11328 4.29785zm244.92431-8.54883-.8164-1.82617c3.59961-1.61035 7.21387-3.30762 10.74316-5.0459l.88281 1.79492c-3.55069 1.74809-7.18746 3.4561-10.80953 5.07719zm-267.11865-.50977c-3.624-1.63867-7.2666-3.36621-10.82666-5.13574l.89063-1.791c3.53759 1.75879 7.1582 3.47656 10.76025 5.10449zm288.54737-10.041-.94922-1.75977c3.47656-1.873 6.958-3.832 10.34765-5.82324l1.01367 1.72461c-3.41206 2.00296-6.91494 3.97462-10.41206 5.85843zm-310.002-.62695c-3.49414-1.9004-6.998-3.89161-10.415-5.917l1.02-1.7207c3.396 2.01367 6.87842 3.99219 10.35108 5.88086zm330.60742-11.47168-1.07519-1.68555c3.31152-2.11133 6.64062-4.32129 9.89648-6.56934l1.13672 1.64649c-3.27627 2.26077-6.62687 4.4844-9.95793 6.60843zm-351.21-.74024c-3.33984-2.14941-6.687-4.39062-9.94873-6.66308l1.14307-1.64063c3.24219 2.25781 6.56885 4.48535 9.88769 6.62207zm370.87989-12.83887-1.19532-1.60351c3.15528-2.35254 6.31641-4.80078 9.39453-7.27637l1.25391 1.5586c-3.09754 2.49124-6.2782 4.95413-9.453 7.32131zm-390.52442-.8457c-3.16748-2.38281-6.34082-4.8623-9.43115-7.37012l1.25976-1.55273c3.07178 2.49219 6.22559 4.95605 9.37354 7.32519zm409.15723-14.13965-1.3086-1.51172c2.98047-2.582 5.95508-5.25488 8.8418-7.94531l1.36328 1.46289c-2.9032 2.70706-5.89636 5.39652-8.89636 7.99417zm-427.74317-.9414c-2.99414-2.61621-5.977-5.32032-8.86523-8.03614l1.37012-1.457c2.8706 2.69922 5.835 5.38672 8.81152 7.98731zm445.24231-15.36716-1.416-1.41211c2.79492-2.80273 5.56738-5.68652 8.24121-8.57031l1.46679 1.35937c-2.69044 2.90235-5.48047 5.80371-8.292 8.62305zm-462.67236-1.02246c-2.78662-2.81836-5.56348-5.73145-8.25391-8.65821l1.47266-1.35351c2.67383 2.90918 5.43359 5.80371 8.20361 8.60547zm478.938-16.52344-1.51563-1.30469c2.58008-2.99609 5.13672-6.07519 7.59766-9.15332l1.5625 1.25c-2.47657 3.09571-5.04884 6.19434-7.64454 9.20801zm-495.12256-1.08789c-2.57471-3.0166-5.13086-6.12305-7.59766-9.23438l1.56738-1.24218c2.45166 3.09179 4.99219 6.17968 7.55176 9.17773zm510.07275-17.60449-1.60742-1.19141c2.36035-3.18457 4.68555-6.44336 6.91016-9.68555l1.64843 1.13086c-2.23731 3.2627-4.57618 6.54102-6.95118 9.7461zm-524.92431-1.13477c-2.3501-3.19726-4.67188-6.48144-6.90137-9.75976l1.6543-1.125c2.21533 3.25879 4.52294 6.52246 6.85839 9.70117zm538.46826-18.6084-1.68946-1.07031c2.11036-3.3291 4.19043-6.751 6.1836-10.16894l1.72851 1.00781c-2.00587 3.43945-4.09962 6.88183-6.22266 10.23144zm-551.90723-1.15625c-2.10742-3.35742-4.18213-6.80078-6.16553-10.23437l1.73145-1c1.97168 3.41211 4.03369 6.834 6.12842 10.17187zm563.97265-19.53222-1.76367-.94336c1.87011-3.49707 3.69335-7.06348 5.42089-10.60059l1.79688.87695c-1.73731 3.55958-3.57227 7.14844-5.4541 10.667zm-575.9233-1.15528c-1.856-3.5039-3.67139-7.08886-5.39551-10.65429l1.80078-.8711c1.71338 3.54395 3.51758 7.10645 5.36231 10.58985zm586.436-20.373-1.82812-.81055c1.59961-3.6084 3.15625-7.30273 4.626-10.97852l1.85743.74219c-1.47954 3.69918-3.04497 7.41595-4.65531 11.04684zm-596.83056-1.127c-1.59424-3.63183-3.14014-7.33886-4.59522-11.0166l1.85986-.73633c1.44581 3.65625 2.98243 7.33985 4.56641 10.94922zm605.729-21.13281-1.88281-.67383c1.333-3.72949 2.6123-7.53027 3.80371-11.2959l1.90625.60352c-1.19728 3.78809-2.48536 7.6123-3.82716 11.36621zm-614.50781-1.06055c-1.32324-3.74316-2.59473-7.5625-3.77832-11.35253l1.90918-.59571c1.17627 3.76563 2.43945 7.56153 3.75488 11.28223zm621.73729-21.80857-1.92773-.5332c1.04687-3.791 2.03906-7.666 2.94922-11.51758l1.94726.46094c-.91699 3.87498-1.91504 7.77439-2.96875 11.58984zm-628.87158-1.02637c-1.041-3.82519-2.02539-7.72265-2.92578-11.58593l1.94824-.45313c.89453 3.83887 1.87256 7.71289 2.90723 11.51367z" fill="#d57149"/><path d="m152.20654 446.82959q-.57129-2.9502-1.08984-5.91943l1.9707-.34375q.51417 2.95019 1.083 5.88232z" fill="#d57149"/><path d="m635.51465 448.9834-1.85938-.73535c.72559-1.835 1.43067-3.71338 2.09668-5.58448l1.88477.6709c-.67383 1.89258-1.38772 3.79297-2.12207 5.64893z" fill="#d57149"/><path d="m472.25 559.97705c-2.39551 0-4.813-.04883-7.18555-.14453l.08106-1.99805c3.936.15918 7.959.18653 11.90771.07715l.05469 2q-2.42139.06593-4.85791.06543zm16.87793-.80176-.18945-1.99023c3.93847-.375 7.91064-.89258 11.80713-1.53613l.32617 1.97265c-3.94141.65235-7.95996 1.17481-11.94385 1.55371zm-36.07373-.23629c-3.978-.43261-7.98877-1.00878-11.9209-1.71289l.35254-1.96875c3.88721.69532 7.85205 1.26563 11.78516 1.69336zm59.82617-3.68945-.46191-1.94531c3.85058-.91406 7.71386-1.97168 11.48242-3.14551l.59473 1.91016c-3.8125 1.18648-7.72022 2.25679-11.61524 3.18062zm-83.52344-.55273c-3.88379-.97559-7.7788-2.09864-11.57714-3.33692l.62011-1.90234c3.75489 1.22461 7.605 2.335 11.44434 3.2998zm106.5083-6.60547-.72558-1.86328c3.68066-1.43262 7.36181-3.01367 10.94043-4.69824l.85254 1.80859c-3.62062 1.70504-7.34424 3.30465-11.06739 4.75289zm-129.40332-.86235c-3.71045-1.501-7.41308-3.15039-11.00537-4.90234l.877-1.79687c3.55078 1.73144 7.21093 3.36132 10.87841 4.8457zm151.18409-9.39355-.97461-1.74609c3.45507-1.92969 6.88427-4.001 10.19287-6.15723l1.09179 1.67578c-3.34619 2.18066-6.81494 4.27637-10.31005 6.22754zm-172.83106-1.15527c-3.46631-1.9961-6.90723-4.1377-10.227-6.36524l1.11426-1.66015c3.28223 2.20214 6.68359 4.31933 10.11084 6.293zm193.00244-11.99118-1.20508-1.5957c3.16114-2.38574 6.27588-4.90625 9.25782-7.49219l1.31054 1.51172c-3.01611 2.61517-6.1665 5.16403-9.36328 7.57617zm-212.99707-1.4248c-3.1665-2.4541-6.2832-5.0459-9.26269-7.70215l1.33105-1.49219c2.94531 2.625 6.02637 5.18653 9.15723 7.61426zm231.18457-14.34863-1.41015-1.418c2.80468-2.79 5.54736-5.71094 8.15234-8.68164l1.50391 1.31836c-2.63477 3.00487-5.40918 5.95897-8.2461 8.78124zm-249.16259-1.666c-2.79688-2.85644-5.53174-5.84668-8.12842-8.88867l1.52148-1.29883c2.5669 3.00781 5.271 5.96485 8.03565 8.78906zm265.03662-16.43757-1.58985-1.21289c2.39649-3.1416 4.71582-6.4082 6.89453-9.71094l1.66993 1.10157c-2.20411 3.34083-4.54981 6.64551-6.97461 9.82226zm-280.668-1.874c-2.38477-3.21387-4.68653-6.54981-6.84131-9.91406l1.68457-1.07813c2.12988 3.3252 4.40527 6.623 6.76318 9.80078zm293.9248-18.22461-1.74023-.98438c1.94433-3.44043 3.79492-6.99414 5.5-10.5625l1.80469.86231c-1.72458 3.60936-3.59665 7.20409-5.56443 10.68456zm-306.91061-2.04689c-1.92334-3.51171-3.74658-7.13086-5.41895-10.75586l1.81641-.83789c1.65283 3.584 3.45557 7.16114 5.35644 10.63282z" fill="#d57149"/><path d="m308.11475 446.73877c-.70752-1.86475-1.395-3.7749-2.04346-5.67822l1.89355-.64453c.64063 1.88134 1.32032 3.77 2.02 5.61279z" fill="#d57149"/><path d="m311.20508 319.80225-1.85547-.7461c.749-1.86377 1.53857-3.73437 2.34668-5.55908l1.8291.80957c-.79883 1.8042-1.57959 3.65283-2.32031 5.49561z" fill="#d57149"/><path d="m318.78076 303.47217-1.76758-.93457c1.88916-3.57276 3.92969-7.12647 6.065-10.56153l1.69824 1.05567c-2.11042 3.39599-4.12749 6.90869-5.99566 10.44043zm305.35987-2.91309c-1.93262-3.49316-4.01661-6.96631-6.19239-10.32373l1.67774-1.08789c2.20117 3.396 4.30957 6.90967 6.26465 10.44287zm-292.65918-17.52685-1.62159-1.1709c2.3667-3.27832 4.87842-6.51514 7.46534-9.62158l1.5371 1.28027c-2.55761 3.0708-5.04101 6.27098-7.38085 9.51221zm279.57128-2.667c-2.39843-3.19287-4.94238-6.3457-7.55859-9.37011l1.51172-1.3086c2.64746 3.05909 5.21973 6.24756 7.64648 9.47754zm-264.17138-15.82568-1.44531-1.38281c2.79492-2.92041 5.728-5.78125 8.71777-8.50293l1.34668 1.47949c-2.95606 2.69043-5.85596 5.51856-8.61914 8.40625zm248.42578-2.3706c-2.81836-2.835-5.77149-5.60791-8.77783-8.2417l1.31836-1.50391c3.04052 2.66357 6.02734 5.46826 8.87793 8.33545zm-230.62891-13.82813-1.24121-1.56836c3.17285-2.51025 6.47168-4.93994 9.80469-7.22168l1.12988 1.65039c-3.29541 2.25583-6.55664 4.65772-9.69336 7.13965zm212.52735-2.02982c-3.17969-2.41895-6.48633-4.75879-9.82813-6.95411l1.09766-1.67187c3.38086 2.2207 6.72558 4.5874 9.9414 7.03418zm-192.67041-11.56051-1.0127-1.72461c3.48584-2.04639 7.08887-3.99658 10.7085-5.79639l.89062 1.791c-3.57858 1.77883-7.14013 3.70705-10.58642 5.73zm172.55615-1.6499c-3.48926-1.96-7.08789-3.81934-10.69531-5.52735l.85546-1.80761c3.64942 1.72753 7.28956 3.60888 10.81934 5.59082zm-151.00977-9.06006-.76367-1.84864c3.73633-1.543 7.57568-2.97314 11.41065-4.251l.63183 1.89746c-3.79053 1.26321-7.58545 2.67679-11.27881 4.20218zm129.26026-1.23535c-3.72608-1.45557-7.54785-2.7959-11.35938-3.98487l.59571-1.90918c3.85546 1.20264 7.72167 2.5586 11.49121 4.03076zm-106.43555-6.37012-.498-1.937c3.91309-1.00635 7.91455-1.8877 11.89258-2.61914l.36133 1.96679c-3.93216.72314-7.88726 1.59423-11.75591 2.58935zm83.46631-.7959c-3.88818-.92041-7.85938-1.71533-11.80371-2.36279l.32422-1.97364c3.98974.65479 8.00683 1.459 11.94043 2.39014zm-59.80176-3.55811-.22461-1.9873c4.0044-.45215 8.08838-.771 12.13965-.94824l.0874 1.998c-4.00586.17534-8.04394.49077-12.00244.93754zm36.05859-.34082c-3.97021-.37207-8.01367-.61084-12.01709-.70947l.04883-1.999c4.04981.09961 8.13916.34082 12.15479.71728z" fill="#d57149"/><path d="m632.05469 316.7998c-.77442-1.82714-1.58985-3.66113-2.42285-5.45117l1.8125-.84375c.84277 1.81055 1.668 3.666 2.45214 5.51367z" fill="#d57149"/><path d="m657.87115 384.24048a11.34613 11.34613 0 1 0 7.97885 3.32312 11.18271 11.18271 0 0 0 -7.97885-3.32312z" fill="#3f3d56"/><path d="m612.62885 384.24048a11.34613 11.34613 0 1 0 7.97882 3.32312 11.24231 11.24231 0 0 0 -7.97882-3.32312z" fill="#3f3d56"/><path d="m635.25 321.47705a57 57 0 1 0 57 57 57 57 0 0 0 -57-57zm11.0769 23.76923a5.45208 5.45208 0 0 1 5.50385 5.50384 5.53856 5.53856 0 1 1 -5.50385-5.50384zm-33.698 66.46154a16.15674 16.15674 0 1 1 16.14807-16.14807 16.20256 16.20256 0 0 1 -16.14812 16.14807zm25.39038-32.19232v15.57691a2.76923 2.76923 0 0 1 -5.53846 0v-11.40576c0-2.26728-2.76922-2.76923-10.64422-7.30384-1.02118-.60577-3.20191-1.67883-3.20191-4.69037a5.63583 5.63583 0 0 1 1.60956-3.87695l12.40967-11.95959a5.41486 5.41486 0 0 1 8.56726 1.14227l5.10577 10.40192h8.30774a2.76926 2.76926 0 0 1 0 5.53851h-9.93469c-1.85193 0-3.34039-3.98078-6.5769-8.91351l-8.4635 8.91351c3.09809 2.42303 8.35963 4.2923 8.35963 6.5769zm19.85192 32.175a16.14807 16.14807 0 1 1 16.14808-16.14807 16.19891 16.19891 0 0 1 -16.14813 16.14806z" fill="#3f3d56"/><path d="m797.25 321.47705a57 57 0 1 0 57 57 57 57 0 0 0 -57-57zm-15.10962 40.748a8.86392 8.86392 0 1 1 -9.06921 8.86157 8.958 8.958 0 0 1 9.06921-8.86152zm48.34039 38.40576h-6.0404v-8.86151h-54.38074v8.86151h-6.0404v-44.30763h6.0404v26.5846h24.1615v-20.68268h24.17887a11.94985 11.94985 0 0 1 12.08075 11.82116z" fill="#3f3d56"/><path d="m166.3269 363.24628h-16.96154a.69431.69431 0 0 0 -.69226.69232v24.23077a.6943.6943 0 0 0 .69226.69226h16.96154a2.77736 2.77736 0 0 0 2.76923-2.76922v-20.07691a2.77736 2.77736 0 0 0 -2.76923-2.76922z" fill="#3f3d56"/><path d="m162.51923 394.054a4.15892 4.15892 0 1 0 4.48266 4.48266 4.16669 4.16669 0 0 0 -4.48266-4.48266z" fill="#3f3d56"/><path d="m129.30579 394.054a4.15892 4.15892 0 1 0 4.48266 4.48266 4.16669 4.16669 0 0 0 -4.48266-4.48266z" fill="#3f3d56"/><path d="m143.13464 363.24628h-16.92694a2.81428 2.81428 0 0 0 -2.80383 2.80383v20.00769a2.81428 2.81428 0 0 0 2.80383 2.80383h16.92694a.6943.6943 0 0 0 .69226-.69226v-24.23077a.69431.69431 0 0 0 -.69226-.69232z" fill="#3f3d56"/><path d="m146.25 321.47705a57 57 0 1 0 57 57 57 57 0 0 0 -57-57zm27.69232 80.19232a6.94343 6.94343 0 0 1 -6.92309 6.923h-41.53846a6.94343 6.94343 0 0 1 -6.92309-6.923v-47.76928a5.55474 5.55474 0 0 1 5.53845-5.53846h44.30774a5.55474 5.55474 0 0 1 5.53845 5.53846z" fill="#3f3d56"/><path d="m166.5 353.20782h-40.5a2.42884 2.42884 0 1 0 0 4.84614h40.5a2.42884 2.42884 0 1 0 0-4.84614z" fill="#3f3d56"/><path d="m316.86536 380.03473c-1.14228 0-2.07691 1.69617-2.07691 3.80768s.93463 3.80768 2.07691 3.80768 2.077-1.69611 2.077-3.80768-.93467-3.80768-2.077-3.80768z" fill="#3f3d56"/><path d="m301.63464 380.03473c-1.14233 0-2.077 1.69617-2.077 3.80768s.93463 3.80768 2.077 3.80768 2.07691-1.69611 2.07691-3.80768-.93463-3.80768-2.07691-3.80768z" fill="#3f3d56"/><path d="m309.25 321.47705a57 57 0 1 0 57 57 57 57 0 0 0 -57-57zm-26.65387 55.06152 3.15-16.75384c.81348-4.55194 2.925-8.13464 6.88849-8.13464h5.9538l.34619-1.36731a5.535 5.535 0 0 1 5.36539-4.17115h9.86542a5.5388 5.5388 0 0 1 5.36535 4.15387l.34613 1.38459h5.98847c3.87695 0 5.93658 3.51348 6.90582 8.11731v.01733l3.1673 16.77118a.69052.69052 0 0 1 -.96924.76153l-4.39618-2.025a.65883.65883 0 0 1 -.39807-.50189l-2.80384-14.81543c-.51922-1.90381-1.24615-2.76923-2.78656-2.76923h-30.65192c-1.52307 0-2.35382.9173-2.7865 2.76923l-2.80389 14.81537a.69619.69619 0 0 1 -.39808.50195l-4.37884 2.00769a.6948.6948 0 0 1 -.96924-.76156zm61.04425 10.78272-9.46728 23.52112c-4.75965 0-9.81348-3.80768-9.81348-3.80768-3.11542 1.575-9.19037 2.95959-13.725 3.21924-.48462.01727-.952.0346-1.38464.0346s-.9 0-1.38464-.0346c-4.53461-.25965-10.60956-1.66156-13.725-3.21924 0 0-5.05383 3.80768-9.81348 3.80768l-9.46728-23.52112a3.21588 3.21588 0 0 1 -.225-1.15967 3.1269 3.1269 0 0 1 1.81726-2.83844l32.20966-14.79809a1.36006 1.36006 0 0 1 1.15961 0l32.22693 14.79809a3.1269 3.1269 0 0 1 1.81726 2.83844 3.21588 3.21588 0 0 1 -.22492 1.15967z" fill="#3f3d56"/><path d="m472.25 321.47705a57 57 0 1 0 57 57 57 57 0 0 0 -57-57zm26.258 62.55573c-.58851 0-2.54425-.01728-3.11542-.05188l-11.23267-.29425a.34012.34012 0 0 0 -.29425.15576l-16.85766 25.2a2.75955 2.75955 0 0 1 -2.33655 1.28076h-4.10193c-.96924 0-1.2981-.96924-.95191-1.8692l8.67115-24.73273a.34326.34326 0 0 0 -.31153-.46728l-21.06347-.46735a1.41769 1.41769 0 0 0 -1.14234.53656l-6.525 7.90961a2.79918 2.79918 0 0 1 -2.18079 1.05578h-2.89038a.68934.68934 0 0 1 -.65771-.91729l3.44427-11.89038a2.821 2.821 0 0 0 0-2.05964l-3.44427-11.89038a.68934.68934 0 0 1 .65771-.91729h2.90775a2.74676 2.74676 0 0 1 2.18072 1.05578l6.40387 7.78845a1.39423 1.39423 0 0 0 1.14228.5365l21.18463-.31152a.33862.33862 0 0 0 .31158-.46728l-8.6712-24.7154c-.34613-.9-.01728-1.86926.952-1.86926h4.10193a2.78161 2.78161 0 0 1 2.33649 1.28076l16.84036 25.21739a.32071.32071 0 0 0 .29425.15576l11.23267-.29425c.55389-.03461 2.52691-.05188 3.11542-.05188 7.68463 0 12.51342 2.49231 12.51342 5.55572s-4.84613 5.53843-12.51342 5.53843z" fill="#3f3d56"/><path d="m154.92236 570.61278a12 12 0 1 1 12-12 12.01375 12.01375 0 0 1 -12 12zm0-22a10 10 0 1 0 10 10 10.01114 10.01114 0 0 0 -10-10z" fill="#f0f0f0"/><path d="m407.92236 301.61278a12 12 0 1 1 12-12 12.01375 12.01375 0 0 1 -12 12zm0-22a10 10 0 1 0 10 10 10.01114 10.01114 0 0 0 -10-10z" fill="#f0f0f0"/><path d="m631.39387 630.98272-13.4651-14.43621 14.43623-13.46509 13.46509 14.43621zm-11.31887-14.36151 11.39354 12.21526 12.21525-11.39354-11.39354-12.21526z" fill="#f0f0f0"/></g></svg>